<svg id="Layer_1" data-name="Layer 1" xmlns="http://www.w3.org/2000/svg" viewBox="0 0 240.47 240.47"><defs><style>.cls-1{fill:#257dbd;}.cls-2{fill:#fff;}</style></defs><circle class="cls-1" cx="120.23" cy="120.23" r="120.23"/><path class="cls-2" d="M197.17,141.31a3.52,3.52,0,0,0-4.9-.9l-35.34,24.31a16,16,0,0,0-18.12-.26L69.26,64.93a3.52,3.52,0,0,0-4.91-.87L45.51,77.21a3.53,3.53,0,0,0,4,5.79l16-11.14,68.35,97.82a16.08,16.08,0,1,0,27.86.32l34.56-23.78A3.53,3.53,0,0,0,197.17,141.31ZM147.69,186.9a9,9,0,1,1,9-9A9,9,0,0,1,147.69,186.9Z"/><path class="cls-2" d="M147.69,194.83a17,17,0,0,1-14.87-25.11L65.28,73.08,50.05,83.71a4.36,4.36,0,0,1-3.29.73A4.4,4.4,0,0,1,45,76.5L63.85,63.34A4.41,4.41,0,0,1,70,64.43l69.07,98.85a17.17,17.17,0,0,1,17.88.38l34.84-24a4.41,4.41,0,0,1,6.12,1.14h0a4.38,4.38,0,0,1-1.13,6.12l-33.91,23.34a16.95,16.95,0,0,1-15.16,24.55Zm-82-124.18,69.18,99-.29.48a15.21,15.21,0,1,0,26.35.31l-.4-.7,35.22-24.23a2.67,2.67,0,0,0,1.11-1.7,2.6,2.6,0,0,0-.43-2,2.65,2.65,0,0,0-3.69-.68l-35.83,24.65-.5-.35a15.4,15.4,0,0,0-17.13-.24l-.71.47-70-100.23a2.65,2.65,0,0,0-3.69-.66L46,77.93a2.65,2.65,0,1,0,3,4.35Zm82,117.12a9.9,9.9,0,1,1,9.9-9.9A9.92,9.92,0,0,1,147.69,187.77Zm0-18.06a8.16,8.16,0,1,0,8.15,8.16A8.17,8.17,0,0,0,147.69,169.71Z"/><path class="cls-2" d="M150.58,127.19a5.39,5.39,0,0,1-7.48-1.42h0l-11,7.37c-2.4,1.6-2.8,5.24-.9,8.09L142,157.46a6.5,6.5,0,0,0,5.25,3,4.61,4.61,0,0,0,2.56-.75l32-21.37c2.4-1.6,2.8-5.24.9-8.08L171.85,114a6.51,6.51,0,0,0-5.25-3,4.49,4.49,0,0,0-2.56.76l-12,8A5.39,5.39,0,0,1,150.58,127.19ZM160,123l6.48-4.33,9.92,14.84-29,19.35L137.48,138l5.51-3.68a12.52,12.52,0,0,0,4.56.86A12.41,12.41,0,0,0,160,123Z"/><path class="cls-2" d="M147.25,161.36a7.39,7.39,0,0,1-6-3.41l-10.85-16.24a7.71,7.71,0,0,1-1.3-5.09,5.72,5.72,0,0,1,2.44-4.21l11.81-7.88.47.79a4.63,4.63,0,0,0,6.24,1.14h0a4.52,4.52,0,0,0,1.23-6.19l-.48-.72,12.72-8.5a5.48,5.48,0,0,1,3-.9,7.36,7.36,0,0,1,6,3.41l10.85,16.23c2.17,3.26,1.66,7.43-1.14,9.3l-32,21.36A5.38,5.38,0,0,1,147.25,161.36Zm-4.34-34.42-10.37,6.93a3.93,3.93,0,0,0-1.68,2.94,5.89,5.89,0,0,0,1,3.93L142.72,157c1.58,2.36,4.65,3.32,6.6,2l32-21.36c2-1.34,2.29-4.42.65-6.88l-10.84-16.23c-1.57-2.35-4.67-3.32-6.6-2l-11.33,7.57a6.29,6.29,0,0,1-2.12,7.84h0A6.41,6.41,0,0,1,142.91,126.94Zm4.25,27.12-10.89-16.3,6.62-4.42.42.16A11.54,11.54,0,0,0,159.08,123v-.46l7.59-5.07,10.89,16.31Zm-8.47-15.82,8.95,13.4,27.51-18.38-9-13.39-5.39,3.6a13.27,13.27,0,0,1-17.7,11.82Z"/><path class="cls-2" d="M120.47,127a6.51,6.51,0,0,0,5.25,3,4.52,4.52,0,0,0,2.56-.76l32-21.36c2.39-1.6,2.8-5.24.9-8.09L150.32,83.55a6.51,6.51,0,0,0-5.25-3,4.59,4.59,0,0,0-2.56.76l-12,8a5.38,5.38,0,0,1-8.94,6h0l-11,7.38c-2.39,1.6-2.8,5.24-.89,8.08Zm1-23.15a12.38,12.38,0,0,0,11.56-1.3,12.47,12.47,0,0,0,5.4-10l6.49-4.33L154.84,103l-29,19.34L116,107.5Z"/><path class="cls-2" d="M125.72,130.86a7.4,7.4,0,0,1-6-3.41L108.9,111.22a7.74,7.74,0,0,1-1.31-5.09,5.68,5.68,0,0,1,2.45-4.21L121.84,94l.48.78A4.63,4.63,0,0,0,128.56,96a4.54,4.54,0,0,0,1.22-6.2l-.47-.72L142,80.55a5.51,5.51,0,0,1,3-.9,7.42,7.42,0,0,1,6,3.41L161.89,99.3a7.65,7.65,0,0,1,1.31,5.09,5.68,5.68,0,0,1-2.45,4.2l-32,21.37A5.48,5.48,0,0,1,125.72,130.86Zm-4.34-34.41L111,103.37a4,4,0,0,0-1.68,2.95,6,6,0,0,0,1,3.93l10.85,16.23c1.58,2.36,4.65,3.33,6.6,2l32-21.37a4,4,0,0,0,1.68-2.94,6,6,0,0,0-1-3.93L149.59,84c-1.57-2.36-4.65-3.32-6.6-2l-11.32,7.56a6.29,6.29,0,0,1-2.13,7.84A6.42,6.42,0,0,1,121.38,96.45Zm4.25,27.12-10.89-16.31,6.62-4.42.43.17a11.54,11.54,0,0,0,15.77-10.54V92L145.16,87l10.89,16.3Zm-8.46-15.82,9,13.39,27.5-18.37-8.94-13.4L139.29,93a13.29,13.29,0,0,1-17.71,11.83Z"/></svg>