<svg id="Layer_1" data-name="Layer 1" xmlns="http://www.w3.org/2000/svg" viewBox="0 0 240.47 240.47"><defs><style>.cls-1{fill:#f48e30;}.cls-2{fill:#fff;}</style></defs><circle class="cls-1" cx="120.23" cy="120.23" r="120.23"/><path class="cls-2" d="M128.08,123.37c0-4.39-.64-8.7,3.57-12.41,2.35-2.07,2.93-5.64,1.85-8.82-.44-1.29.06-2,.66-3.07,3.24-5.41,1.7-10.78-4.09-13.75-1.54-.79-2.09-1.55-2-3.11.13-3.62.07-7.25,0-10.87,0-5.75-3.21-8.87-9.44-9-1.5,0-2.09-.26-2.47-1.62-1.2-4.34-4.37-6.54-9.31-6.16-1.83.15-1.92-.46-2-1.79-.65-6.3-1.44-9.27-8.28-9.56-4.72,0-5.83.29-7.22,2.69-1.63,2.81-.63,6.43-2.22,8s-5.58-.08-8.47,1.65C77.81,56,76,57.47,76,61c0,.14,0,4.19,0,5.47-.13,9.87,0,19.75-.08,29.63,0,.9.53,2-.72,2.94-3.23-3.4-6.31-6.88-9.66-10.12A8.47,8.47,0,0,0,55,87.83a7,7,0,0,0-3,8.89c.66,1.76,1.4,3.5,2.1,5.24L63.43,125l-.23-.1a18,18,0,0,1,1.34,2.23A3.46,3.46,0,0,0,62,130.41l-.87,64.65a3.48,3.48,0,0,0,3.42,3.51l8.51.11a3.46,3.46,0,0,0,3.51-3.41l.71-52.4c1,.59,2,1.13,3,1.65L79.6,195A3.44,3.44,0,0,0,83,198.49h0a3.45,3.45,0,0,0,3.47-3.38l.65-47.75c.92.29,1.87.55,2.83.79L89.3,195a3.43,3.43,0,1,0,6.85.09l.62-45.91C110.73,150,128,142.49,128.08,123.37Zm-11.62-52.8c0-1.71.6-3,2.73-3,2.29,0,3.09,1.29,3.09,3.18V81.59c-1.82-1.81-5.88-1.29-5.83-4.64C116.48,74.82,116.47,72.69,116.46,70.57Zm2.06,16.5c1.12,2.22,2.25,3.52,5.29,2.43a4.61,4.61,0,0,1,5.61,2.09,3.75,3.75,0,0,1-.53,5.19c-2,1.75-2,3.34-1.21,5.66,1.73,5-2.69,10-8.38,10-6.15,0-10.43-5.82-7.87-11.15,1.34-2.8,1-4.26-2.25-5.44A6,6,0,0,1,104.92,89c.45-3.1,2.58-5,5.81-5.56C114.18,82.83,117,84.12,118.52,87.07Zm-11-27.55c2.25-.06,3.22,1.47,3.18,3.52a92.1,92.1,0,0,0,0,9.69c.33,3.77-.25,6.63-5.94,6.61,0-5.42,0-10.88,0-16.34C104.78,61.12,105.5,59.58,107.55,59.52Zm-2.84,83.86a35.19,35.19,0,0,1-7.87.56,32.18,32.18,0,0,1-6.84-1c-1-.25-1.91-.54-2.83-.88a30.62,30.62,0,0,1-6.81-3.55,30,30,0,0,1-3-2.35,30.9,30.9,0,0,1-6.89-9.07c-.34-.68-.67-1.37-1-2.08-4-9.51-7.77-19.1-11.66-28.65-.62-1.52-1.63-3.09.6-4.23s3.18.6,4.29,1.77Q68.93,100.42,75,107c1.23,1.33,2.29,3.14,4.61,2.34s1.88-2.81,1.88-4.54V65.05a22.87,22.87,0,0,1,.1-3,2.73,2.73,0,0,1,3-2.56,2.89,2.89,0,0,1,2.91,2.69,22.82,22.82,0,0,1,.05,2.62q0,15.76,0,31.52c0,2-.09,4.13,2.78,4.11s2.88-2.2,2.88-4.16V74.52c0-6.75,0-13.51,0-20.26,0-2.18-.66-5.24,2.84-5.24,3.74,0,3,3.14,3.08,5.45,0,1.12,0,2.25,0,3.37,0,12.89,0,25.77,0,38.65,0,2.37.43,4.85,3.68,3.8,3.46-1.12,2.53.22,2.29,2.07-1,7.86,4.21,14.79,12.65,15,5.41.1,4.58,2.45,4.57,5.33C122.26,133.91,116,141.27,104.71,143.38Z"/><path class="cls-2" d="M48.67,53.67a24.86,24.86,0,0,0,0,3,2.4,2.4,0,0,0,2.81,2.16c1.61-.06,2.53-.84,2.56-2.34s0-3.25,0-4.87-.69-3.07-2.62-3.15-2.86,1.22-2.9,3c0,.75,0,1.5,0,2.25Z"/><path class="cls-2" d="M45.49,59a36.92,36.92,0,0,0-5.76,0c-1.69.14-2.85,1.12-2.73,2.73s1.18,2.47,3,2.41c1,0,1.92,0,2.89,0s1.65,0,2.47,0c1.77,0,2.87-.76,2.88-2.48S47.17,59.1,45.49,59Z"/><path class="cls-2" d="M57.74,64.14c.82,0,1.65,0,2.47,0s1.92.05,2.87,0c1.56-.1,2.53-.77,2.59-2.33a2.4,2.4,0,0,0-2.22-2.7A36,36,0,0,0,57.31,59c-1.67.09-2.86,1-2.82,2.63C54.54,63.46,55.77,64.23,57.74,64.14Z"/><path class="cls-2" d="M54.09,71.5c0-.74,0-1.49,0-2.24h0c0-.87,0-1.74,0-2.61a2.73,2.73,0,0,0-5.39,0,46.13,46.13,0,0,0-.07,4.85c0,1.78.56,3.28,3,3.16C53.79,74.53,54.17,73.16,54.09,71.5Z"/><path class="cls-2" d="M152.59,94.67a2.69,2.69,0,0,0,2.91-2.59c.11-1.78-1.11-2.74-3.06-2.78a2.47,2.47,0,0,0-2.84,2.64C149.65,93.62,150.56,94.7,152.59,94.67Z"/><path class="cls-2" d="M208.3,80.23,195.18,71.7,109.37,198.11c45.07,9.62,96.19-67.45,96.19-67.45L191.91,107Z"/><path class="cls-2" d="M134.78,136.39h0a3.33,3.33,0,0,0-4.7,1.27l-31,55.27a3.77,3.77,0,0,0,1.18,5,3.33,3.33,0,0,0,4.7-1.27l31-55.27A3.77,3.77,0,0,0,134.78,136.39Z"/></svg>