<svg id="Layer_1" data-name="Layer 1" xmlns="http://www.w3.org/2000/svg" viewBox="0 0 240.47 240.47"><defs><style>.cls-1{fill:#f48e30;}.cls-2{fill:#fff;}</style></defs><circle class="cls-1" cx="120.23" cy="120.23" r="120.23"/><path class="cls-2" d="M95.37,182.54c-27.76,0-50.79-20.93-54.56-48A66.36,66.36,0,0,0,51.21,138c1,.25,2,.5,3.09.73a147.34,147.34,0,0,0,40,5.34h.38c10-.71,18.11-1.35,25.16-2.2a34.29,34.29,0,0,1-.49-5c0-.26,0-.52,0-.78a26.06,26.06,0,0,1,.72-5.47c-5.52.67-11.81,1.15-18.89,1.33l.12-.06a5.29,5.29,0,0,0,1.94-7.24L75.59,76.72l-.18-.3a15.27,15.27,0,0,0-21.15-4.28l-.48.32a15.05,15.05,0,0,0-6.46,9.72,15.28,15.28,0,0,0,2.2,11.33l17.35,29.07A5.3,5.3,0,0,0,76,117.15L58.57,88a1.64,1.64,0,0,0-.14-.22,4.73,4.73,0,0,1-.7-3.53,4.52,4.52,0,0,1,1.93-2.93l.48-.32a4.65,4.65,0,0,1,6.36,1.22L94,129.93A5.23,5.23,0,0,0,96.23,132H94.91c-16.26,0-28.83-1.56-37.81-3.53-5.93-1.65-10.69-3.4-14.28-4.74a8.83,8.83,0,0,1-2.31-1.66c.83-.86,3.28-2.56,8.75-4.35A5.3,5.3,0,1,0,46,107.65c-10.82,3.53-16.31,8.38-16.31,14.41a9.65,9.65,0,0,0,.39,2.68,5.22,5.22,0,0,0-.39,1.92c0,36.66,29.48,66.49,65.71,66.49a65.28,65.28,0,0,0,50.57-24.09,34.21,34.21,0,0,1-10.39-4.22A54.59,54.59,0,0,1,95.37,182.54Z"/><path class="cls-2" d="M104.57,112.32a182.62,182.62,0,0,1,21.2,2c1.43-3.25,3-6.6,4.69-10A200.57,200.57,0,0,0,105,101.72a5.3,5.3,0,1,0-.45,10.6Z"/><path class="cls-2" d="M186.61,100.91a25.09,25.09,0,0,1,25.52-.58l4.92-7.54a34,34,0,0,0-35.21.48l-.32.21c-.85.61-1.69,1.16-2.52,1.66,1.41,2.65,2.8,5.34,4.13,8C184.28,102.49,185.44,101.75,186.61,100.91Z"/><path class="cls-2" d="M188.51,114.72c1.26,2.94,2.37,5.77,3.27,8.42A24.75,24.75,0,0,1,212.13,125l4.92-7.55A33.9,33.9,0,0,0,188.51,114.72Z"/><path class="cls-2" d="M194.14,138a33.51,33.51,0,0,1-2.5,10,24.81,24.81,0,0,1,20.49,1.77l4.92-7.55A33.94,33.94,0,0,0,194.14,138Z"/><path class="cls-2" d="M184,124.87c-7.2,5.13-13.91,7-19.59,7.33-.57,0-1.14.05-1.69.05a31.22,31.22,0,0,1-7.92-1A30.81,30.81,0,0,1,142.62,125c5-1.49,8.28-3,9.81-4.26a22.61,22.61,0,0,0,12.09,2.36,28.58,28.58,0,0,0,14.35-5.71l.32-.21a37.85,37.85,0,0,1,6.67-3.17c-1.59-3.73-3.42-7.63-5.38-11.55a34.83,34.83,0,0,1-17.8,5.13,31.22,31.22,0,0,1-7.92-1,30.59,30.59,0,0,1-12.19-6.23l3-3.33,3-3.36c.51.45,12,10.3,27.75.79-9.15-17.21-19-32.65-19-32.65s-13.15,20.58-23.16,40.69c-1.68,3.38-3.27,6.73-4.69,10a109.87,109.87,0,0,0-4.94,13.13c-.32,1.09-.57,2.12-.79,3.12a25.49,25.49,0,0,0-.72,5.47c0,.27,0,.52,0,.78a34.29,34.29,0,0,0,.49,5,33.86,33.86,0,0,0,15.72,23A34.55,34.55,0,0,0,189,147.26a28.45,28.45,0,0,0-5,2.34C176,155.25,168.69,157,162.68,157a31.21,31.21,0,0,1-5.81-.56c-.74-.14-1.45-.29-2.11-.47a32.3,32.3,0,0,1-8-3.26,56.61,56.61,0,0,0,3.83-8.19,22.88,22.88,0,0,0,10.07,3.36c5,.44,11.21-.7,18.17-5.7l.32-.21a36.12,36.12,0,0,1,12.29-4.66q.15-1.53.15-3.09c0-3.09-.94-7.14-2.5-11.74A28.27,28.27,0,0,0,184,124.87Z"/></svg>