<svg id="Layer_1" data-name="Layer 1" xmlns="http://www.w3.org/2000/svg" viewBox="0 0 240.47 240.47"><defs><style>.cls-1{fill:#6aaa43;}.cls-2{fill:#fff;}</style></defs><circle class="cls-1" cx="120.23" cy="120.23" r="120.23"/><path class="cls-2" d="M134.34,62.26c-2-.09-2.89,1.35-2.94,3.27,0,.83,0,1.66,0,2.49h.09a28.08,28.08,0,0,0,0,3.31,2.47,2.47,0,0,0,2.83,2.4,2.41,2.41,0,0,0,2.6-2.59c0-1.8,0-3.6,0-5.4C137.09,63.78,136.29,62.34,134.34,62.26Z"/><path class="cls-2" d="M128.28,73.9a34.51,34.51,0,0,0-5.84,0,2.72,2.72,0,0,0-2.75,3,2.66,2.66,0,0,0,3.06,2.67c1,0,2,0,2.92,0s1.67,0,2.5,0c1.8,0,2.9-.84,2.92-2.75A2.73,2.73,0,0,0,128.28,73.9Z"/><path class="cls-2" d="M146.45,74a33,33,0,0,0-6.21-.13,2.73,2.73,0,0,0-2.86,2.91c.05,2.06,1.29,2.91,3.29,2.81.83,0,1.67,0,2.5,0s1.94,0,2.91,0A2.46,2.46,0,0,0,148.7,77,2.62,2.62,0,0,0,146.45,74Z"/><path class="cls-2" d="M137,85.29h0c0-1,0-1.93,0-2.89a2.73,2.73,0,0,0-5.45,0,53.41,53.41,0,0,0-.08,5.37c0,2,.57,3.63,3,3.5,2.22-.12,2.61-1.64,2.53-3.47C136.94,87,137,86.12,137,85.29Z"/><path class="cls-2" d="M181.39,117.16l-2.2-2-10.3,14.64,10.3,9.37L169.1,148l14.43,9.19L178,166.74l8.09,10,2.26-3.28c.23-.32.46-.65.67-1a43.24,43.24,0,0,0-7.59-55.36Z"/><path class="cls-2" d="M170.35,167.74l5.91-10.19-13.63-8.68,9.68-8.43-10.75-9.78L170.45,118l-1.94-1.54c-.74-.58-1.49-1.14-2.25-1.67a44.5,44.5,0,0,0-39.37-5.71,11.3,11.3,0,0,0-5-5.28,3.3,3.3,0,0,1-2.06-3.45c.13-4,.07-8,0-12,0-6.36-3.25-9.82-9.55-10-1.52,0-2.12-.29-2.5-1.79-1.22-4.81-4.43-7.25-9.42-6.82-1.86.15-1.95-.51-2.09-2-.65-7-.47-10.2-8.35-10.2l-1.56.09h.29s-4.3.23-.29,0c-2.87-.1-4.54.88-5.61,2.39-2,2.82-.8,7.24-2.4,9s-5.7.74-8.62,2.65c-.81.53-2.25,1.68-2.4,2.59,0,.15-.2,7.27-.22,8.69-.13,10.94,0,21.88-.08,32.82,0,1,.54,2.18-.72,3.25-3.27-3.77-6.39-7.61-9.78-11.2a8,8,0,0,0-10.61-1.21,8.17,8.17,0,0,0-3.08,9.84c.67,2,1.42,3.88,2.13,5.81,3,8.21,6.07,16.41,9.44,25.53l-.23-.11a19.76,19.76,0,0,1,2.31,4.95,17.16,17.16,0,0,1,1,2.26c.11.25.23.49.32.74a68.68,68.68,0,0,0,7.83,10c6.07,4.5,12.61,7.74,20.28,8.77a33.66,33.66,0,0,0,16.65-2.07,44.39,44.39,0,0,0,73.06,5.25l1.31-1.64ZM108.1,87.49c0-1.9.6-3.33,2.77-3.36S114,85.55,114,87.64v12c-1.84-2-5.95-1.43-5.9-5.14C108.12,92.2,108.11,89.84,108.1,87.49Zm-9-12.24c2.27-.06,3.25,1.62,3.21,3.9-.06,3.58-.24,7.18,0,10.74.33,4.16-.26,7.33-6,7.31,0-6,0-12,0-18.09C96.28,77,97,75.31,99.09,75.25ZM114,145.17c0,8.93-3.27,15.63-9.31,19.59a22.8,22.8,0,0,1-4.72,2.33,28.07,28.07,0,0,1-3.77,1c-15.39,3.13-29.69-5-35.6-20.39-4-10.53-7.86-21.15-11.79-31.72-.63-1.69-1.65-3.43.6-4.69s3.22.67,4.34,2q6.26,7.26,12.41,14.57c1.25,1.47,2.32,3.48,4.67,2.59s1.9-3.11,1.9-5V81.38a28.19,28.19,0,0,1,.1-3.32,2.87,2.87,0,0,1,3-2.83,3.06,3.06,0,0,1,3,3c.09,1,0,1.94,0,2.91,0,11.64,0,23.27,0,34.91,0,2.17-.09,4.58,2.81,4.56s2.92-2.44,2.92-4.61V91.87c0-7.48,0-15,0-22.45,0-2.41-.66-5.79,2.87-5.8,3.79,0,3.07,3.48,3.12,6,0,1.25,0,2.5,0,3.75q0,21.39,0,42.8c0,2.62.42,5.38,3.72,4.21,3.5-1.24,2.56.24,2.31,2.29a15.75,15.75,0,0,0,3.17,11.92,12.41,12.41,0,0,0,4.33,3.4,12.88,12.88,0,0,0,5.31,1.24C114.85,139.37,114,142,114,145.17Zm-3-11.25a8.48,8.48,0,0,1-4.54-1.29A8.83,8.83,0,0,1,103,121.57c1.36-3.1,1-4.72-2.28-6s-4.8-4.1-4.31-7.69a7.25,7.25,0,0,1,13.76-2.09c1.14,2.46,2.28,3.9,5.36,2.69,2.32-.91,4.41.18,5.68,2.31.1.18.18.35.27.53a4.3,4.3,0,0,1-.81,5.22,5.44,5.44,0,0,0-1.5,2.12,6.38,6.38,0,0,0,.27,4.15C121.2,128.29,116.73,133.91,111,133.92Z"/></svg>