<svg xmlns="http://www.w3.org/2000/svg" viewBox="0 0 158.89 73.93"><defs><style>.cls-1,.cls-3{fill:#ba9a27;}.cls-1,.cls-2{fill-rule:evenodd;}.cls-2,.cls-4{fill:#97959a;}</style></defs><title>Recurso 1</title><g id="Capa_2" data-name="Capa 2"><g id="Layer_1" data-name="Layer 1"><path class="cls-1" d="M72.62,67.2a.53.53,0,0,1-.32-.1.28.28,0,0,1-.13-.23.26.26,0,0,1,0-.06,2.51,2.51,0,0,0-1.41,2c0,.9.81,1.73,2.14,2.36l.36-.3V67a1,1,0,0,1-.3.14A1.25,1.25,0,0,1,72.62,67.2Z"/><path class="cls-1" d="M86.64,66.68c0,.1-.05.19-.09.29a5.53,5.53,0,0,1-.23.57c-.06.14-.24.48-.53,1A5.09,5.09,0,0,0,85.22,71c0,.1,0,.2,0,.3H84.16a4.57,4.57,0,0,1,.18-1,5.79,5.79,0,0,1,1-1.84c.34-.44.57-.78.7-1a1.52,1.52,0,0,0,.23-.54H83.61V67a1.51,1.51,0,0,1-.1.63.32.32,0,0,1-.31.2.35.35,0,0,1-.2-.06.17.17,0,0,1-.08-.15.19.19,0,0,1,.05-.13.17.17,0,0,1,.13-.06.19.19,0,0,1,.13.06.11.11,0,0,0,.06,0s.08,0,.1-.13,0-.16,0-.4v-.78h2.36a16.72,16.72,0,0,0-6.24-1.08,15.12,15.12,0,0,0-7.11,1.51l.06,0a.16.16,0,0,1,0,.11.43.43,0,0,1,0,.05v0s0,.07.11.07a.82.82,0,0,0,.52-.2,1.29,1.29,0,0,0,.39-.52H74v4.59l.56.46h-1.3a12.33,12.33,0,0,0,2.06.64,2.6,2.6,0,0,0,1.66-1,3,3,0,0,0,.49-1.06,5.25,5.25,0,0,0,.18-1.38,3.9,3.9,0,0,0-.17-1.28,1.25,1.25,0,0,0-.44-.58,1,1,0,0,0-.63-.21.87.87,0,0,0-.82.54,2,2,0,0,0-.17.86,1.5,1.5,0,0,0,.27,1,.92.92,0,0,0,.76.37.81.81,0,0,0,.82-.48,2,2,0,0,0,.1-.37.1.1,0,0,1,.1-.09c.08,0,.12.07.12.22a1,1,0,0,1-.36.79,1.4,1.4,0,0,1-1,.37,1.48,1.48,0,0,1-1.17-.51,1.6,1.6,0,0,1-.39-1.1,1.81,1.81,0,0,1,.6-1.41,1.66,1.66,0,0,1,1.16-.45A1.74,1.74,0,0,1,78,67a2.9,2.9,0,0,1,.42,1.61,3.81,3.81,0,0,1-.56,2.06,3.36,3.36,0,0,1-1.23,1.18,3.08,3.08,0,0,1-.57.24,19.87,19.87,0,0,0,3.46.29c4.82,0,8.76-1.62,8.76-3.61C88.29,68,87.67,67.27,86.64,66.68Zm-4,4.63H78.89a2.67,2.67,0,0,1,.51-1.12,4.08,4.08,0,0,1,1.08-.93,5.35,5.35,0,0,0,.74-.52,1.58,1.58,0,0,0,.54-1.21,1,1,0,0,0-.33-.83,1.11,1.11,0,0,0-.74-.25,1,1,0,0,0-.7.24.81.81,0,0,0-.29.64.71.71,0,0,0,.18.5.57.57,0,0,0,.44.2.59.59,0,0,0,.26,0,.87.87,0,0,0,.24-.19.88.88,0,0,1-.27.54.8.8,0,0,1-.55.2,1,1,0,0,1-.72-.3,1,1,0,0,1-.29-.7,1.25,1.25,0,0,1,.53-1,1.85,1.85,0,0,1,1.16-.34,1.94,1.94,0,0,1,1.36.48,1.4,1.4,0,0,1,.5,1.06,1.52,1.52,0,0,1-.74,1.24l-.35.23-.81.45a2.7,2.7,0,0,0-.63.48,2.34,2.34,0,0,0-.45.61h1.62a3.66,3.66,0,0,0,1.08-.1.57.57,0,0,0,.35-.43Z"/><path class="cls-2" d="M152.62,63.19c-.13-.24-.26-.52-.62-.53H6.89c-.37,0-.5.29-.62.53-1.47,0-3,.42-3,1.87A1.3,1.3,0,0,0,4.34,66.3H5c.27,0,.11-.21.11-.43v-.05a2.28,2.28,0,0,1,1.93-1.87H50.24l-.67.62c-.05.2-.2.26-.2.56v.12c0,.75.68.51,1,.48v.48c0,.5.65,1,1,.8-.5-.2-.17-.52-.26-.78l.06,0c.26,0,.32.44.72.44H52a.79.79,0,0,0,.76-.84l-.07-.44c-.22.06-.31.44-.65.44h-.12a.46.46,0,0,1-.36-.4v-.16c0-.18.35-.44.56-.44h.16c.63,0,.88.54,1,1.08.11-.08.42-.63.63-.81s.63-.55.85-.55h.37a9.13,9.13,0,0,0,2.09-.14c.18,0,.29.27,0,.58s-.68.3-.68.79a.58.58,0,0,0,1.12.22c-.07-.11-.25-.23-.25-.37,0-.46,1-.75,1.79-1.65h.68c-.23.26-.59.67-.59.69s.49.3.65.3h.22c.55,0,.67-.47.9-.63,0,.63,0,2.61.51,2.61A3.84,3.84,0,0,1,62,65.6a3,3,0,0,1,1.26-1.3,4.94,4.94,0,0,1,2.34-.36,5.06,5.06,0,0,1,2.73.85l0,0a3.69,3.69,0,0,1,1.23,2.89v0c0,3.9-5.08,3.75-5.08,1.24a1.87,1.87,0,0,1,.67-1.37,1.46,1.46,0,0,1,1.86,0,1.34,1.34,0,0,1,.35.9v.08c0,.9-.43,1-.52,1.28A1.81,1.81,0,0,0,68,69.26a1.47,1.47,0,0,0-.44-2.33c.22-.29.6-.36.6-1a1.93,1.93,0,0,0-.08-.48c-.2,0-.35.28-.64.28H67.3c-.25,0-.63-.34-1.19-.31-.71,0-.72.29-1.09.39a4.65,4.65,0,0,0,.08-.52,1.39,1.39,0,0,0-.31-.77,1.42,1.42,0,0,0-.32-.25c-.25-.15-.14,0-.14.18v.08c0,1.48-1.92,1-1.92,3.32,0,1.18.82,1.59.92,2a8.88,8.88,0,0,1-2.42-1.3,2.84,2.84,0,0,1-1.34-2.26s0-.07,0-.12c-1,0-1,.71-1.12,1.36-.46-.3-.48-.69-1.36-.68-.7,0-1-.37-1-1.08a1.28,1.28,0,0,0-.6.84v.12c0,.71.36.75.44,1a2.73,2.73,0,0,0-2.76,1.76,10.53,10.53,0,0,0,1.09-.27,5.94,5.94,0,0,1,1.19-.13h.84c1.73,0,3.27,1,4.57,1.43,1.73.65,3.83,1.47,5.73,1.1.2,0,.57-.2.29.13s-.75.33-.75.85a.65.65,0,0,0,1.24.24c-.08-.12-.28-.25-.28-.4,0-.67,2-1,2.75-3.06.65,2,4.53,3.62,9.29,3.7a2.43,2.43,0,0,0,.38.84h0a2.44,2.44,0,0,0,.38-.84c4.59-.08,8.37-1.56,9.21-3.49.81,1.88,2.67,2.2,2.67,2.85,0,.15-.2.28-.28.4a.65.65,0,0,0,1.24-.24c0-.52-.45-.49-.75-.85s.09-.17.29-.13c1.9.36,4-.46,5.73-1.1,1.29-.48,2.83-1.43,4.57-1.43h.84a6,6,0,0,1,1.19.13,10.52,10.52,0,0,0,1.09.27,2.73,2.73,0,0,0-2.76-1.76c.08-.29.44-.33.44-1v-.12a1.28,1.28,0,0,0-.6-.84c0,.71-.26,1.09-1,1.08-.88,0-.9.37-1.36.68-.14-.65-.14-1.34-1.12-1.36,0,0,0,.11,0,.12A2.84,2.84,0,0,1,98,68.51a8.86,8.86,0,0,1-2.42,1.3c.1-.37.92-.78.92-2,0-2.34-1.92-1.84-1.92-3.32v-.08c0-.15.11-.33-.13-.18a1.36,1.36,0,0,0-.32.25,1.38,1.38,0,0,0-.31.77,4.64,4.64,0,0,0,.08.52c-.37-.1-.38-.34-1.09-.39-.56,0-.94.31-1.19.31h-.16c-.29,0-.43-.23-.64-.28a1.93,1.93,0,0,0-.08.48c0,.63.38.71.6,1a1.47,1.47,0,0,0-.44,2.33,1.81,1.81,0,0,0,1.16.63c-.08-.32-.52-.38-.52-1.28v-.08a1.35,1.35,0,0,1,.35-.9,1.46,1.46,0,0,1,1.86,0A1.88,1.88,0,0,1,94.39,69c0,2.51-5.08,2.67-5.08-1.24v0a3.69,3.69,0,0,1,1.23-2.89l0,0a5.06,5.06,0,0,1,2.73-.85,5,5,0,0,1,2.34.36,3,3,0,0,1,1.26,1.3,3.82,3.82,0,0,1,.38,1.3c.46,0,.51-2,.51-2.61.24.17.35.63.91.63h.22c.16,0,.65-.2.65-.3s-.36-.42-.59-.69h.68c.79.9,1.79,1.19,1.79,1.65,0,.14-.18.26-.25.37a.58.58,0,0,0,1.12-.22c0-.49-.41-.46-.68-.79s-.14-.61,0-.58a9.13,9.13,0,0,0,2.09.14h.37c.22,0,.69.41.85.55s.52.73.63.81c.12-.53.37-1.08,1-1.08h.16c.21,0,.56.25.56.44v.16a.46.46,0,0,1-.36.4h-.12c-.34,0-.43-.38-.65-.44l-.07.44a.79.79,0,0,0,.76.84H107c.4,0,.46-.42.72-.44l.06,0c-.08.26.24.58-.26.78.35.17,1-.3,1-.8v-.48c.37,0,1,.27,1-.48v-.12c0-.3-.15-.36-.2-.56l-.67-.62h43.17a2.28,2.28,0,0,1,1.93,1.87v.05c0,.22-.16.43.11.43h.7a1.3,1.3,0,0,0,1.07-1.23c0-1.45-1.53-1.87-3-1.87m-75.93.75H82.2a4.73,4.73,0,0,0,.86.83,21.17,21.17,0,0,0-3.53-.29,20.83,20.83,0,0,0-3.74.33,4.8,4.8,0,0,0,.91-.87m12.07,3.43a5.93,5.93,0,0,0-2.22-1.58c1.23-.2,2.06-.87,2.46-.6.12.08.12.31.17.44a4.4,4.4,0,0,0-.4,1.74M69.22,64.49a.66.66,0,0,0-.17.18,5.14,5.14,0,0,0-1-.73H75.9a4.41,4.41,0,0,1-.44.41c0,.09-.21.18-.28.23-1.45,1-3.3.69-4.84.09l-.2-.08c-.31-.13-.59-.31-.91-.09m.68.7c.41-.28,1.29.44,2.58.61a5.5,5.5,0,0,0-2.34,1.79,4.51,4.51,0,0,0-.41-2c0-.14,0-.36.16-.44m10,7.6c-.16,0-.28-.24-.37-.37-.08.14-.2.33-.36.37-5-.08-8.92-1.84-8.92-4,0-1.17,1.17-2.23,3-3a4.33,4.33,0,0,0,1.79-.55,19.5,19.5,0,0,1,4.47-.49,19.76,19.76,0,0,1,4.2.43,4.31,4.31,0,0,0,2.07.62c1.85.73,3,1.78,3,3,0,2.16-4,3.92-8.92,4m9.95-8.11a.63.63,0,0,0-.17-.18c-.31-.22-.6,0-.91.09l-.21.08c-1.54.6-3.39.9-4.84-.09-.07,0-.25-.14-.28-.23a4.14,4.14,0,0,1-.44-.41h7.83a5.14,5.14,0,0,0-1,.73"/><path class="cls-1" d="M84.94,35.29l3-2.48h-45a7.39,7.39,0,0,1,2.13,1h0a4.78,4.78,0,0,1,.67.59l.15.16a4.13,4.13,0,0,1,.5.7,12,12,0,0,1,.93,5.49v14.3L37.09,35.29l3-2.48H29l3,2.48V52.35a12,12,0,0,1-.93,5.48,5.68,5.68,0,0,1-3.47,2.48H38.14a5.6,5.6,0,0,1-3.46-2.45,12,12,0,0,1-.93-5.5v-15L45.59,60.31h3.47V40.77a12,12,0,0,1,.93-5.5,4.08,4.08,0,0,1,.33-.46,7.83,7.83,0,0,1,2.39-1.67,31.1,31.1,0,0,1,3,6.3,15.71,15.71,0,0,1,1.11-2.72,4.54,4.54,0,0,1,4.29-2.11c.46,0,1.24,0,2.34.14V57.83l-3,2.48H70.7l-3-2.48V34.75c1.1-.09,1.88-.14,2.34-.14a4.54,4.54,0,0,1,4.29,2.11,15.6,15.6,0,0,1,1.11,2.72,30,30,0,0,1,2.86-6.11l2.39,2V57.83l-3,2.48H88l-3-2.48Z"/><path class="cls-1" d="M113.08,46H98.87c-1,0-1.45-.16-1.45-.48a.31.31,0,0,1,.28-.32,2,2,0,0,0,1-.39,1,1,0,0,0,.25-.78,1.3,1.3,0,0,0-.43-1,1.45,1.45,0,0,0-1-.41A1.89,1.89,0,0,0,96,43.3a2.31,2.31,0,0,0-.59,1.6q0,2.9,4.43,2.9h6V58.37q-2.6.14-3.58.14Q92,58.51,92,46.1a21.86,21.86,0,0,1,.8-6.1,9,9,0,0,1,2.08-3.61,7.38,7.38,0,0,1,5.7-2.5,6.84,6.84,0,0,1,3.38.85,5.65,5.65,0,0,1,2.09,2A10,10,0,0,1,107.36,41l4-7.87a5.91,5.91,0,0,1-2.74.69,5.6,5.6,0,0,1-1.2-.11c-.34-.08-1.21-.32-2.61-.74a17.85,17.85,0,0,0-5-.85,12.15,12.15,0,0,0-5.68,1.45,11.6,11.6,0,0,0-5.31,5.6,16.74,16.74,0,0,0-1.51,7.16,16.08,16.08,0,0,0,1.65,7.33,11.94,11.94,0,0,0,6,5.72,10.49,10.49,0,0,0,2.92.76,46.43,46.43,0,0,0,5.12.19h10.13l-3-2.47V48.49Z"/><path class="cls-1" d="M133,54.72q.17-1.57.17-5V40.77a12,12,0,0,1,.93-5.5,5.6,5.6,0,0,1,3.46-2.45H127.05a5.6,5.6,0,0,1,3.46,2.45,12,12,0,0,1,.93,5.5v9q0,4.92-.87,6.81-1.21,2.66-5.4,2.66A6.42,6.42,0,0,1,121,58a3.9,3.9,0,0,1-1.2-2,14.12,14.12,0,0,1-.35-3.59V35.29l3-2.48H112.15l3,2.48V49.65q0,5.45,1.21,7.68,2,3.66,8.46,3.66a12.86,12.86,0,0,0,4.47-.74,5.09,5.09,0,0,0,3.06-2.83A9.69,9.69,0,0,0,133,54.72Z"/><path class="cls-1" d="M24.47,57.85l-4.88-14.5a4.23,4.23,0,0,1,1.94-.45l.93,0a9.41,9.41,0,0,1-.72-1.42,10.69,10.69,0,0,1-.54-1.6A9.66,9.66,0,0,1,19,41.74l-2.18-6.46,1.84-2.41H10.25l1.81,2.38L9.49,42.07c-.11-.11-.37-.34-.77-.69a6.2,6.2,0,0,1-1-1,6.83,6.83,0,0,1-.52,1.15,15.44,15.44,0,0,1-.8,1.36,6.34,6.34,0,0,1,1.31.27,4.63,4.63,0,0,1,1.1.61L7.4,47.9l-2,5.38a24.11,24.11,0,0,1-2.21,4.94A9.07,9.07,0,0,1,0,60.31H10.51a5.35,5.35,0,0,1-3.46-2.47c-.65-1.1.45-4.65.45-4.65l3-8.2a28.77,28.77,0,0,1,3.17,4.33,13.07,13.07,0,0,1,2-2.6l.63-.63,4,11.76-2.91,2.47h10ZM14.83,45.48,13.7,46.87c-.95-1.34-1.82-2.45-2.62-3.37l2.31-6.26,2.41,7.19A13.64,13.64,0,0,0,14.83,45.48Z"/><path class="cls-1" d="M158.89,60.31,156,57.85l-4.88-14.5A4.23,4.23,0,0,1,153,42.9l.93,0a9.41,9.41,0,0,1-.72-1.42,10.69,10.69,0,0,1-.54-1.6,9.66,9.66,0,0,1-2.14,1.84l-2.18-6.46,1.84-2.41h-8.45l1.81,2.38L141,42.07c-.11-.11-.37-.34-.77-.69a6.2,6.2,0,0,1-1-1,6.83,6.83,0,0,1-.52,1.15,15.44,15.44,0,0,1-.8,1.36,6.34,6.34,0,0,1,1.31.27,4.63,4.63,0,0,1,1.1.61l-1.42,4.18-2,5.38a24.11,24.11,0,0,1-2.21,4.94,9.07,9.07,0,0,1-3.21,2.09H142a5.35,5.35,0,0,1-3.46-2.47c-.65-1.1.45-4.65.45-4.65l3-8.2a28.77,28.77,0,0,1,3.17,4.33,13.07,13.07,0,0,1,2-2.6l.63-.63,4,11.76-2.91,2.47h10ZM146.35,45.48l-1.14,1.39c-.95-1.34-1.82-2.45-2.62-3.37l2.31-6.26,2.41,7.19A13.64,13.64,0,0,0,146.35,45.48Z"/><path class="cls-3" d="M152.7,30.73v-.26a2.89,2.89,0,0,1,0-.42,3.12,3.12,0,0,1,.32-.92,3,3,0,0,1,.87-1,3.12,3.12,0,0,1,.92-.47,3,3,0,0,1,.72-.14h.36a2.77,2.77,0,0,1,.4,0,3.12,3.12,0,0,1,.74.23,3,3,0,0,1,1.1.84,3.11,3.11,0,0,1,.56,1,3,3,0,0,1,.14.72v.35a2.89,2.89,0,0,1,0,.42,3.12,3.12,0,0,1-.32.92,3,3,0,0,1-.87,1,3.12,3.12,0,0,1-.92.47,3,3,0,0,1-.72.14h-.36a2.77,2.77,0,0,1-.4,0,3.12,3.12,0,0,1-.74-.23,3,3,0,0,1-1.1-.84,3.11,3.11,0,0,1-.56-1,3,3,0,0,1-.14-.72Zm3.1-2.58a2.46,2.46,0,1,0,2.46,2.43A2.46,2.46,0,0,0,155.8,28.15Z"/><path class="cls-3" d="M156.33,30.65a.76.76,0,0,1,.45.37,4.76,4.76,0,0,1,.25.48l.32.64v0h-.86a0,0,0,0,1,0,0l-.41-.82a.89.89,0,0,0-.18-.25.44.44,0,0,0-.28-.12h-.32v1.22h-.84V28.93h1.35a2,2,0,0,1,.59.08.86.86,0,0,1,.35.19.69.69,0,0,1,.2.38,1.12,1.12,0,0,1,0,.52.72.72,0,0,1-.33.43,1.07,1.07,0,0,1-.24.11Zm-1.06-1.12v.83h.4l.16,0a.31.31,0,0,0,.26-.26.67.67,0,0,0,0-.27.29.29,0,0,0-.21-.24l-.18,0Z"/><path class="cls-4" d="M76.11,12.49a2.06,2.06,0,0,0,.46,0,1.81,1.81,0,0,0,.3-.09l.13-.06a1.53,1.53,0,0,0,.23-.13,2.14,2.14,0,0,0,.31-.29l0,0h0v0c.13.15,0,.23.24.25l0-.46v-.21c0-.1-.13-.16-.13-.47l-.16.05a.32.32,0,0,1,0-.14c0-.14-.27-.32-.36-.38a1.49,1.49,0,0,0-.82-.23,1.78,1.78,0,0,0-.84.19.81.81,0,0,0-.23.52c0,.21,0,.42,0,.63,0,0,0,.12,0,.17s.09,0,.15,0a1.16,1.16,0,0,1-.05-.33c0-.07.07-.15.08-.22s0-.19.05-.26a2.11,2.11,0,0,1,.39-.14l.33-.14.12,0,.12,0a.23.23,0,0,1,.16,0s.06.06.11.08.1,0,.15,0,.06.1.11.14.07,0,.14,0,.09.07.15.14.22,0,.22.11,0,0,0,.13l-.12-.05-.11,0a.53.53,0,0,1-.12-.06.87.87,0,0,0-.26-.08,2.28,2.28,0,0,0-.63,0,.57.57,0,0,0-.29.09,2,2,0,0,0-.32.29.91.91,0,0,0-.1.23c-.08.2-.26.21-.45.25,0,0,0,.13,0,.14a.1.1,0,0,0,.11,0,1.91,1.91,0,0,0,.28-.12.45.45,0,0,1,.21,0,.71.71,0,0,1,.26.18s.11.11.15.11-.22,0-.3,0-.37.05-.44.16l0,0,.1,0s0-.05,0-.08.14,0,.19,0a1.38,1.38,0,0,0,.29,0A.61.61,0,0,1,76.11,12.49Zm1.43-1c0-.08,0-.07,0-.12s.08,0,.08.13v0c0,.11,0,.1-.12.13Zm-.34.06a.13.13,0,0,0,0-.07h.19s.06,0,0,0l-.08.09a.24.24,0,0,0-.06.05h0l-.18,0C77.14,11.64,77.2,11.58,77.2,11.51Zm-.15.1s0,.05,0,.06h0s0,0-.05,0S77,11.57,77.05,11.61Zm-1-.11h0s0,0,.08,0h0l.18,0c.08,0,.14,0,.15,0s-.16.08-.19.09h0a.29.29,0,0,0,.18.13h-.22C76,11.65,76,11.51,76,11.51Zm-.06.62.22,0L76.11,12A.35.35,0,0,0,76,12c-.07,0-.33.05-.26-.09a.41.41,0,0,1,.42-.21l.19,0c.06,0,.12,0,.19,0a.86.86,0,0,0,.19,0,1,1,0,0,1,.23,0c.07,0,.13,0,.19,0l.1,0,.22-.09s0,0,.05.05-.13.16-.13.16a1.34,1.34,0,0,1-.25.11l-.23.1a1.79,1.79,0,0,1-.32.1c-.11,0-.21,0-.32,0s-.11,0-.15,0S76,12.12,76,12.12Z"/><path class="cls-4" d="M79.49,2.83a9.64,9.64,0,0,0-6,2.12,12.9,12.9,0,0,0-4.76,10.27c0,6.8,4.75,12.31,10.62,12.31a9.32,9.32,0,0,0,4.26-1.05l.42-.23c.15-.09.31-.16.46-.26a12.67,12.67,0,0,0,5.64-10.86C90.15,8.34,85.37,2.83,79.49,2.83Zm-7,19.11c-.11.14-.54.59-.76.91-.16-.21-.31-.43-.45-.66l0-.06a5,5,0,0,1,.93-.94l.31-.22c.35-.22,1.24-.73,1.24-.75v.17a3.41,3.41,0,0,0-1,1.15Zm3.42,4.16s-.08-.14-.11-.2-.06-.1,0-.14h0s.07,0,.1,0,.17.15.14.27S76,26.13,75.91,26.1Zm.75-.47c-.06.05-.17,0-.21-.08s-.09-.15-.15-.22a1.22,1.22,0,0,1-.18-.19c0-.09.06-.23.11-.19l0,0a1.62,1.62,0,0,1,.09.16,1.7,1.7,0,0,0,.18.22,1.72,1.72,0,0,1,.15.17S76.69,25.6,76.66,25.63Zm.21.65c-.05,0-.17-.25-.17-.29a.1.1,0,0,1,.08-.08c.07,0,.15.26.17.33S77,26.28,76.87,26.28Zm.12.32a.27.27,0,0,1,.07-.2c0,.08.12.13.14.22l0,0Zm.32-.78c-.06-.14-.07-.36-.17-.47-.31-.34-.77-.71-.77-1.22.11,0,.18.09.23.19a2.94,2.94,0,0,0,.39.57c.14.18.41.61.41.61v0a1.14,1.14,0,0,1,.21.38C77.62,26.21,77.36,25.91,77.32,25.81Zm-.45-2v-.12l.08,0s.21.15.21.21S77.11,24,77,24,76.9,23.84,76.87,23.79Zm.81,2.48a.09.09,0,0,1-.09-.09v0l0,0,.08,0h0a.09.09,0,0,1,.09.09A.09.09,0,0,1,77.68,26.26Zm-.12-1.32c-.11,0-.15-.31,0-.35h0c.09,0,.17.18.28.15C77.72,24.77,77.74,25,77.57,24.94Zm.26.26c0-.06.06-.08.13-.08a.1.1,0,0,1,.09.08c0,.06-.06.08-.13.08A.1.1,0,0,1,77.83,25.2ZM78,22.87a.1.1,0,0,1,.08-.08.21.21,0,0,1,.13.12c0,.06-.06.08-.12.08S78,22.94,78,22.87Zm0,2.62v-.12c.16,0,.13,0,.17.12Zm.17-2.2c0-.08,0-.16.08-.16a.1.1,0,0,1,.08.08C78.29,23.29,78.2,23.28,78.12,23.29Zm.46,3.62h0a.1.1,0,0,1,.08-.08c.08,0,.11,0,.12.1ZM78.87,22h-.21v-.13c0-.1,0-.12.12-.12s.08.06.08.13Zm3.37,4.47-.24.07.08-.18.42-.23ZM82,25.76c-.15.31-.28.63-.41,1a9,9,0,0,1-2.09.25l-.39,0c0-.08,0-.16,0-.24a2.12,2.12,0,0,0,0-.29c0-.49,0-1,0-1.46a2.12,2.12,0,0,0,0-.27c0-.07-.05-.14-.06-.21a1.64,1.64,0,0,1,0-.48,2,2,0,0,1,.2-.49,3.34,3.34,0,0,0,.18-.36c0-.07,0-.07.09-.07s.29.06.41,0,.1-.08.17-.09a.31.31,0,0,1,.21.08,1.66,1.66,0,0,1,.47.69,3.35,3.35,0,0,0,.5.82c.14.15.45.57.64.29.09-.12.85-1.63,1.19-2.28,0-.09.08-.3.2-.29a8.58,8.58,0,0,1-.38,1.2c-.14.4-.31.78-.48,1.16S82.17,25.39,82,25.76Zm.94.5a6.34,6.34,0,0,0,1-.74,6.35,6.35,0,0,1,1.72-.92A9.86,9.86,0,0,1,82.93,26.26Zm1.42-5.85.21-2.16a1.08,1.08,0,0,1,0-.12.92.92,0,0,1,.26,0,3.3,3.3,0,0,1-.06,1.42l-.21,1-.18.17,0,0v-.37h0S84.35,20.4,84.35,20.42Zm.09,1.25h0c-.06,0-.1,0-.11,0Zm1.5.77a.74.74,0,0,0-.25,0,1.48,1.48,0,0,1-.95-.5l-.06-.06-.15-.16c.4.12.93.16,1.07.22l.45.21h0a2.45,2.45,0,0,0,.12.32Zm2.58-2.23h0Zm.16-.15c-.19-.06-.38-.08-.57-.14l-.15,0-.36-.1a1,1,0,0,1-.42-.27,2.21,2.21,0,0,0-.22-.14c-.08,0-.14-.12-.22-.16s-.29-.11-.43-.19-.24-.28-.4-.38a.71.71,0,0,0-.43-.17c0,.11,0,.17.08.23a3,3,0,0,1,.26.16c.18.14.27.35.45.49l.19.1a7.56,7.56,0,0,1,1.18,1.19v0l.08.12h0l.06.08v0l.33.45,0,0v0l-.16.31a12.38,12.38,0,0,0-1.28-1.38c-.41-.62-.77-1.12-.81-1a.37.37,0,0,0-.13-.16s0,.13-.06.15l-.09-.06a3.93,3.93,0,0,0-.38-.83,3.15,3.15,0,0,0-.34-.36,3,3,0,0,1-.38-.48l-.17-.26s-.08-.14-.14-.16-.07.17-.06.24c0,.22.07.44.07.67a3.69,3.69,0,0,1-.06.61c-.08.49-.07,1-.16,1.47h0a1.59,1.59,0,0,1-.1.54,1.89,1.89,0,0,0-.2.46,2.53,2.53,0,0,1-.4.93c-.1.15-.22.29-.32.45s-.18.32-.27.48c-.18.32-.32.66-.48,1s-.2.35-.3.54-.08.24-.17.26-.18-.15-.23-.21a2.35,2.35,0,0,1-.34-.51c-.07-.17-.13-.33-.21-.49s-.19-.31-.27-.47a6.11,6.11,0,0,0-1-1.65c-.12-.12-.24-.26-.37-.37a.35.35,0,0,0-.4,0,2.1,2.1,0,0,1-1.26.07.93.93,0,0,0-.51.07c-.17.06-.35.09-.52.16a1.61,1.61,0,0,0-.68.66,12.71,12.71,0,0,1-1.24,1.76c-.14.16-.28.32-.41.48s-.18.15-.24.25a.66.66,0,0,0-.06.43.36.36,0,0,0,.12,0,1.88,1.88,0,0,0,.2-.12,7.39,7.39,0,0,0,2.08-1.38c.21-.21.34-.46.53-.69l0,0c0-.06,0-.15.11-.14a.27.27,0,0,1,.13,0s0,.06,0,.11-.08.14-.08.25.12.12.16.16a.51.51,0,0,1,.16.21s0,0,.06.08.09.1.07.16a.09.09,0,0,1-.16,0,2.1,2.1,0,0,1-.2-.3s0-.08,0-.13L77.23,23c-.15,0-.36.38-.44.53a.73.73,0,0,1-.16,0l-.15.06a.78.78,0,0,0-.22.22,1.81,1.81,0,0,0-.24.51,3.58,3.58,0,0,1-.19.53,2.41,2.41,0,0,0-.16.28c0,.14-.06.29-.1.43s-.11.26-.15.39a10,10,0,0,1-2.11-1.43l0,0a3.15,3.15,0,0,1,.33-.54,10.44,10.44,0,0,0,.61-1.14c.2-.39.46-.72.66-1.08.1-.19.24-.35.35-.52s.2-.43.42-.45c0,0-.06.18-.07.21a2.66,2.66,0,0,1-.37.63,6.59,6.59,0,0,0-.51.91l-.29.6-.15.33-.12.27a1.27,1.27,0,0,1-.19.33s-.08.07-.08.12a.33.33,0,0,0,0,.12s.16-.14.16-.15l.18-.25c.11-.18.21-.36.31-.55a9.91,9.91,0,0,1,.53-1.18.34.34,0,0,1,.18-.15s0-.08,0-.09a.63.63,0,0,1,.06-.14,2.75,2.75,0,0,1,.18-.28,2.62,2.62,0,0,0,.39-1c.05-.29,0-.59,0-.89a1.23,1.23,0,0,1,.06-.17c0-.13.16-.2.21-.32a.37.37,0,0,0,0-.16.78.78,0,0,0,0-.24s-.05-.14,0-.15l.06-.06,0-.17L76,18a5.92,5.92,0,0,1-.66-1A4,4,0,0,1,75,16a10,10,0,0,1-.09-1.45c0-.38,0-.76,0-1.13a4.67,4.67,0,0,1,.06-.47,1.48,1.48,0,0,0,.06-.43.16.16,0,0,0-.05-.12l-.1,0c0-.05,0-.11,0-.17v-.42c0-.52,0-1,.11-1.55a5,5,0,0,1,.27-1.39A5.38,5.38,0,0,1,76,7.59h0l.08-.08c.25-.21.82.1,1,.12v0l.13,0,.66.14.54,0v0h.1s0,0,.07,0h0l1.11-.18a3,3,0,0,1,.66-.21,1.84,1.84,0,0,1,.83.17A.79.79,0,0,0,82,7.52a6.62,6.62,0,0,0,.79.6l0,.25c-.12.08-.09.11-.13.24s-.06.09-.05.15.08.08.12.14a.37.37,0,0,1,.06.21,2.29,2.29,0,0,1,0,.55,1.4,1.4,0,0,1,0,.26s-.07.13-.07.17a.22.22,0,0,0,0,.14v0l0,.06h0v.15s0,.24.37.54v0h0l.17.14,0,.12,0,.12v.16a.23.23,0,0,0-.17.21c0,.16,0,.59.21.74l.12,0,0,0,.19,0,.15,0L84,12.2c.09,0,.1-.11.15-.16l.17-.21a3,3,0,0,1-.16.55,1.17,1.17,0,0,1-.15.24.34.34,0,0,0,0,.21c-.09,0,0,.17.05.2a2.39,2.39,0,0,1,.14.28c0,.11.16.39,0,.43,0,0-.07-.35-.08-.36s-.09,0-.14,0a3.6,3.6,0,0,1,.13.7,3.75,3.75,0,0,1,0,.41,1,1,0,0,0,0,.32,5.59,5.59,0,0,1-.25,2.15h0v0a2,2,0,0,1-.13.29v0h0a2,2,0,0,0,.22-.55,7.57,7.57,0,0,0,.1-1.42c0-.09,0-.11-.05.07a5.76,5.76,0,0,1-.48,2.08,2.4,2.4,0,0,0-.13.26c-.08.07-.14.17-.22.24-.32.29-.7.52-1,.78,0,.05-.06.07-.11.1h0l0,0-.92.68-1,.7a7.33,7.33,0,0,1-1.35.53,1.06,1.06,0,0,1-.35,0c-.13,0-.2-.14-.29-.22a6.06,6.06,0,0,1-1-1.06,4.49,4.49,0,0,1-.45-.78.74.74,0,0,0,.11.68,6.55,6.55,0,0,0,.83,1,1.24,1.24,0,0,0,.82.53h.06a2.81,2.81,0,0,0,1.05-.27,5.83,5.83,0,0,0,1-.65c.43-.3.86-.58,1.3-.86a12,12,0,0,0,1.32-1,2.53,2.53,0,0,0,.75-.83l0-.07a3.14,3.14,0,0,0,.41-2,.88.88,0,0,0,.18-.05.22.22,0,0,0,.12-.1l0-.09a1.08,1.08,0,0,0,.06-.14l.07-.19c0-.09.05-.18.07-.27h0c0-.13,0-.29.08-.42a4.92,4.92,0,0,0,.24-1.4c0-.23,0-.82,0-.82s-.17-.32-.32-.1a2.51,2.51,0,0,1,0,.48,6,6,0,0,1,0,1.42.91.91,0,0,1-.23.45.42.42,0,0,0-.12.22c0,.09,0,.16-.12.18a1.27,1.27,0,0,1-.08-.4c0-.12.21-.16.29-.25a.65.65,0,0,0,.14-.36,2.38,2.38,0,0,0,0-.62c0-.16,0-.33-.05-.48l-.11.07a.48.48,0,0,0-.09.12.31.31,0,0,0,0,.28c0,.09.2.29,0,.27l-.09-.15-.15,0c0-.1.07-.19.1-.29s0-.24.17-.35l.14-.17c.07-.08-.06-.17-.06-.17a1.3,1.3,0,0,1,.06-.21,1,1,0,0,1,.11-.17.4.4,0,0,1,.16-.09h.09s0,0,0,0,.11.13.13.19a.27.27,0,0,0,0-.23s-.1-.11-.1-.14l-.08-.73v-.1a6.23,6.23,0,0,1-.36-.93,4.23,4.23,0,0,0-.77-1.8l-.54-.57S83.14,7,83.11,7a.19.19,0,0,0-.21,0s0,0,0,.07h0s-.08-.22-.19-.1c-.08-.07-.11,0-.21-.2A2.32,2.32,0,0,0,82,6.26a5.47,5.47,0,0,0-.85-.56,1.86,1.86,0,0,0-.57-.23h-.14l-.07,0c-.09,0-.15-.15-.24-.19s-.36,0-.53.1a.56.56,0,0,1-.27.1c-.12,0-.1-.13-.16-.22s-.18-.08-.28,0,0,.09,0,.11-.07.06-.1.07a.87.87,0,0,1-.25.07c-.16,0-.35,0-.46.14s-.07.12-.14.14-.13,0-.19,0-.1.13-.11.22-.07.28-.11.23-.22-.2-.38-.09a1.13,1.13,0,0,0-.15.16c-.09.09-.21.12-.28.21s-.09.21-.18.29-.23.11-.32.2-.11.28-.23.38-.21,0-.3.08,0,.19-.09.29-.07,0-.12,0-.07.23-.08.36-.22,0-.23.13a1,1,0,0,1,0,.18s0,.09,0,.14L75,8.66a.36.36,0,0,0-.09.13c0,.11,0,.25-.12.34s-.14.06-.17.16,0,.17,0,.26a.81.81,0,0,0-.12.24,2,2,0,0,0,0,.36,2.81,2.81,0,0,0,0,.28c0,.08,0,.17,0,.25s.05.1.08.16a.75.75,0,0,1,0,.31c0,.21.12.38.12.59v.12l.11.42h0v.12a3.49,3.49,0,0,0,0,.71c0,.31,0,.62,0,.94a12.7,12.7,0,0,0,0,1.85,4.16,4.16,0,0,0,.71,1.76l.34.45c0,.06.2.21.2.29s-.9.61-1,.66a8,8,0,0,0-.92.74,4.88,4.88,0,0,1-1.06.61c-.35.22-.68.36-1,.59a7.45,7.45,0,0,0-1,.69l-.11.09a13.08,13.08,0,0,1-1.76-6.63C69.24,8.6,73.83,3.3,79.49,3.3S89.74,8.6,89.74,15.13a13.3,13.3,0,0,1-1,5Zm-.55,0v0h0Zm-1.38-.64h0Zm-11.24,4h0Zm8.85-8.66a.11.11,0,0,0,.2,0s0,.17-.07.22-.16,0-.2-.1a.3.3,0,0,0-.12-.09c0-.12,0-.18,0-.18h0s.09,0,.09,0,0-.17.11-.24C84.44,14.53,84.3,14.63,84.35,14.75Zm0-1.52v-.12h.08Z"/><path class="cls-4" d="M77.55,12.37s0,0,0,.07-.05.1-.07.14a.31.31,0,0,0,0,.13.1.1,0,0,0,.12,0h0c.05-.06,0-.19,0-.26a1,1,0,0,1,.07-.25C77.67,12.25,77.54,12.27,77.55,12.37Z"/><path class="cls-4" d="M76.68,15.46a.71.71,0,0,1,.32-.08c.09,0,.11-.06.19-.11a2.33,2.33,0,0,1,1.06-.12.72.72,0,0,1,.26.06,2.28,2.28,0,0,0,.38,0,3.61,3.61,0,0,1,.47.08.2.2,0,0,0,.11,0,.72.72,0,0,1,.33.06,1,1,0,0,0,.26.1c.05,0,.14,0,.19,0s0,.15.06.16a.74.74,0,0,1,.33.12c.19.12-.09-.34-.09-.34l0,0,0-.09a1.41,1.41,0,0,0-.39-.31l0,0a2.59,2.59,0,0,0-.56-.3l-.33-.06L79,14.57a.73.73,0,0,0-.24,0c.63-.3.78-.29.86-.27a.24.24,0,0,0,.09,0,.76.76,0,0,1,.45.42s.07.21.13.17,0-.17-.08-.22a1.05,1.05,0,0,1-.14-.32s0-.23,0-.24h0l0,0a2,2,0,0,0-.09-.21,1,1,0,0,0-.16-.18l-.21-.2,0-.28,0,.21-.1-.11c.14.2.38.58.2.81s-.25.06-.36,0-.54.21-.74.31a1,1,0,0,1-.6.11c-.24,0-.36-.23-.55-.36S77,14.12,77,14A.47.47,0,0,1,77,13.5c.07-.07.15-.11.22-.18s.11-.22.14-.24l-.08,0-.1.07-.07.08-.12.07-.12.09-.07.11,0,.11v.16c0,.11,0,.22,0,.29a2.37,2.37,0,0,1-.27.52s-.15.16-.08.2.13-.13.15-.17a1,1,0,0,1,.21-.28l.16-.13.06,0,.18.08a.52.52,0,0,1,.14.08l.18.11-.09,0-.13.09-.33.08a2.71,2.71,0,0,0-.55.33l-.19.23-.13.09-.15.19s-.25.48-.07.35a.67.67,0,0,1,.33-.14s0-.13,0-.16.14,0,.19,0A1,1,0,0,0,76.68,15.46Z"/><path class="cls-4" d="M75.94,16.48a.06.06,0,0,0,.07.08s0,0,0-.06l.14-.27c0,.07-.12.1-.18.16S75.94,16.45,75.94,16.48Z"/><path class="cls-4" d="M78.17,15.65a3.93,3.93,0,0,1,1.57.2c.06,0,.14,0,.13.13A.56.56,0,0,1,80,16a1.25,1.25,0,0,0,.24-.05.63.63,0,0,1-.36-.19.35.35,0,0,0-.21-.11.91.91,0,0,1-.29-.08,1.65,1.65,0,0,0-.23-.05l-.54-.09a2.44,2.44,0,0,0-.46,0c-.15,0-.28-.05-.42-.05s-.16,0-.25,0l-.08,0a1,1,0,0,0-.46.11c-.1,0-.24,0-.32.08s0,.08-.08.12-.13,0-.15.07l0-.06c-.08.06-.24.19-.09.21s.27-.08.37-.13A3,3,0,0,1,78.17,15.65Z"/><path class="cls-4" d="M80.59,16.63s0-.09-.07-.11a.06.06,0,0,0-.09,0s0,0,0,.06c.09.29.18.08.52.29A1.09,1.09,0,0,0,80.59,16.63Z"/><path class="cls-4" d="M82.52,12.07h.12c.12,0,.11,0,.12-.17h-.21c-.1,0-.13.06-.17.13S82.44,12.07,82.52,12.07Z"/><path class="cls-4" d="M82.65,12.78c-.07-.09-.34-.44-.48-.36l0,0s.06.1.09.13S82.54,12.91,82.65,12.78Z"/><path class="cls-4" d="M82.42,13.7s0-.14-.07-.18a.1.1,0,0,0-.16,0s0,.06,0,.11c0,.44.26.18.73.6A1.78,1.78,0,0,0,82.42,13.7Z"/><path class="cls-4" d="M81.61,12.41l.08,0s.14,0,.16,0S81.61,12.2,81.61,12.41Z"/><path class="cls-4" d="M78.2,11c.16,0,.33,0,.47.08-.23-.06-.23-.47-.26-.66,0,0,0-.21,0-.21s0,.17,0,.22a1.11,1.11,0,0,1,0,.35S78.21,11,78.2,11Z"/><path class="cls-4" d="M80.78,12a.2.2,0,0,0,.11.1l.13,0C81,12,80.87,11.87,80.78,12Z"/><polygon class="cls-4" points="78.88 11.32 78.4 11.25 78.84 11.42 78.88 11.32"/><path class="cls-4" d="M82.61,15.62a4.28,4.28,0,0,1-.07.77c-.1.36-.34.3-.37.59a.43.43,0,0,0,.27-.18,3,3,0,0,1-.95,1.56c-.78.65-.09.32.51-.15h.09s0-.05,0-.07h0a.23.23,0,0,0,.21-.19,1.09,1.09,0,0,0,.31-.44c0-.15.07-.31.1-.48h0A2.05,2.05,0,0,0,82.61,15.62Z"/><path class="cls-4" d="M76.18,8.74c.34-.09.68-.16,1-.27l.28-.09h-.15l.12,0c-.22.06-.44.07-.66.13s-.4.15-.6.21l.31-.07Z"/><path class="cls-4" d="M79.45,12.77s.08,0,.1-.07,0,0,0-.07,0,0-.05,0a.19.19,0,0,0-.11,0c0-.09,0-.24-.08-.31l-.06,0-.07-.15S79.06,12,79,12s0,.23,0,.28l0,.07h0l0,0,0,0c.08.11.11.3.21.39S79.42,12.79,79.45,12.77Z"/><path class="cls-4" d="M79.64,10.79h0l-.14.13c-.1.08-.26.12-.33.24a2,2,0,0,0-.26.44c0,.16,0,.35.19.35s.11-.13.13-.19l.12,0,0,0c.17.09-.07.13-.08.19a1.6,1.6,0,0,1,.28.17,2.42,2.42,0,0,0,.36.14,2.11,2.11,0,0,0,.74.11,6.74,6.74,0,0,1,.78-.07c-.2-.28-.81,0-1.1-.11a.42.42,0,0,0-.24,0c-.11,0-.61-.15-.61-.28s.06-.08.13-.08h.16c0-.06.12,0,.19,0s.07,0,.1,0,.05,0,.08,0,.28,0,.41,0a.85.85,0,0,0,.28,0,.51.51,0,0,1,.34,0c.18.07.17.15.17.32.13-.06.19,0,.31,0a1.74,1.74,0,0,0,.28,0c.1,0,.19.09.29.13a1.6,1.6,0,0,0,.45.08s0-.11,0-.12-.07,0-.11-.06-.18,0-.25-.12,0-.07,0-.09S82,12,82,11.9s.44,0,.39-.28a.76.76,0,0,0-.3,0l-.24.13a.27.27,0,0,1,0,.18s-.09.14-.09.15-.16-.14-.11-.3a4.43,4.43,0,0,0-.69-.4,3.37,3.37,0,0,0-.82-.24c-.21,0-.58.12-.65.34l-.13,0a.58.58,0,0,1,.09-.32c.06-.06.15-.06.2-.13a.34.34,0,0,0,0-.22.62.62,0,0,1,.3,0,7.2,7.2,0,0,0,.9,0c.05,0,.09,0,.14,0s.13,0,.2,0,0,.06.07.08a2.39,2.39,0,0,1,.3.14c.08.06.1.21.19.25s.08,0,.11,0,0,.05,0,.07.23.07.28,0a.13.13,0,0,0,0,0c0-.07-.1-.06-.16-.12A.74.74,0,0,1,82,11V10.9c0-.13-.41-.35-.49-.39a2.13,2.13,0,0,0-.79-.17h0a.77.77,0,0,0-.7,0C79.88,10.46,79.81,10.67,79.64,10.79Zm1.33.78.23,0s0,.14-.17.11S80.75,11.53,81,11.57Zm-.19.09s0,.05,0,.05h0s0,0-.06,0S80.76,11.61,80.78,11.66Zm-.71-.2.11,0h0a.43.43,0,0,1,0,.06.2.2,0,0,1-.1,0l0,.06-.1,0-.08,0C80,11.49,80,11.52,80.07,11.45Z"/><path class="cls-4" d="M77.52,9.61c.51,0,1,0,1.52,0l1.18,0c-.22,0-.45,0-.66,0s-.66,0-1,0l-1.37.08Z"/><path class="cls-4" d="M75.46,13.15l-.09.26a.4.4,0,0,1,.07-.09,1.11,1.11,0,0,0,.13-.18l.1-.19-.13.07Z"/><path class="cls-4" d="M78.67,13.21h.07l.59,0c0-.06-.3-.12-.85,0h0l-.59.07Z"/><polygon class="cls-4" points="77.95 12.49 78.34 12.4 77.95 12.36 77.95 12.49"/><path class="cls-4" d="M78.62,18.89a2.69,2.69,0,0,1-.64,0c-.3,0-.65-.14-.75,0,0,0,.25,0,.27.09a2.19,2.19,0,0,1,.72,0c.1,0,.13.08.25.1h.19l.26,0s.51-.13.47,0c.26,0,.18-.11.18-.19.65.23,1.23,0,1.14-.17S80.11,18.59,78.62,18.89Z"/><path class="cls-4" d="M78.83,16.88c.12,0,.64.07.64,0s-.51-.06-.67-.07a9.36,9.36,0,0,1-1-.07l-.46-.08c-.11,0-.23.13-.25.22s-.06.14,0,.12A6,6,0,0,1,78.83,16.88Z"/><path class="cls-4" d="M136,27.26h-.66c-.24,0-.09.24-.09.47v.1c0,.63-1.12,1.5-1.7,1.5h-6a1.16,1.16,0,0,0,.27-.82.7.7,0,0,0-.18-.54.64.64,0,0,0-.41-.12,3.92,3.92,0,0,0-.64.06v-.17a1.83,1.83,0,0,0-.07-.7,1.08,1.08,0,0,0-.3-.4,1.24,1.24,0,0,0-.32-.21.8.8,0,0,0-.27-.07h-.21l-.06,0c.59.24.21.62.31.93h0c-.17,0-.27-.2-.38-.32a.6.6,0,0,0-.24-.16,1,1,0,0,0-.35,0,.94.94,0,0,0-.89,1l.08.52c.23,0,.37-.31.53-.42a.51.51,0,0,1,.62,0,.57.57,0,0,1,.17.24.56.56,0,0,1,0,.45.73.73,0,0,1-.26.25.83.83,0,0,1-.26.11,1.27,1.27,0,0,1-.53,0,1,1,0,0,1-.59-.42,4.46,4.46,0,0,1-.27-.71.93.93,0,0,1,0-.15l-.05,0-.07.09-.18.24a5.4,5.4,0,0,1-.41.54,3.61,3.61,0,0,1-.55.46,1.06,1.06,0,0,1-.53.26h-1.13c-.13,0-.11,0-.14-.14.8,0,2.38-1.59,2.8-2.15a7,7,0,0,0,.75-1.26,6.24,6.24,0,0,0,.33-4.33,2.58,2.58,0,0,0-.2-.52,3.23,3.23,0,0,0-.47-.62,2.2,2.2,0,0,1,.05.35,4,4,0,0,1,.05.57,2.14,2.14,0,0,1-.28,1.23,4.16,4.16,0,0,1-1.63,1.17,4.22,4.22,0,0,0-.83.54,1.72,1.72,0,0,0-.3.35,4.12,4.12,0,0,0-.18.42h0a.71.71,0,0,0-.81-.57c-.92,0-1.2.88-1.42,1-.2-.44,0-.51-.43-1a1.69,1.69,0,0,0-.94-.43h0c-.1,0-.14.21-.16.27-.07.26-.09.52-.15.78a6.87,6.87,0,0,1-.25.79,4.5,4.5,0,0,1-.83,1.4,3.53,3.53,0,0,1-1.81,1.08,6.59,6.59,0,0,1-1.93.12,7.15,7.15,0,0,1-2.95-.73h0c-.21.78-1.77,1.6-2.83,1.6h-2.79a6.61,6.61,0,0,1-3.6-1.26,2.63,2.63,0,0,1-.4-.36,4.74,4.74,0,0,1-.79-4.63,3.3,3.3,0,0,1,3-2.06c1.38,0,2.68.75,2.68,2.13a2.22,2.22,0,0,1-.79,1.62,1.81,1.81,0,0,1-1.1.38,1.46,1.46,0,0,1-1.06-.41,1.61,1.61,0,0,1-.41-1.07v-.09c0-1.06.51-1.13.62-1.51h0a2.08,2.08,0,0,0-1.37.73,1.74,1.74,0,0,0,.52,2.75c-.25.35-.71.43-.71,1.18a2.3,2.3,0,0,0,.1.57h0c.24,0,.41-.32.76-.32h.15c.29,0,.75.41,1.41.37h0c.81-.05.86-.32,1.24-.44a4.3,4.3,0,0,0-.09.6,1.42,1.42,0,0,0,.74,1.21c.1.06.15.07.17.06s0-.13,0-.28v-.1c0-1.75,2.27-1.16,2.27-3.92,0-1.38-1-1.87-1.09-2.31A11.09,11.09,0,0,1,108,23.69a3.35,3.35,0,0,1,1.58,2.67s0,.09,0,.14h0c1.14,0,1.16-.82,1.32-1.57.5.35.55.78,1.56.77.82,0,1.13.44,1.13,1.27l0,0a1.41,1.41,0,0,0,.72-1v-.14c0-.83-.43-.89-.53-1.23a3.94,3.94,0,0,0,2.26-.68,2.61,2.61,0,0,0,.85-1,2.05,2.05,0,0,0,.12-.29s.05-.12,0-.15-.17,0-.21,0c-.3.06-.6.16-.9.23a8.2,8.2,0,0,1-1.27.2,10.06,10.06,0,0,1-1.87,0c-.31,0-.62-.07-.93-.13a6.79,6.79,0,0,1-.81-.25c-1.05-.36-2-.88-3.08-1.27a17.16,17.16,0,0,0-5.52-1.41,6.42,6.42,0,0,0-1.3.11c-.11,0-.26.07-.36.09s-.09-.06.06-.24c.35-.43.88-.39.88-1a.77.77,0,0,0-.81-.75.8.8,0,0,0-.7.47c.1.14.33.29.33.47,0,1-3.59,1.33-3.59,5.71,0,3.64,2.65,4.23,2.74,4.58l-.61,0a1.16,1.16,0,0,1-.76-.21,5.55,5.55,0,0,1-.84-.71,4.16,4.16,0,0,1-1-2.21h0c-.69.14-.68.93-.87,1.13l-.06-.08a.42.42,0,0,1,0-.12v-.9a8.77,8.77,0,0,1,.7-3.36,6.49,6.49,0,0,1,.89-1.53c.18-.22.38-.43.56-.64l.29-.33s.11-.1.11-.13-.64-.37-.85-.37h-.29c-.72,0-.86.59-1.18.8a13.76,13.76,0,0,0-.21-2.54,4.36,4.36,0,0,1,.55,0c0-.29-.41-.59-.65-.7a1.31,1.31,0,0,0-1,0,1.92,1.92,0,0,0-.39.2c-.09.05-.18.15-.29.14a3.46,3.46,0,0,0-1.43-3.28c-.29-7.24-5-13.14-11-14.24h0L81.09.14,80.58.07A10.2,10.2,0,0,0,79.48,0h-.06a10.2,10.2,0,0,0-1.11.07L77.8.14l-.38.05h0c-6.07,1.11-10.75,7-11,14.24a3.46,3.46,0,0,0-1.43,3.28c-.11,0-.2-.09-.29-.14a1.92,1.92,0,0,0-.39-.2,1.31,1.31,0,0,0-1,0c-.23.11-.64.41-.65.7a4.36,4.36,0,0,1,.55,0A13.76,13.76,0,0,0,63,20.69c-.31-.21-.46-.8-1.18-.8h-.29c-.21,0-.85.25-.85.37s.09.11.11.13l.29.33c.19.21.39.42.56.64a6.49,6.49,0,0,1,.89,1.53,8.77,8.77,0,0,1,.7,3.36v.9a.42.42,0,0,1,0,.12l-.06.08c-.19-.21-.18-1-.87-1.13h0a4.16,4.16,0,0,1-1,2.21,5.55,5.55,0,0,1-.84.71,1.16,1.16,0,0,1-.76.21l-.61,0c.09-.35,2.74-.94,2.74-4.58,0-4.38-3.59-4.73-3.59-5.71,0-.18.23-.33.33-.47a.8.8,0,0,0-.7-.47.77.77,0,0,0-.81.75c0,.62.53.58.88,1,.16.18.14.23.06.24s-.25-.06-.36-.09a6.42,6.42,0,0,0-1.3-.11,17.16,17.16,0,0,0-5.52,1.41c-1,.39-2,.91-3.08,1.27a6.79,6.79,0,0,1-.81.25c-.31.06-.62.1-.93.13a10.06,10.06,0,0,1-1.87,0,8.2,8.2,0,0,1-1.27-.2c-.3-.07-.6-.16-.9-.23,0,0-.18-.06-.21,0s0,.12,0,.15a2.05,2.05,0,0,0,.12.29,2.61,2.61,0,0,0,.85,1,3.94,3.94,0,0,0,2.26.68c-.09.34-.53.4-.53,1.23V26a1.41,1.41,0,0,0,.72,1l0,0c0-.83.31-1.28,1.13-1.27,1,0,1.06-.42,1.56-.77.16.76.18,1.55,1.32,1.57h0c0-.06,0-.13,0-.14a3.35,3.35,0,0,1,1.58-2.67,11.09,11.09,0,0,1,2.82-1.52c-.12.44-1.09.93-1.09,2.31,0,2.76,2.27,2.17,2.27,3.92v.1c0,.14-.08.3,0,.28s.07,0,.17-.06a1.42,1.42,0,0,0,.74-1.21,4.3,4.3,0,0,0-.09-.6c.39.12.43.39,1.24.44h0c.66,0,1.12-.37,1.41-.37h.15c.35,0,.52.28.76.32h0a2.3,2.3,0,0,0,.1-.57c0-.75-.46-.83-.71-1.18a1.74,1.74,0,0,0,.52-2.75,2.08,2.08,0,0,0-1.37-.73h0c.1.38.62.45.62,1.51v.09a1.61,1.61,0,0,1-.41,1.07,1.46,1.46,0,0,1-1.06.41,1.81,1.81,0,0,1-1.1-.38,2.22,2.22,0,0,1-.79-1.62c0-1.38,1.29-2.16,2.68-2.13a3.3,3.3,0,0,1,3,2.06,4.74,4.74,0,0,1-.79,4.63,2.63,2.63,0,0,1-.4.36,6.61,6.61,0,0,1-3.6,1.26H53.26c-1.07,0-2.63-.83-2.83-1.6h0a7.15,7.15,0,0,1-2.95.73,6.59,6.59,0,0,1-1.93-.12,3.53,3.53,0,0,1-1.81-1.08,4.5,4.5,0,0,1-.83-1.4,6.87,6.87,0,0,1-.25-.79c-.07-.26-.08-.53-.15-.78,0-.07-.06-.27-.16-.27h0a1.69,1.69,0,0,0-.94.43c-.46.46-.23.52-.43,1-.23-.14-.5-1-1.42-1a.71.71,0,0,0-.81.57h0a4.12,4.12,0,0,0-.18-.42,1.72,1.72,0,0,0-.3-.35,4.22,4.22,0,0,0-.83-.54,4.16,4.16,0,0,1-1.63-1.17,2.14,2.14,0,0,1-.28-1.23,4,4,0,0,1,.05-.57,2.2,2.2,0,0,1,.05-.35,3.23,3.23,0,0,0-.47.62,2.58,2.58,0,0,0-.2.52,6.24,6.24,0,0,0,.33,4.33A7,7,0,0,0,35.9,27c.42.56,2,2.13,2.8,2.15,0,.11,0,.14-.14.14H37.43a1.06,1.06,0,0,1-.53-.26,3.61,3.61,0,0,1-.55-.46,5.4,5.4,0,0,1-.41-.54l-.18-.24-.07-.09-.05,0a.93.93,0,0,1,0,.15,4.46,4.46,0,0,1-.27.71,1,1,0,0,1-.59.42,1.27,1.27,0,0,1-.53,0,.83.83,0,0,1-.26-.11.73.73,0,0,1-.26-.25.56.56,0,0,1,0-.45.57.57,0,0,1,.17-.24.51.51,0,0,1,.62,0c.17.12.3.42.53.42l.08-.52a.94.94,0,0,0-.89-1,1,1,0,0,0-.35,0,.6.6,0,0,0-.24.16c-.11.11-.22.29-.38.32h0c.1-.31-.29-.69.31-.93l-.06,0h-.21a.8.8,0,0,0-.27.07,1.24,1.24,0,0,0-.32.21,1.08,1.08,0,0,0-.3.4,1.83,1.83,0,0,0-.07.7v.17a3.92,3.92,0,0,0-.64-.06.64.64,0,0,0-.41.12.7.7,0,0,0-.18.54,1.16,1.16,0,0,0,.27.82h-6c-.58,0-1.7-.88-1.7-1.5v-.1c0-.23.15-.47-.09-.47h-.66a1.2,1.2,0,0,0-.95,1c0,1.32,1.31,1.7,2.65,1.7.17.26.18.47.66.47H133.68c.48,0,.49-.21.66-.47,1.34,0,2.65-.38,2.65-1.7A1.2,1.2,0,0,0,136,27.26ZM31.57,29.33c-.11,0-.14,0-.14-.14V29.1a.43.43,0,0,1,0-.13.74.74,0,0,1,.17-.26l0,0a.33.33,0,0,1,.34,0h0l.1.06c.24.17.51.47.53.62Zm51.07-.1-.19.06q-.41.12-.82.2l-.4.07-.69.1c-.29,0-.59,0-.89.05h-.4c-.3,0-.6,0-.89-.05l-.69-.1-.4-.07q-.42-.09-.82-.2l-.19-.06a12,12,0,0,1-4.5-2.6A15.7,15.7,0,0,0,74,27.73,11.38,11.38,0,0,0,77.42,29h0l.22,0,.6.09a9.56,9.56,0,0,0,1.18.08h.06a9.56,9.56,0,0,0,1.18-.08l.6-.09.22,0h0a11.38,11.38,0,0,0,3.46-1.24,15.7,15.7,0,0,0,2.22-1.09A12,12,0,0,1,82.65,29.24ZM87.85,26A19.35,19.35,0,0,1,71,26a15.62,15.62,0,0,1-4.15-10.8C66.89,7.7,71.75,1.55,78,.7l.25,0a9.79,9.79,0,0,1,2.34,0l.25,0C87.14,1.55,92,7.7,92,15.16A15.62,15.62,0,0,1,87.85,26Zm39.61,3.23c0,.11,0,.14-.14.14h-1.09c0-.15.28-.45.53-.62l.1-.06h0a.33.33,0,0,1,.34,0l0,0a.74.74,0,0,1,.17.26.43.43,0,0,1,0,.13Z"/></g></g></svg>