<?xml version="1.0" encoding="utf-8"?>
<!-- Generator: Adobe Illustrator 25.2.1, SVG Export Plug-In . SVG Version: 6.00 Build 0)  -->
<svg version="1.1" id="Capa_1" xmlns="http://www.w3.org/2000/svg" xmlns:xlink="http://www.w3.org/1999/xlink" x="0px" y="0px"
	 viewBox="0 0 512 512" style="enable-background:new 0 0 512 512;" xml:space="preserve">
<style type="text/css">
	.st0{fill:#F4FBFF;}
	.st1{fill:#DD643A;}
	.st2{fill:#FFFFFF;}
	.st3{fill:#FFE07D;}
	.st4{fill:#FFD064;}
	.st5{fill:#365E7D;}
	.st6{fill:#80B4FB;}
	.st7{fill:#E27F83;}
	.st8{fill:#C8646D;}
	.st9{fill:#9DC6FB;}
</style>
<g>
	<path class="st0" d="M334.5,493.9H105.5c-38.8,0-70.3-31.5-70.3-70.3V144.9c0-38.8,31.5-70.3,70.3-70.3h228.9
		c38.8,0,70.3,31.5,70.3,70.3v278.6C404.8,462.4,373.3,493.9,334.5,493.9z"/>
	<g id="App">
		<g id="a_x29_-Record-Selection-Copy" transform="translate(-219.000000, -377.000000)">
			<g id="Casing" transform="translate(223.000000, 379.000000)">
				<g id="Asset-4">
					<path id="Path" class="st1" d="M66,308c0,3.5,0,6.9,0.4,10.2h299.2c0-3.4,0.4-6.8,0.4-10.2c0-12.5-1.6-25-4.7-37.1H70.7
						C67.6,283,66,295.4,66,308L66,308z"/>
					<path id="Path_5_" class="st1" d="M216,158c-63.6,0-120.3,40.1-141.5,100.1h282.9C336.3,198.1,279.6,158,216,158z"/>
					<path id="Path_1_" class="st1" d="M216,458c74,0,137-53.9,148.3-127.1H67.7C79.1,404,142,458,216,458z"/>
					<path id="Shape" class="st2" d="M304.9,318.2l47.4-47.4h9c-1.1-4.3-2.4-8.6-3.9-12.7H74.5c-1.5,4.2-2.8,8.4-3.8,12.7h59.2
						l-47,47l0.4,0.4H66.4c0,4.3,0.7,8.6,1.4,12.7h296.5c0.7-4.2,1.1-8.4,1.4-12.7H304.9z M288.1,318.2h-51.3l47.4-47.4h50.2l-47,47
						L288.1,318.2z M219.9,318.2h-51.2l47.4-47.4h50.1l-46.9,47L219.9,318.2z M147.9,270.8H198l-46.9,47l0.4,0.4h-51L147.9,270.8z"
						/>
					<circle id="Oval" class="st2" cx="125.9" cy="359.7" r="13.6"/>
					<circle id="Oval_23_" class="st2" cx="171.4" cy="359.7" r="13.6"/>
					<circle id="Oval_22_" class="st2" cx="216.9" cy="359.7" r="13.6"/>
					<circle id="Oval_21_" class="st2" cx="262.4" cy="359.7" r="13.6"/>
					<circle id="Oval_20_" class="st2" cx="307.9" cy="359.7" r="13.6"/>
					<circle id="Oval_19_" class="st2" cx="148.7" cy="389.6" r="13.6"/>
					<circle id="Oval_18_" class="st2" cx="194.1" cy="389.6" r="13.6"/>
					
						<ellipse id="Oval_17_" transform="matrix(0.1602 -0.9871 0.9871 0.1602 -183.3133 563.6812)" class="st2" cx="239.6" cy="389.6" rx="13.6" ry="13.6"/>
					<circle id="Oval_16_" class="st2" cx="285.1" cy="389.6" r="13.6"/>
					<circle id="Oval_15_" class="st2" cx="171.4" cy="418.3" r="13.6"/>
					<circle id="Oval_14_" class="st2" cx="216.9" cy="418.3" r="13.6"/>
					<circle id="Oval_13_" class="st2" cx="262.4" cy="418.3" r="13.6"/>
				</g>
			</g>
		</g>
	</g>
	<g>
		<g>
			<path class="st3" d="M276.1,60c-8.6-21.8-29.9-37.2-54.7-37.2S175.3,38.2,166.6,60h-20.7c-22.2,0-40.3,18-40.3,40.3
				s18,40.3,40.3,40.3h150.9c22.2,0,40.3-18,40.3-40.3S319.1,60,296.8,60L276.1,60z"/>
			<path class="st4" d="M240.5,26.1c-16.2,5.6-29.2,18.1-35.5,34h-20.7C162,60,144,78,144,100.3c0,11.1,4.5,21.2,11.8,28.5
				c7.3,7.3,17.4,11.8,28.5,11.8h-38.4c-11.1,0-21.2-4.5-28.5-11.8c-7.3-7.3-11.8-17.4-11.8-28.5c0-22.2,18-40.3,40.3-40.3h20.7
				c8.7-21.8,29.9-37.2,54.7-37.2C228.1,22.8,234.5,24,240.5,26.1z"/>
			<circle class="st5" cx="221.4" cy="81.7" r="24.1"/>
		</g>
		<g>
			<path class="st6" d="M405.4,243.4c10,7.8,24.5,6.1,32.3-3.9l49.1-62.6c7.8-10,6.1-24.5-3.9-32.3c-10-7.8-24.5-6.1-32.3,3.9
				l-49.1,62.6C393.6,221.1,395.4,235.5,405.4,243.4z"/>
			<path class="st3" d="M320.5,334.7l-8.2,10.4c-9.5,12.1-27.1,14.2-39.2,4.7c-12.1-9.5-14.2-27.1-4.7-39.2l8.2-10.4l43.8-3.8
				L320.5,334.7z"/>
			<path class="st4" d="M279.9,344.8c0.4,3.5,1.5,6.9,3.2,10.1c-3.5-0.9-6.9-2.6-10-5c-6.1-4.8-9.6-11.5-10.5-18.6
				c-0.8-7.1,1-14.5,5.8-20.6l8.2-10.4l43.8-3.8l0.1,15l-26.6,2.3l-8.2,10.4C280.9,330.3,279.1,337.7,279.9,344.8z"/>
			<path class="st7" d="M438.2,184.7l-117.7,150l-43.9-34.5l117.4-149.7"/>
			<path class="st8" d="M411.5,163.8l-117.7,150l-17.3-13.5l117.4-149.7"/>
			<path class="st9" d="M449.7,165l42.6-65c5.2-7.9,3.5-18.5-4-24.3c-7.5-5.8-18.1-5-24.6,1.9l-53,56.9"/>
			<path class="st6" d="M488.3,75.7c-0.7-0.6-2.5,0.4-4.8,2.3c-2.3,2-5.2,5-8.2,8.7l-48.8,60.2l-15.8-12.4l53-56.9
				c3.2-3.5,7.5-5.4,11.9-5.8C480,71.5,484.6,72.7,488.3,75.7L488.3,75.7z"/>
			<path class="st9" d="M449.7,165l-39-30.6c-6.1-4.8-15-3.7-19.8,2.4c-4.8,6.1-3.7,15,2.4,19.8l39,30.6c6.1,4.8,15,3.7,19.8-2.4
				C456.9,178.7,455.8,169.8,449.7,165z"/>
			<path class="st6" d="M407.4,162.4c0.4,3.6,2.2,7,5.3,9.4l-19.4-15.2c-3.1-2.4-4.9-5.8-5.3-9.4c-0.4-3.6,0.5-7.3,2.9-10.4
				c4.8-6.1,13.7-7.2,19.8-2.4l19.4,15.2c-6.1-4.8-15-3.7-19.8,2.4C407.9,155.1,406.9,158.8,407.4,162.4z"/>
		</g>
	</g>
	<path d="M217,50.5c-17.2,0-31.2,14-31.2,31.2s14,31.2,31.2,31.2s31.2-14,31.2-31.2S234.2,50.5,217,50.5z M217,98.7
		c-9.4,0-17-7.6-17-17s7.6-17,17-17c9.4,0,17,7.6,17,17S226.4,98.7,217,98.7z"/>
	<path d="M262.5,354.9c4.8,2.4,18.1,8,23.5,8c1.4,0,2.8-0.1,4.3-0.3c9.3-1.1,17.6-5.8,23.3-13.1l80.6-102.7c0.6,0.6,1.3,1.2,2,1.7
		v179.1c0,31.6-25.7,57.3-57.3,57.3H140c-3.9,0-7.1,3.2-7.1,7.1s3.2,7.1,7.1,7.1h198.8c39.4,0,71.5-32.1,71.5-71.5V255
		c1.6,0.3,3.3,0.4,4.9,0.4c8.9,0,17.8-4,23.7-11.5l49.1-62.6c5-6.3,7.2-14.2,6.2-22.2c-1-8-5-15.1-11.3-20.1v0
		c-2.7-2.1-5.7-3.8-8.9-4.8l19.9-30.3c7.3-11.1,4.9-25.6-5.5-33.8c-4.4-3.5-10-5.4-15.6-5.4c-7,0-13.7,2.9-18.5,8.1l-7.6,8.2
		c-2.7,2.9-2.5,7.3,0.3,10c2.9,2.7,7.3,2.5,10-0.3l7.6-8.2c2.1-2.3,5-3.6,8.2-3.6c2.5,0,4.9,0.8,6.9,2.4c4.6,3.6,5.6,10,2.4,14.9
		l-38.4,58.6l-26.9-21.1l40.1-43c2.7-2.9-7.1,3-10,0.3c-2.9-2.7,2.3-12.9-0.3-10l-38,40.8c-7.2-32-36-55.9-69.7-55.9h-13.9
		c-8.5-8-19.9-12.9-32.4-12.9h-16.1c-11-22.7-33.8-37.2-59.3-37.2s-48.4,14.4-59.3,37.2h-16.1c-12.5,0-23.9,4.9-32.4,12.9H95.2
		c-39.4,0-71.5,32.1-71.5,71.5v290.3c0,39.4,32.1,71.5,71.5,71.5l49.7,0c3.9,0-3.3-3.2-3.3-7.1s2.3-7.1-1.7-7.1l-44.8,0
		c-31.6,0-57.3-25.7-57.3-57.3V137.3c0-31.6,25.7-57.3,57.3-57.3h3.6c-2.9,6.2-4.6,13.1-4.6,20.3c0,26.1,21.2,47.4,47.4,47.4h150.9
		c26.1,0,47.4-21.2,47.4-47.4c0-7.3-1.7-14.2-4.6-20.3h3.6c27,0,50.1,19,55.9,44.6c-5.2,0.7-10.2,3.4-13.7,7.9
		c-3.5,4.4-5,10-4.4,15.6c0.2,2,0.8,3.9,1.5,5.8L258.5,306.3c-5.8,7.4-8.3,16.5-7.2,25.8c0.2,1.8,0.6,3.6,1,5.3 M292.5,133.5H141.6
		c-18.3,0-33.2-14.9-33.2-33.2s14.9-33.2,33.2-33.2h20.7c2.9,0,5.5-1.8,6.6-4.5c7.9-19.9,26.8-32.7,48.1-32.7
		c21.4,0,40.3,12.8,48.1,32.7c1.1,2.7,3.7,4.5,6.6,4.5h20.7c18.3,0,33.2,14.9,33.2,33.2S310.8,133.5,292.5,133.5z M392.1,141.2
		c1.2-1.5,2.8-2.4,4.7-2.6c0.3,0,0.6-0.1,0.9-0.1c1.6,0,3.1,0.5,4.3,1.5l39,30.6h0c1.5,1.2,2.4,2.8,2.6,4.7c0.2,1.9-0.3,3.7-1.4,5.2
		c-2.4,3-6.8,3.6-9.8,1.2l-39-30.6c-1.5-1.2-2.4-2.8-2.6-4.7C390.5,144.5,391,142.7,392.1,141.2L392.1,141.2z M315,324.7l-10.8-8.5
		l77.5-98.7c2.4-3.1,1.9-7.5-1.2-9.9c-3.1-2.4-7.5-1.9-9.9,1.2L293,307.5l-10.8-8.5l105.5-134.4l32.8,25.7L315,324.7z M288.6,348.6
		c-5.5,0.7-11-0.9-15.4-4.3c-4.4-3.4-7.2-8.4-7.8-13.9c-0.7-5.5,0.9-11,4.3-15.4l3.8-4.9l32.8,25.7l-3.8,4.9
		C299,345.1,294.1,347.9,288.6,348.6z M476.9,172.5l-49.1,62.6c-5.4,6.9-15.5,8.1-22.4,2.7c-0.9-0.7-1.7-1.5-2.4-2.3l30.2-38.5
		c1.1,0.2,2.3,0.3,3.4,0.3c6.3,0,12.5-2.8,16.7-8.1c3.5-4.4,5-10,4.4-15.6c-0.4-3.4-1.6-6.5-3.4-9.2l11.5-17.5
		c3.1,0.3,6,1.4,8.4,3.3c3.4,2.6,5.5,6.4,6,10.6C480.7,165,479.5,169.2,476.9,172.5L476.9,172.5z"/>
</g>
</svg>
