<?xml version="1.0" encoding="UTF-8"?>
<svg width="62px" height="62px" viewBox="0 0 62 62" version="1.1" xmlns="http://www.w3.org/2000/svg" xmlns:xlink="http://www.w3.org/1999/xlink">
    <title>Casing</title>
    <g id="App" stroke="none" stroke-width="1" fill="none" fill-rule="evenodd">
        <g id="a)-Record-Selection-Copy" transform="translate(-219.000000, -377.000000)">
            <g id="Casing" transform="translate(223.000000, 379.000000)">
                <g id="Asset-4">
                    <path d="M-1.71681553e-06,26.65 C-1.71681553e-06,27.27 -1.71681553e-06,27.87 0.07,28.47 L53.24,28.47 C53.24,27.87 53.3100017,27.27 53.3100017,26.65 C53.3108001,24.4239236 53.0319503,22.2065638 52.48,20.05 L0.83,20.05 C0.278049712,22.2065638 -0.00080008491,24.4239236 -1.71681553e-06,26.65 L-1.71681553e-06,26.65 Z" id="Path" fill="#DD643A" fill-rule="nonzero"></path>
                    <path d="M26.65,-6.58971359e-07 C15.3468433,0.00349685306 5.27348038,7.13178351 1.51,17.79 L51.79,17.79 C48.0315433,7.12798769 37.9550651,-0.00250341109 26.65,-6.58971359e-07 Z" id="Path" fill="#DD643A" fill-rule="nonzero"></path>
                    <path d="M26.65,53.310003 C39.8016733,53.3162276 50.9914718,43.7273983 53,30.73 L0.31,30.73 C2.32188961,43.7214599 13.5036803,53.3070648 26.65,53.310003 Z" id="Path" fill="#DD643A" fill-rule="nonzero"></path>
                    <path d="M42.46,28.47 L50.88,20.05 L52.48,20.05 C52.28,19.28 52.05,18.53 51.79,17.79 L1.51,17.79 C1.25,18.53 1.02,19.28 0.83,20.05 L11.35,20.05 L3,28.4 L3.07,28.47 L0.07,28.47 C0.07,29.23 0.2,29.99 0.31,30.73 L53,30.73 C53.12,29.99 53.2,29.23 53.25,28.47 L42.46,28.47 Z M39.46,28.47 L30.35,28.47 L38.77,20.05 L47.69,20.05 L39.34,28.4 L39.46,28.47 Z M27.34,28.47 L18.24,28.47 L26.66,20.05 L35.57,20.05 L27.23,28.4 L27.34,28.47 Z M14.55,20.05 L23.46,20.05 L15.12,28.4 L15.19,28.47 L6.12,28.47 L14.55,20.05 Z" id="Shape" fill="#FFFFFF" fill-rule="nonzero"></path>
                    <circle id="Oval" fill="#FFFFFF" fill-rule="nonzero" cx="10.65" cy="35.84" r="2.41"></circle>
                    <circle id="Oval" fill="#FFFFFF" fill-rule="nonzero" cx="18.73" cy="35.84" r="2.41"></circle>
                    <circle id="Oval" fill="#FFFFFF" fill-rule="nonzero" cx="26.81" cy="35.84" r="2.41"></circle>
                    <circle id="Oval" fill="#FFFFFF" fill-rule="nonzero" cx="34.9" cy="35.84" r="2.41"></circle>
                    <circle id="Oval" fill="#FFFFFF" fill-rule="nonzero" cx="42.98" cy="35.84" r="2.41"></circle>
                    <circle id="Oval" fill="#FFFFFF" fill-rule="nonzero" cx="14.69" cy="41.15" r="2.41"></circle>
                    <circle id="Oval" fill="#FFFFFF" fill-rule="nonzero" cx="22.77" cy="41.15" r="2.41"></circle>
                    <circle id="Oval" fill="#FFFFFF" fill-rule="nonzero" cx="30.85" cy="41.15" r="2.41"></circle>
                    <circle id="Oval" fill="#FFFFFF" fill-rule="nonzero" cx="38.94" cy="41.15" r="2.41"></circle>
                    <circle id="Oval" fill="#FFFFFF" fill-rule="nonzero" cx="18.73" cy="46.25" r="2.41"></circle>
                    <circle id="Oval" fill="#FFFFFF" fill-rule="nonzero" cx="26.81" cy="46.25" r="2.41"></circle>
                    <circle id="Oval" fill="#FFFFFF" fill-rule="nonzero" cx="34.9" cy="46.25" r="2.41"></circle>
                </g>
            </g>
        </g>
    </g>
</svg>