<svg id="Layer_1" data-name="Layer 1" xmlns="http://www.w3.org/2000/svg" viewBox="0 0 240.47 240.47"><defs><style>.cls-1{fill:#6aaa43;}.cls-2{fill:#fff;}</style></defs><circle class="cls-1" cx="120.23" cy="120.23" r="120.23"/><path class="cls-2" d="M74.8,65.84l-.37.23a3.51,3.51,0,0,0-1.18,4.74l23.91,34c.31.44,1.89,2.93-1.39,5.8a3.69,3.69,0,0,1-5.15-1.19l-24-34.1c-.05-.07-.1-.14-.14-.21a11.52,11.52,0,0,1,3.78-15.83l.37-.22a11.33,11.33,0,0,1,8.7-1.33,11.48,11.48,0,0,1,7,5.1l14.37,21.09a4,4,0,0,1-6.61,4.5L79.72,67.22a1.63,1.63,0,0,1-.11-.17,3.57,3.57,0,0,0-2.19-1.6A3.46,3.46,0,0,0,74.8,65.84Z"/><path class="cls-2" d="M187.87,106.62h-5.35a2.3,2.3,0,0,0-.56-1L159.67,82.37a2.37,2.37,0,0,0-3.43,3.28l20.1,21H64.56c1.42-3.73,5.72-11,17.43-9.81,14.23,1.4,23.58-7,31.82-14.39,10.62-9.54,18.3-16.43,33.22-3a2.38,2.38,0,0,0,3.19-3.53c-18.1-16.32-29-6.52-39.58,3-7.88,7.07-16,14.39-28.19,13.19-10.25-1-16,3.33-19.07,7.14a21.88,21.88,0,0,0-3.82,7.4H57.63a6.46,6.46,0,0,0-6.45,6.44v10.36a6.46,6.46,0,0,0,6.45,6.44H58c.13,22.69,13,40.39,35.52,49a6.91,6.91,0,0,0-1,3.49v2a7,7,0,0,0,7,7h49.09a7,7,0,0,0,7-7v-2a7,7,0,0,0-.79-3.22c10.48-3.91,19.26-10,25.48-17.61,7.31-9,11-19.76,11-32,0-.22,0-.43,0-.65a6.45,6.45,0,0,0,3-5.45V113.06A6.45,6.45,0,0,0,187.87,106.62ZM55.93,123.42V113.06a1.7,1.7,0,0,1,1.7-1.69H187.87a1.7,1.7,0,0,1,1.7,1.69v10.36a1.7,1.7,0,0,1-1.7,1.69H57.63A1.7,1.7,0,0,1,55.93,123.42Zm94.93,61a2.22,2.22,0,0,1-2.22,2.22H99.55a2.22,2.22,0,0,1-2.22-2.22v-2a2.23,2.23,0,0,1,2.22-2.22h49.09a2.23,2.23,0,0,1,2.22,2.22Zm25.76-25.87c-6.19,7.6-15.19,13.51-26,17.07l-.12.05a6.93,6.93,0,0,0-1.84-.26H99.55a6.84,6.84,0,0,0-1.37.14,1.6,1.6,0,0,0-.3-.13c-22.21-7.49-35-24.08-35.12-45.54h123.8A44.71,44.71,0,0,1,176.62,158.53Z"/></svg>