<?xml version="1.0" encoding="UTF-8"?>
<svg width="62px" height="62px" viewBox="0 0 62 62" version="1.1" xmlns="http://www.w3.org/2000/svg" xmlns:xlink="http://www.w3.org/1999/xlink">
    <title>Fist Break</title>
    <g id="App" stroke="none" stroke-width="1" fill="none" fill-rule="evenodd">
        <g id="a)-Record-Selection-Copy" transform="translate(-99.000000, -476.000000)">
            <g id="Fist-Break" transform="translate(102.000000, 477.000000)">
                <g id="Asset-5">
                    <path d="M54.3100459,27.65 C54.3302338,16.7019874 47.6552672,6.85449703 37.4783383,2.81847088 C27.3014094,-1.21755527 15.6915376,1.3784267 8.20277081,9.36452469 C0.714004007,17.3506227 -1.13115485,29.1032238 3.55,39 L51.75,39 C53.4351981,35.4535772 54.3100459,31.5764497 54.3100459,27.65 L54.3100459,27.65 Z" id="Path" fill="#9AC455" fill-rule="nonzero"></path>
                    <path d="M33.18,41.19 L22.18,41.19 L22.18,30.25 L17.87,30.25 C16.1767646,30.2522704 14.5937047,29.4107506 13.6484537,28.005919 C12.7032027,26.6010873 12.5200349,24.8176403 13.16,23.25 C15.5786004,17.3733272 21.3050876,13.5376126 27.66,13.5376126 C34.0149124,13.5376126 39.7413996,17.3733272 42.16,23.25 L42.16,23.25 C42.8046379,24.8159173 42.6249109,26.6002958 41.6809434,28.0062049 C40.7369759,29.4121139 39.1534106,30.2539153 37.46,30.25 L33.18,30.25 L33.18,41.19 Z M24.39,38.93 L30.92,38.93 L30.92,28 L37.44,28 C38.3844115,28.0079403 39.2687269,27.5375598 39.79,26.75 C40.3177842,25.9787077 40.4193937,24.9927191 40.06,24.13 L40.06,24.13 C37.9868573,19.1068891 33.0891112,15.8298022 27.655,15.8298022 C22.2208888,15.8298022 17.3231427,19.1068891 15.25,24.13 C14.8876856,24.9910558 14.9855221,25.9769465 15.51,26.75 C16.0344859,27.5391482 16.9225032,28.0094963 17.87,28 L24.39,28 L24.39,38.93 Z" id="Shape" fill="#FFFFFF" fill-rule="nonzero"></path>
                    <path d="M27.65,54.31 C37.0400704,54.3119227 45.7387337,49.3738168 50.55,41.31 L4.76,41.31 C9.56509415,49.3751924 18.2619097,54.3144062 27.65,54.31 Z" id="Path" fill="#9AC455" fill-rule="nonzero"></path>
                    <path d="M3.55,39 C3.92,39.78 4.32,40.53 4.76,41.26 L50.55,41.26 C50.98,40.53 51.39,39.78 51.75,39 L3.55,39 Z" id="Path" fill="#FFFFFF" fill-rule="nonzero"></path>
                </g>
            </g>
        </g>
    </g>
</svg>