<?xml version="1.0" encoding="utf-8"?>
<!-- Generator: Adobe Illustrator 24.2.1, SVG Export Plug-In . SVG Version: 6.00 Build 0)  -->
<svg version="1.1" id="Capa_1" xmlns="http://www.w3.org/2000/svg" xmlns:xlink="http://www.w3.org/1999/xlink" x="0px" y="0px"
	 viewBox="0 0 62 62" style="enable-background:new 0 0 62 62;" xml:space="preserve">
<style type="text/css">
	.st0{fill:#B07B49;}
	.st1{fill:#FFFFFF;}
</style>
<g id="App">
	<g id="a_x29_-Record-Selection-Copy" transform="translate(-98.000000, -377.000000)">
		<g id="Spawning" transform="translate(102.000000, 379.000000)">
			<g id="Asset-3">
				<path id="Path" class="st0" d="M53.3,26.6C53,12.1,41.2,0.5,26.7,0.5S0.3,12.1,0,26.6c0,0.6,0,1.1,0.1,1.7h53.2
					C53.3,27.8,53.3,27.2,53.3,26.6z"/>
				<path id="Path_1_" class="st0" d="M26.6,53.3c13.2,0,24.4-9.7,26.4-22.7H0.3C2.2,43.6,13.4,53.3,26.6,53.3L26.6,53.3z"/>
				<path id="Path_2_" class="st1" d="M26.6,28.8c0.5,0.6,1,1.1,1.5,1.6l21.3-17.9c-0.4-0.6-0.9-1.2-1.4-1.8L26.6,28.8z"/>
				<path id="Path_3_" class="st1" d="M0.1,28.3c0,0.8,0.2,2.3,0.2,2.3H53c0.1-0.7,0.3-1.5,0.3-2.3H0.1z"/>
				<circle id="Oval" class="st1" cx="10.5" cy="35.7" r="2.4"/>
				<circle id="Oval_1_" class="st1" cx="18.6" cy="35.7" r="2.4"/>
				<circle id="Oval_2_" class="st1" cx="48.1" cy="25.4" r="2.4"/>
				<circle id="Oval_3_" class="st1" cx="40.5" cy="25.4" r="2.4"/>
				<circle id="Oval_4_" class="st1" cx="47.4" cy="19" r="2.4"/>
				<circle id="Oval_5_" class="st1" cx="14.5" cy="41" r="2.4"/>
				<circle id="Oval_6_" class="st1" cx="22.6" cy="41" r="2.4"/>
				<circle id="Oval_7_" class="st1" cx="30.7" cy="41" r="2.4"/>
				<circle id="Oval_8_" class="st1" cx="38.8" cy="41" r="2.4"/>
				<circle id="Oval_9_" class="st1" cx="18.6" cy="46.1" r="2.4"/>
				<circle id="Oval_10_" class="st1" cx="26.6" cy="46.1" r="2.4"/>
				<circle id="Oval_11_" class="st1" cx="34.7" cy="46.1" r="2.4"/>
			</g>
		</g>
	</g>
</g>
</svg>
