<svg id="Layer_1" data-name="Layer 1" xmlns="http://www.w3.org/2000/svg" viewBox="0 0 267.65 272.72"><defs><style>.cls-1{fill:#f4fbfe;}.cls-2{fill:#f48e30;}.cls-3{fill:#fff;}.cls-4{fill:#ffe07e;}.cls-5{fill:#ffd067;}.cls-6{fill:#385e7e;}.cls-7{fill:#8ab2df;}.cls-8{fill:#e27f83;}.cls-9{fill:#c9656e;}.cls-10{fill:#a2c5e8;}.cls-11{fill:#010101;}</style></defs><path class="cls-1" d="M175.34,269.73H46.15A39.68,39.68,0,0,1,6.49,230.07V72.83A39.68,39.68,0,0,1,46.15,33.17H175.29A39.68,39.68,0,0,1,215,72.83V230A39.61,39.61,0,0,1,175.34,269.73Z"/><circle class="cls-2" cx="114.48" cy="160.6" r="72.7"/><path class="cls-3" d="M99.45,198.27a33.53,33.53,0,0,1-33-29.05,38.72,38.72,0,0,0,6.29,2.12c.61.15,1.23.3,1.87.44A89,89,0,0,0,98.8,175H99c6.06-.43,11-.82,15.21-1.33a20.06,20.06,0,0,1-.29-3c0-.16,0-.32,0-.47a15.33,15.33,0,0,1,.44-3.31c-3.34.4-7.14.7-11.42.81l.07,0a3.2,3.2,0,0,0,1.17-4.38l-16.7-29a1.74,1.74,0,0,0-.11-.18,9.24,9.24,0,0,0-12.79-2.59l-.29.2a9.24,9.24,0,0,0-2.57,12.72L82.22,162a3.21,3.21,0,0,0,5.51-3.29L77.2,141.09l-.08-.13a2.86,2.86,0,0,1-.43-2.13,2.78,2.78,0,0,1,1.17-1.78l.29-.19a2.82,2.82,0,0,1,3.85.74l16.64,28.86a3.1,3.1,0,0,0,1.33,1.26h-.8a108.46,108.46,0,0,1-22.86-2.13c-3.59-1-6.46-2.06-8.64-2.87a5.42,5.42,0,0,1-1.39-1c.5-.52,2-1.55,5.29-2.63a3.21,3.21,0,1,0-2-6.1c-6.54,2.14-9.86,5.07-9.86,8.72a5.58,5.58,0,0,0,.24,1.62,3,3,0,0,0-.24,1.16c0,22.16,17.82,40.2,39.73,40.2A39.48,39.48,0,0,0,130,190.13a20.76,20.76,0,0,1-6.28-2.56A33,33,0,0,1,99.45,198.27Z"/><path class="cls-3" d="M105,155.81A112.21,112.21,0,0,1,117.83,157c.87-2,1.82-4,2.84-6a122,122,0,0,0-15.39-1.6,3.2,3.2,0,1,0-.27,6.4Z"/><path class="cls-3" d="M154.62,148.92a15.15,15.15,0,0,1,15.43-.35l3-4.56a20.57,20.57,0,0,0-21.29.29l-.2.12c-.51.37-1,.71-1.52,1,.85,1.6,1.69,3.23,2.5,4.85C153.21,149.87,153.91,149.43,154.62,148.92Z"/><path class="cls-3" d="M155.77,157.26c.76,1.78,1.43,3.49,2,5.1a15,15,0,0,1,12.3,1.09l3-4.56A20.53,20.53,0,0,0,155.77,157.26Z"/><path class="cls-3" d="M159.17,171.32a19.87,19.87,0,0,1-1.51,6,15,15,0,0,1,12.39,1.07l3-4.56A20.57,20.57,0,0,0,159.17,171.32Z"/><path class="cls-3" d="M153,163.4a22.3,22.3,0,0,1-11.85,4.43c-.34,0-.69,0-1,0A19.19,19.19,0,0,1,128,163.51a19,19,0,0,0,5.93-2.58,13.65,13.65,0,0,0,7.31,1.43,17.26,17.26,0,0,0,8.68-3.45l.19-.13a23.34,23.34,0,0,1,4-1.92c-1-2.25-2.07-4.61-3.26-7a21,21,0,0,1-10.76,3.1A19.21,19.21,0,0,1,128,148.6l1.83-2,1.82-2c.3.27,7.25,6.23,16.77.48-5.53-10.4-11.49-19.74-11.49-19.74s-7.95,12.44-14,24.6c-1,2-2,4.07-2.83,6a65.1,65.1,0,0,0-3,7.94c-.19.66-.35,1.28-.48,1.89a15.82,15.82,0,0,0-.43,3.3c0,.16,0,.32,0,.48a20.19,20.19,0,0,0,.29,3,20.49,20.49,0,0,0,9.51,13.9,20.76,20.76,0,0,0,6.28,2.56,21.51,21.51,0,0,0,4.65.52,20.75,20.75,0,0,0,19.14-12.59,17.52,17.52,0,0,0-3,1.42,21.91,21.91,0,0,1-12.87,4.46,18.86,18.86,0,0,1-3.51-.33c-.45-.09-.88-.18-1.28-.28a19.88,19.88,0,0,1-4.81-2,34.4,34.4,0,0,0,2.32-4.95,13.72,13.72,0,0,0,6.09,2c3,.27,6.77-.42,11-3.45l.19-.12a21.85,21.85,0,0,1,7.44-2.82c.05-.61.09-1.24.09-1.87a23.65,23.65,0,0,0-1.52-7.09A16.26,16.26,0,0,0,153,163.4Z"/><path class="cls-4" d="M142.4,24.94a33.22,33.22,0,0,0-61.78,0H68.94a22.74,22.74,0,0,0,0,45.47h85.14a22.74,22.74,0,0,0,0-45.47Z"/><path class="cls-5" d="M122.31,5.81a33.33,33.33,0,0,0-20,19.18H90.61a22.71,22.71,0,1,0,0,45.42H68.94a22.74,22.74,0,0,1,0-45.47H80.62A33.25,33.25,0,0,1,111.48,4,32.66,32.66,0,0,1,122.31,5.81Z"/><circle class="cls-6" cx="111.54" cy="37.18" r="13.6"/><path class="cls-7" d="M215.34,128.41a13,13,0,0,0,18.23-2.2l27.7-35.32a13,13,0,0,0-20.43-16l-27.7,35.31A13,13,0,0,0,215.34,128.41Z"/><path class="cls-4" d="M167.45,179.91l-4.63,5.87a15.75,15.75,0,0,1-24.77-19.46l4.63-5.87,24.71-2.14Z"/><path class="cls-5" d="M144.54,185.61a16.09,16.09,0,0,0,1.81,5.7,15.72,15.72,0,0,1-8.3-24.94l4.63-5.86,24.71-2.15.06,8.47-15,1.29L147.81,174A15.8,15.8,0,0,0,144.54,185.61Z"/><path class="cls-8" d="M233.85,95.29l-66.4,84.62-24.77-19.46L208.91,76"/><path class="cls-9" d="M218.79,83.5l-66.41,84.62-9.76-7.61,66.24-84.46"/><path class="cls-10" d="M240.34,84.17l24-36.67a10.28,10.28,0,0,0-16.13-12.63L218.33,67"/><path class="cls-7" d="M262.11,33.79c-.39-.33-1.41.23-2.7,1.3A40.1,40.1,0,0,0,254.78,40L227.25,74l-8.92-7,29.91-32.1a10.17,10.17,0,0,1,13.87-1.08Z"/><path class="cls-10" d="M240.34,84.17l-22-17.26a8,8,0,1,0-9.81,12.53l22,17.26a8,8,0,0,0,9.82-12.53Z"/><path class="cls-7" d="M216.47,82.71a7.75,7.75,0,0,0,3,5.3l-10.94-8.57a7.76,7.76,0,0,1-3-5.31,7.95,7.95,0,0,1,12.8-7.22l10.95,8.58a8,8,0,0,0-11.17,1.35A7.79,7.79,0,0,0,216.47,82.71Z"/><path class="cls-11" d="M109.05,19.58a17.6,17.6,0,1,0,17.61,17.6A17.63,17.63,0,0,0,109.05,19.58Zm0,27.19a9.59,9.59,0,1,1,9.6-9.59A9.59,9.59,0,0,1,109.05,46.77Z"/><path class="cls-11" d="M134.72,191.31c2.71,1.35,10.22,4.51,13.26,4.51a17.14,17.14,0,0,0,2.43-.17,19.48,19.48,0,0,0,13.14-7.39L209,130.32a8.59,8.59,0,0,0,1.12,1V232.33a32.36,32.36,0,0,1-32.32,32.32H65.61a4,4,0,0,0,0,8H177.77a40.4,40.4,0,0,0,40.34-40.33V135a15.12,15.12,0,0,0,2.76.23,17,17,0,0,0,13.37-6.49l27.7-35.32a16.61,16.61,0,0,0,3.5-12.52,17,17,0,0,0-6.37-11.34h0a16,16,0,0,0-5-2.71l11.22-17.1a14.25,14.25,0,0,0-22.34-17.54l-4.29,4.62a4,4,0,1,0,5.82,5.48l4.28-4.63a6.29,6.29,0,0,1,8.52-.68,6.26,6.26,0,0,1,1.36,8.41L237,78.42l-15.17-11.9L244.4,42.26c1.52-1.64-4,1.69-5.64.17s1.29-7.28-.17-5.65l-21.44,23a40.53,40.53,0,0,0-39.32-31.54H170A26.58,26.58,0,0,0,151.71,21h-9.09a37.16,37.16,0,0,0-66.91,0H66.63a26.6,26.6,0,0,0-18.28,7.27h-8A40.4,40.4,0,0,0,0,68.6V232.38a40.4,40.4,0,0,0,40.34,40.34h28c2.2,0-1.86-1.81-1.86-4s1.29-4-1-4H40.28A32.36,32.36,0,0,1,8,232.38V68.55A32.36,32.36,0,0,1,40.28,36.22h2a27.13,27.13,0,0,0-2.59,11.45A26.76,26.76,0,0,0,66.46,74.41h85.13a26.71,26.71,0,0,0,24.15-38.19h2a32.46,32.46,0,0,1,31.54,25.16,11.79,11.79,0,0,0-7.73,4.46,12,12,0,0,0-2.48,8.8,13.33,13.33,0,0,0,.84,3.27l-67.47,86a19.59,19.59,0,0,0-4.06,14.56,24.28,24.28,0,0,0,.56,3m22.68-115H66.52a18.73,18.73,0,1,1,0-37.46H78.19a4,4,0,0,0,3.73-2.54,29.18,29.18,0,0,1,54.27,0,4,4,0,0,0,3.72,2.54h11.68a18.73,18.73,0,0,1,.06,37.46Zm56.19,4.35a3.82,3.82,0,0,1,2.65-1.47c.17,0,.34-.06.51-.06a3.79,3.79,0,0,1,2.43.85l22,17.26h0A3.89,3.89,0,0,1,236.9,90a4.17,4.17,0,0,1-.79,2.93,4,4,0,0,1-5.53.68l-22-17.27a4.14,4.14,0,0,1-.73-5.58Zm-43.5,103.52-6.09-4.79L202,113.79a4,4,0,1,0-6.26-4.9l-43.78,55.68-6.09-4.8L205.36,84l18.5,14.5Zm-14.89,13.49a11.8,11.8,0,0,1-8.69-2.43,11.48,11.48,0,0,1-4.4-7.84,11.8,11.8,0,0,1,2.43-8.69l2.14-2.76,18.5,14.49-2.14,2.77A11.9,11.9,0,0,1,149.45,187.76ZM255.68,88.41,228,123.72a9,9,0,0,1-12.64,1.53A10.44,10.44,0,0,1,214,124l17-21.72a11.32,11.32,0,0,0,1.92.17A12,12,0,0,0,244.85,89a11.77,11.77,0,0,0-1.92-5.19L249.42,74a9,9,0,0,1,4.74,1.86,8.78,8.78,0,0,1,3.38,6,8.93,8.93,0,0,1-1.86,6.61Z"/></svg>