<svg id="Layer_1" data-name="Layer 1" xmlns="http://www.w3.org/2000/svg" viewBox="0 0 267.65 272.72"><defs><style>.cls-1{fill:#f4fbfe;}.cls-2{fill:#f48e30;}.cls-3{fill:#fff;}.cls-4{fill:#ffe07e;}.cls-5{fill:#ffd067;}.cls-6{fill:#385e7e;}.cls-7{fill:#8ab2df;}.cls-8{fill:#e27f83;}.cls-9{fill:#c9656e;}.cls-10{fill:#a2c5e8;}.cls-11{fill:#010101;}</style></defs><path class="cls-1" d="M175.34,269.73H46.15A39.68,39.68,0,0,1,6.49,230.07V72.83A39.68,39.68,0,0,1,46.15,33.17H175.29A39.68,39.68,0,0,1,215,72.83V230A39.61,39.61,0,0,1,175.34,269.73Z"/><circle class="cls-2" cx="113.56" cy="161.6" r="72.7"/><path class="cls-3" d="M118.31,163.5c0-2.65-.39-5.26,2.15-7.5a5,5,0,0,0,1.12-5.34,2,2,0,0,1,.4-1.86c2-3.27,1-6.51-2.48-8.31a1.77,1.77,0,0,1-1.22-1.88c.07-2.19,0-4.38,0-6.57,0-3.48-1.94-5.36-5.71-5.47-.9,0-1.27-.16-1.49-1-.73-2.62-2.65-4-5.63-3.72-1.11.09-1.16-.28-1.24-1.09-.4-3.81-.88-5.6-5-5.78-2.85,0-3.52.18-4.37,1.63-1,1.7-.38,3.89-1.34,4.86s-3.37,0-5.12,1a3.57,3.57,0,0,0-1.6,3.3c0,.08,0,2.53,0,3.3-.08,6,0,11.95,0,17.92,0,.54.32,1.19-.43,1.78-1.95-2.06-3.82-4.16-5.84-6.12a5.11,5.11,0,0,0-6.34-.66,4.26,4.26,0,0,0-1.84,5.37c.4,1.07.85,2.12,1.27,3.17,1.82,4.48,3.63,9,5.64,13.94l-.14-.06a10.33,10.33,0,0,1,.82,1.35,2.1,2.1,0,0,0-1.53,2l-.53,39.09A2.11,2.11,0,0,0,79.9,209l5.15.07A2.1,2.1,0,0,0,87.17,207l.43-31.68c.59.35,1.19.68,1.8,1L89,206.82a2.07,2.07,0,0,0,2,2.1h0a2.08,2.08,0,0,0,2.1-2L93.52,178c.56.18,1.14.34,1.72.48l-.39,28.33a2.08,2.08,0,0,0,4.15.06l.37-27.76C107.81,179.58,118.26,175.06,118.31,163.5Zm-7-31.93c0-1,.36-1.82,1.65-1.83s1.87.78,1.87,1.92v6.57c-1.1-1.09-3.56-.78-3.53-2.8C111.29,134.14,111.28,132.86,111.28,131.57Zm1.24,10c.68,1.34,1.36,2.13,3.2,1.47a2.8,2.8,0,0,1,3.4,1.26,2.27,2.27,0,0,1-.33,3.14c-1.23,1.06-1.21,2-.73,3.42,1,3-1.62,6.07-5.06,6.08-3.72,0-6.31-3.52-4.76-6.74.81-1.7.62-2.58-1.36-3.29a3.61,3.61,0,0,1-2.58-4.2,3.9,3.9,0,0,1,3.52-3.36A4.16,4.16,0,0,1,112.52,141.55Zm-6.63-16.66c1.36,0,2,.89,1.92,2.13a57.26,57.26,0,0,0,0,5.86c.2,2.28-.16,4-3.59,4,0-3.27,0-6.57,0-9.87C104.22,125.86,104.65,124.93,105.89,124.89Zm-1.72,50.71a21.37,21.37,0,0,1-4.75.34,19.52,19.52,0,0,1-4.14-.63c-.58-.15-1.15-.33-1.71-.53a18.31,18.31,0,0,1-4.12-2.14,18.72,18.72,0,0,1-6-6.91c-.21-.41-.41-.83-.59-1.26-2.41-5.75-4.7-11.55-7.05-17.32-.37-.92-1-1.87.36-2.56s1.93.37,2.6,1.07q3.72,4,7.41,8c.75.81,1.39,1.9,2.79,1.42s1.13-1.7,1.13-2.75q0-12,0-24.05a13.69,13.69,0,0,1,.06-1.81A1.65,1.65,0,0,1,92,124.88a1.74,1.74,0,0,1,1.76,1.62,14.06,14.06,0,0,1,0,1.59c0,6.35,0,12.7,0,19.06,0,1.18,0,2.5,1.68,2.48s1.75-1.32,1.75-2.51V134c0-4.08,0-8.17,0-12.25,0-1.32-.39-3.17,1.72-3.17s1.83,1.9,1.86,3.3c0,.68,0,1.36,0,2,0,7.79,0,15.58,0,23.37,0,1.43.26,2.93,2.23,2.29s1.53.13,1.38,1.26a7.71,7.71,0,0,0,7.65,9c3.27.06,2.77,1.49,2.76,3.23C114.78,169.87,111,174.32,104.17,175.6Z"/><path class="cls-3" d="M70.29,121.35a15.61,15.61,0,0,0,0,1.81,1.45,1.45,0,0,0,1.7,1.31c1,0,1.53-.51,1.55-1.42s0-2,0-2.94-.43-1.86-1.59-1.9A1.6,1.6,0,0,0,70.24,120c0,.45,0,.91,0,1.36Z"/><path class="cls-3" d="M68.37,124.56a22.58,22.58,0,0,0-3.49,0c-1,.08-1.72.68-1.64,1.65a1.55,1.55,0,0,0,1.82,1.46c.59,0,1.17,0,1.75,0h1.5c1.07,0,1.73-.46,1.74-1.5S69.38,124.63,68.37,124.56Z"/><path class="cls-3" d="M75.78,127.69c.49,0,1,0,1.48,0s1.17,0,1.74,0c1-.06,1.53-.46,1.57-1.4a1.46,1.46,0,0,0-1.34-1.64,21,21,0,0,0-3.72-.07c-1,.06-1.73.59-1.7,1.59S74.58,127.74,75.78,127.69Z"/><path class="cls-3" d="M73.57,132.14c0-.46,0-.91,0-1.36h0c0-.53,0-1.05,0-1.58a1.64,1.64,0,0,0-3.25,0,26,26,0,0,0-.05,2.93c0,1.08.34,2,1.81,1.91S73.62,133.14,73.57,132.14Z"/><path class="cls-3" d="M133.12,146.15a1.62,1.62,0,0,0,1.76-1.57c.07-1.08-.67-1.66-1.85-1.68a1.49,1.49,0,0,0-1.71,1.59A1.56,1.56,0,0,0,133.12,146.15Z"/><path class="cls-3" d="M166.81,137.41l-7.94-5.15L107,208.69c27.25,5.81,58.16-40.79,58.16-40.79l-8.25-14.33Z"/><path class="cls-3" d="M122.35,171.37h0a2,2,0,0,0-2.84.77l-18.76,33.42a2.28,2.28,0,0,0,.72,3,2,2,0,0,0,2.84-.76l18.76-33.42A2.29,2.29,0,0,0,122.35,171.37Z"/><path class="cls-4" d="M142.4,24.94a33.22,33.22,0,0,0-61.78,0H68.94a22.74,22.74,0,0,0,0,45.47h85.14a22.74,22.74,0,0,0,0-45.47Z"/><path class="cls-5" d="M122.31,5.81a33.33,33.33,0,0,0-20,19.18H90.61a22.71,22.71,0,1,0,0,45.42H68.94a22.74,22.74,0,0,1,0-45.47H80.62A33.25,33.25,0,0,1,111.48,4,32.66,32.66,0,0,1,122.31,5.81Z"/><circle class="cls-6" cx="111.54" cy="37.18" r="13.6"/><path class="cls-7" d="M215.34,128.41a13,13,0,0,0,18.23-2.2l27.7-35.32a13,13,0,0,0-20.43-16l-27.7,35.31A13,13,0,0,0,215.34,128.41Z"/><path class="cls-4" d="M167.45,179.91l-4.63,5.87a15.75,15.75,0,0,1-24.77-19.46l4.63-5.87,24.71-2.14Z"/><path class="cls-5" d="M144.54,185.61a16.09,16.09,0,0,0,1.81,5.7,15.72,15.72,0,0,1-8.3-24.94l4.63-5.86,24.71-2.15.06,8.47-15,1.29L147.81,174A15.8,15.8,0,0,0,144.54,185.61Z"/><path class="cls-8" d="M233.85,95.29l-66.4,84.62-24.77-19.46L208.91,76"/><path class="cls-9" d="M218.79,83.5l-66.41,84.62-9.76-7.61,66.24-84.46"/><path class="cls-10" d="M240.34,84.17l24-36.67a10.28,10.28,0,0,0-16.13-12.63L218.33,67"/><path class="cls-7" d="M262.11,33.79c-.39-.33-1.41.23-2.7,1.3A40.1,40.1,0,0,0,254.78,40L227.25,74l-8.92-7,29.91-32.1a10.17,10.17,0,0,1,13.87-1.08Z"/><path class="cls-10" d="M240.34,84.17l-22-17.26a8,8,0,1,0-9.81,12.53l22,17.26a8,8,0,0,0,9.82-12.53Z"/><path class="cls-7" d="M216.47,82.71a7.75,7.75,0,0,0,3,5.3l-10.94-8.57a7.76,7.76,0,0,1-3-5.31,7.95,7.95,0,0,1,12.8-7.22l10.95,8.58a8,8,0,0,0-11.17,1.35A7.79,7.79,0,0,0,216.47,82.71Z"/><path class="cls-11" d="M109.05,19.58a17.6,17.6,0,1,0,17.61,17.6A17.63,17.63,0,0,0,109.05,19.58Zm0,27.19a9.59,9.59,0,1,1,9.6-9.59A9.59,9.59,0,0,1,109.05,46.77Z"/><path class="cls-11" d="M134.72,191.31c2.71,1.35,10.22,4.51,13.26,4.51a17.14,17.14,0,0,0,2.43-.17,19.48,19.48,0,0,0,13.14-7.39L209,130.32a8.59,8.59,0,0,0,1.12,1V232.33a32.36,32.36,0,0,1-32.32,32.32H65.61a4,4,0,0,0,0,8H177.77a40.4,40.4,0,0,0,40.34-40.33V135a15.12,15.12,0,0,0,2.76.23,17,17,0,0,0,13.37-6.49l27.7-35.32a16.61,16.61,0,0,0,3.5-12.52,17,17,0,0,0-6.37-11.34h0a16,16,0,0,0-5-2.71l11.22-17.1a14.25,14.25,0,0,0-22.34-17.54l-4.29,4.62a4,4,0,1,0,5.82,5.48l4.28-4.63a6.29,6.29,0,0,1,8.52-.68,6.26,6.26,0,0,1,1.36,8.41L237,78.42l-15.17-11.9L244.4,42.26c1.52-1.64-4,1.69-5.64.17s1.29-7.28-.17-5.65l-21.44,23a40.53,40.53,0,0,0-39.32-31.54H170A26.58,26.58,0,0,0,151.71,21h-9.09a37.16,37.16,0,0,0-66.91,0H66.63a26.6,26.6,0,0,0-18.28,7.27h-8A40.4,40.4,0,0,0,0,68.6V232.38a40.4,40.4,0,0,0,40.34,40.34h28c2.2,0-1.86-1.81-1.86-4s1.29-4-1-4H40.28A32.36,32.36,0,0,1,8,232.38V68.55A32.36,32.36,0,0,1,40.28,36.22h2a27.13,27.13,0,0,0-2.59,11.45A26.76,26.76,0,0,0,66.46,74.41h85.13a26.71,26.71,0,0,0,24.15-38.19h2a32.46,32.46,0,0,1,31.54,25.16,11.79,11.79,0,0,0-7.73,4.46,12,12,0,0,0-2.48,8.8,13.33,13.33,0,0,0,.84,3.27l-67.47,86a19.59,19.59,0,0,0-4.06,14.56,24.28,24.28,0,0,0,.56,3m22.68-115H66.52a18.73,18.73,0,1,1,0-37.46H78.19a4,4,0,0,0,3.73-2.54,29.18,29.18,0,0,1,54.27,0,4,4,0,0,0,3.72,2.54h11.68a18.73,18.73,0,0,1,.06,37.46Zm56.19,4.35a3.82,3.82,0,0,1,2.65-1.47c.17,0,.34-.06.51-.06a3.79,3.79,0,0,1,2.43.85l22,17.26h0A3.89,3.89,0,0,1,236.9,90a4.17,4.17,0,0,1-.79,2.93,4,4,0,0,1-5.53.68l-22-17.27a4.14,4.14,0,0,1-.73-5.58Zm-43.5,103.52-6.09-4.79L202,113.79a4,4,0,1,0-6.26-4.9l-43.78,55.68-6.09-4.8L205.36,84l18.5,14.5Zm-14.89,13.49a11.8,11.8,0,0,1-8.69-2.43,11.48,11.48,0,0,1-4.4-7.84,11.8,11.8,0,0,1,2.43-8.69l2.14-2.76,18.5,14.49-2.14,2.77A11.9,11.9,0,0,1,149.45,187.76ZM255.68,88.41,228,123.72a9,9,0,0,1-12.64,1.53A10.44,10.44,0,0,1,214,124l17-21.72a11.32,11.32,0,0,0,1.92.17A12,12,0,0,0,244.85,89a11.77,11.77,0,0,0-1.92-5.19L249.42,74a9,9,0,0,1,4.74,1.86,8.78,8.78,0,0,1,3.38,6,8.93,8.93,0,0,1-1.86,6.61Z"/></svg>