<svg id="Layer_1" data-name="Layer 1" xmlns="http://www.w3.org/2000/svg" viewBox="0 0 267.65 272.72"><defs><style>.cls-1{fill:#f4fbfe;}.cls-2{fill:#6aaa43;}.cls-3{fill:#fff;}.cls-4{fill:#ffe07e;}.cls-5{fill:#ffd067;}.cls-6{fill:#385e7e;}.cls-7{fill:#8ab2df;}.cls-8{fill:#e27f83;}.cls-9{fill:#c9656e;}.cls-10{fill:#a2c5e8;}.cls-11{fill:#010101;}</style></defs><path class="cls-1" d="M175.34,269.73H46.15A39.68,39.68,0,0,1,6.49,230.07V72.83A39.68,39.68,0,0,1,46.15,33.17H175.29A39.68,39.68,0,0,1,215,72.83V230A39.61,39.61,0,0,1,175.34,269.73Z"/><circle class="cls-2" cx="111.97" cy="160.6" r="72.7"/><path class="cls-3" d="M158.5,173.35a2.14,2.14,0,0,0-3-.55l-21.37,14.7a9.67,9.67,0,0,0-11-.16L81.15,127.16a2.14,2.14,0,0,0-3-.53l-11.39,8a2.14,2.14,0,0,0,2.45,3.5l9.64-6.74,41.33,59.15a9.57,9.57,0,0,0-1.36,4.95,9.73,9.73,0,1,0,18.2-4.76L158,176.31A2.13,2.13,0,0,0,158.5,173.35Zm-29.93,27.56a5.46,5.46,0,1,1,5.46-5.46A5.47,5.47,0,0,1,128.57,200.91Z"/><path class="cls-3" d="M128.57,205.7a10.25,10.25,0,0,1-9-15.17L78.75,132.09l-9.21,6.43a2.65,2.65,0,0,1-2,.44,2.7,2.7,0,0,1-1.72-1.1,2.66,2.66,0,0,1,.66-3.7l11.39-8a2.66,2.66,0,0,1,3.7.66l41.77,59.77a10.38,10.38,0,0,1,10.81.23l21.07-14.5a2.66,2.66,0,0,1,3.7.69h0a2.65,2.65,0,0,1-.68,3.7l-20.51,14.11a10.24,10.24,0,0,1-9.17,14.84ZM79,130.62l41.83,59.85-.18.3a9.2,9.2,0,1,0,15.93.18l-.24-.42,21.3-14.65a1.61,1.61,0,0,0,.67-1,1.64,1.64,0,0,0-.26-1.2,1.61,1.61,0,0,0-2.23-.42l-21.67,14.91-.3-.21a9.33,9.33,0,0,0-10.36-.15l-.43.29L80.72,127.46a1.61,1.61,0,0,0-2.24-.39L67.1,135a1.61,1.61,0,0,0,.63,2.9,1.55,1.55,0,0,0,1.2-.27Zm49.56,70.82a6,6,0,1,1,6-6A6,6,0,0,1,128.57,201.44Zm0-10.92a4.93,4.93,0,1,0,4.93,4.93A4.93,4.93,0,0,0,128.57,190.52Z"/><path class="cls-3" d="M130.32,164.81a3.26,3.26,0,0,1-4.52-.86h0l-6.67,4.46c-1.45,1-1.69,3.16-.55,4.88l6.56,9.82a3.93,3.93,0,0,0,3.18,1.83,2.78,2.78,0,0,0,1.55-.46l19.34-12.92c1.44-1,1.69-3.16.54-4.89l-6.56-9.81A3.93,3.93,0,0,0,140,155a2.76,2.76,0,0,0-1.55.46l-7.26,4.84A3.25,3.25,0,0,1,130.32,164.81Zm5.67-2.54,3.92-2.62,6,9L128.4,180.32l-6-9,3.33-2.22a7.56,7.56,0,0,0,2.76.52,7.42,7.42,0,0,0,4.23-1.31A7.52,7.52,0,0,0,136,162.27Z"/><path class="cls-3" d="M128.31,185.47a4.47,4.47,0,0,1-3.62-2.07l-6.55-9.81a4.61,4.61,0,0,1-.79-3.08,3.43,3.43,0,0,1,1.47-2.54L126,163.2l.29.48a2.8,2.8,0,0,0,3.77.69h0a2.74,2.74,0,0,0,.74-3.75l-.29-.43,7.69-5.14a3.32,3.32,0,0,1,1.85-.55,4.47,4.47,0,0,1,3.61,2.06l6.56,9.82c1.31,2,1,4.49-.69,5.62l-19.34,12.92A3.29,3.29,0,0,1,128.31,185.47Zm-2.63-20.81-6.27,4.19a2.37,2.37,0,0,0-1,1.78A3.61,3.61,0,0,0,119,173l6.56,9.82c1,1.42,2.81,2,4,1.22l19.34-12.92c1.21-.8,1.39-2.67.4-4.15l-6.56-9.82c-1-1.42-2.82-2-4-1.22l-6.85,4.57a3.8,3.8,0,0,1-1.28,4.74h0A3.89,3.89,0,0,1,125.68,164.66Zm2.57,16.39-6.58-9.85,4-2.68.26.11a7,7,0,0,0,9.53-6.37V162l4.59-3.07,6.58,9.86Zm-5.11-9.56,5.41,8.1,16.63-11.11-5.41-8.1-3.26,2.18a8,8,0,0,1-10.71,7.15Z"/><path class="cls-3" d="M112.12,164.67a3.93,3.93,0,0,0,3.17,1.83,2.78,2.78,0,0,0,1.55-.46l19.34-12.92c1.45-1,1.69-3.16.54-4.88l-6.55-9.82a3.93,3.93,0,0,0-3.18-1.83,2.78,2.78,0,0,0-1.55.46l-7.25,4.84a3.25,3.25,0,0,1-5.41,3.62h0L106.1,150c-1.45,1-1.69,3.16-.54,4.89Zm.6-14A7.51,7.51,0,0,0,123,143.83l3.92-2.62,6,9-17.52,11.69-6-9Z"/><path class="cls-3" d="M115.29,167a4.47,4.47,0,0,1-3.61-2.06l-6.56-9.82a4.61,4.61,0,0,1-.79-3.08,3.44,3.44,0,0,1,1.48-2.54l7.14-4.77.28.48a2.81,2.81,0,0,0,3.78.69,2.75,2.75,0,0,0,.74-3.75l-.29-.43,7.69-5.14a3.26,3.26,0,0,1,1.84-.55,4.47,4.47,0,0,1,3.62,2.07l6.55,9.81A4.61,4.61,0,0,1,138,151a3.41,3.41,0,0,1-1.48,2.54l-19.34,12.92A3.26,3.26,0,0,1,115.29,167Zm-2.62-20.81-6.27,4.19a2.41,2.41,0,0,0-1,1.78,3.56,3.56,0,0,0,.62,2.37l6.56,9.82c1,1.43,2.81,2,4,1.22l19.34-12.92a2.37,2.37,0,0,0,1-1.78,3.56,3.56,0,0,0-.62-2.37l-6.55-9.82c-1-1.43-2.82-2-4-1.22l-6.85,4.57a3.81,3.81,0,0,1-1.29,4.74A3.87,3.87,0,0,1,112.67,146.22Zm2.57,16.4-6.59-9.86,4-2.67.25.1a7,7,0,0,0,9.54-6.37v-.28l4.59-3.06,6.59,9.85Zm-5.12-9.57,5.41,8.1L132.16,150l-5.41-8.1-3.26,2.18a8.08,8.08,0,0,1-3.48,6.21,8.16,8.16,0,0,1-7.22.94Z"/><path class="cls-4" d="M142.4,24.94a33.22,33.22,0,0,0-61.78,0H68.94a22.74,22.74,0,0,0,0,45.47h85.14a22.74,22.74,0,0,0,0-45.47Z"/><path class="cls-5" d="M122.31,5.81a33.33,33.33,0,0,0-20,19.18H90.61a22.71,22.71,0,1,0,0,45.42H68.94a22.74,22.74,0,0,1,0-45.47H80.62A33.25,33.25,0,0,1,111.48,4,32.66,32.66,0,0,1,122.31,5.81Z"/><circle class="cls-6" cx="111.54" cy="37.18" r="13.6"/><path class="cls-7" d="M215.34,128.41a13,13,0,0,0,18.23-2.2l27.7-35.32a13,13,0,0,0-20.43-16l-27.7,35.31A13,13,0,0,0,215.34,128.41Z"/><path class="cls-4" d="M167.45,179.91l-4.63,5.87a15.75,15.75,0,0,1-24.77-19.46l4.63-5.87,24.71-2.14Z"/><path class="cls-5" d="M144.54,185.61a16.09,16.09,0,0,0,1.81,5.7,15.72,15.72,0,0,1-8.3-24.94l4.63-5.86,24.71-2.15.06,8.47-15,1.29L147.81,174A15.8,15.8,0,0,0,144.54,185.61Z"/><path class="cls-8" d="M233.85,95.29l-66.4,84.62-24.77-19.46L208.91,76"/><path class="cls-9" d="M218.79,83.5l-66.41,84.62-9.76-7.61,66.24-84.46"/><path class="cls-10" d="M240.34,84.17l24-36.67a10.28,10.28,0,0,0-16.13-12.63L218.33,67"/><path class="cls-7" d="M262.11,33.79c-.39-.33-1.41.23-2.7,1.3A40.1,40.1,0,0,0,254.78,40L227.25,74l-8.92-7,29.91-32.1a10.17,10.17,0,0,1,13.87-1.08Z"/><path class="cls-10" d="M240.34,84.17l-22-17.26a8,8,0,1,0-9.81,12.53l22,17.26a8,8,0,0,0,9.82-12.53Z"/><path class="cls-7" d="M216.47,82.71a7.75,7.75,0,0,0,3,5.3l-10.94-8.57a7.76,7.76,0,0,1-3-5.31,7.95,7.95,0,0,1,12.8-7.22l10.95,8.58a8,8,0,0,0-11.17,1.35A7.79,7.79,0,0,0,216.47,82.71Z"/><path class="cls-11" d="M109.05,19.58a17.6,17.6,0,1,0,17.61,17.6A17.63,17.63,0,0,0,109.05,19.58Zm0,27.19a9.59,9.59,0,1,1,9.6-9.59A9.59,9.59,0,0,1,109.05,46.77Z"/><path class="cls-11" d="M134.72,191.31c2.71,1.35,10.22,4.51,13.26,4.51a17.14,17.14,0,0,0,2.43-.17,19.48,19.48,0,0,0,13.14-7.39L209,130.32a8.59,8.59,0,0,0,1.12,1V232.33a32.36,32.36,0,0,1-32.32,32.32H65.61a4,4,0,0,0,0,8H177.77a40.4,40.4,0,0,0,40.34-40.33V135a15.12,15.12,0,0,0,2.76.23,17,17,0,0,0,13.37-6.49l27.7-35.32a16.61,16.61,0,0,0,3.5-12.52,17,17,0,0,0-6.37-11.34h0a16,16,0,0,0-5-2.71l11.22-17.1a14.25,14.25,0,0,0-22.34-17.54l-4.29,4.62a4,4,0,1,0,5.82,5.48l4.28-4.63a6.29,6.29,0,0,1,8.52-.68,6.26,6.26,0,0,1,1.36,8.41L237,78.42l-15.17-11.9L244.4,42.26c1.52-1.64-4,1.69-5.64.17s1.29-7.28-.17-5.65l-21.44,23a40.53,40.53,0,0,0-39.32-31.54H170A26.58,26.58,0,0,0,151.71,21h-9.09a37.16,37.16,0,0,0-66.91,0H66.63a26.6,26.6,0,0,0-18.28,7.27h-8A40.4,40.4,0,0,0,0,68.6V232.38a40.4,40.4,0,0,0,40.34,40.34h28c2.2,0-1.86-1.81-1.86-4s1.29-4-1-4H40.28A32.36,32.36,0,0,1,8,232.38V68.55A32.36,32.36,0,0,1,40.28,36.22h2a27.13,27.13,0,0,0-2.59,11.45A26.76,26.76,0,0,0,66.46,74.41h85.13a26.71,26.71,0,0,0,24.15-38.19h2a32.46,32.46,0,0,1,31.54,25.16,11.79,11.79,0,0,0-7.73,4.46,12,12,0,0,0-2.48,8.8,13.33,13.33,0,0,0,.84,3.27l-67.47,86a19.59,19.59,0,0,0-4.06,14.56,24.28,24.28,0,0,0,.56,3m22.68-115H66.52a18.73,18.73,0,1,1,0-37.46H78.19a4,4,0,0,0,3.73-2.54,29.18,29.18,0,0,1,54.27,0,4,4,0,0,0,3.72,2.54h11.68a18.73,18.73,0,0,1,.06,37.46Zm56.19,4.35a3.82,3.82,0,0,1,2.65-1.47c.17,0,.34-.06.51-.06a3.79,3.79,0,0,1,2.43.85l22,17.26h0A3.89,3.89,0,0,1,236.9,90a4.17,4.17,0,0,1-.79,2.93,4,4,0,0,1-5.53.68l-22-17.27a4.14,4.14,0,0,1-.73-5.58Zm-43.5,103.52-6.09-4.79L202,113.79a4,4,0,1,0-6.26-4.9l-43.78,55.68-6.09-4.8L205.36,84l18.5,14.5Zm-14.89,13.49a11.8,11.8,0,0,1-8.69-2.43,11.48,11.48,0,0,1-4.4-7.84,11.8,11.8,0,0,1,2.43-8.69l2.14-2.76,18.5,14.49-2.14,2.77A11.9,11.9,0,0,1,149.45,187.76ZM255.68,88.41,228,123.72a9,9,0,0,1-12.64,1.53A10.44,10.44,0,0,1,214,124l17-21.72a11.32,11.32,0,0,0,1.92.17A12,12,0,0,0,244.85,89a11.77,11.77,0,0,0-1.92-5.19L249.42,74a9,9,0,0,1,4.74,1.86,8.78,8.78,0,0,1,3.38,6,8.93,8.93,0,0,1-1.86,6.61Z"/></svg>