<svg id="Layer_1" data-name="Layer 1" xmlns="http://www.w3.org/2000/svg" viewBox="0 0 267.65 272.72"><defs><style>.cls-1{fill:#f4fbfe;}.cls-2{fill:#f48e30;}.cls-3{fill:#fff;}.cls-4{fill:#ffe07e;}.cls-5{fill:#ffd067;}.cls-6{fill:#385e7e;}.cls-7{fill:#8ab2df;}.cls-8{fill:#e27f83;}.cls-9{fill:#c9656e;}.cls-10{fill:#a2c5e8;}.cls-11{fill:#010101;}</style></defs><path class="cls-1" d="M175.34,269.73H46.15A39.68,39.68,0,0,1,6.49,230.07V72.83A39.68,39.68,0,0,1,46.15,33.17H175.29A39.68,39.68,0,0,1,215,72.83V230A39.61,39.61,0,0,1,175.34,269.73Z"/><circle class="cls-2" cx="108.81" cy="161.6" r="72.7"/><path class="cls-3" d="M117.34,126.55c-1.2-.06-1.75.81-1.77,2,0,.51,0,1,0,1.51h.06a19,19,0,0,0,0,2,1.5,1.5,0,0,0,1.72,1.45,1.45,1.45,0,0,0,1.57-1.56c0-1.09,0-2.18,0-3.27S118.52,126.6,117.34,126.55Z"/><path class="cls-3" d="M113.67,133.59a21.77,21.77,0,0,0-3.52,0,1.65,1.65,0,0,0-1.67,1.83,1.62,1.62,0,0,0,1.85,1.62c.59,0,1.18,0,1.77,0s1,0,1.51,0c1.09,0,1.76-.51,1.77-1.66A1.65,1.65,0,0,0,113.67,133.59Z"/><path class="cls-3" d="M124.66,133.66a19.57,19.57,0,0,0-3.75-.07,1.64,1.64,0,0,0-1.73,1.76c0,1.24.78,1.75,2,1.7.5,0,1,0,1.51,0s1.17,0,1.76,0a1.48,1.48,0,0,0,1.58-1.56A1.57,1.57,0,0,0,124.66,133.66Z"/><path class="cls-3" d="M118.93,140.48h0c0-.59,0-1.17,0-1.75a1.65,1.65,0,0,0-3.29,0,32,32,0,0,0-.05,3.25c0,1.19.34,2.2,1.84,2.11,1.34-.07,1.58-1,1.53-2.09C118.92,141.48,118.93,141,118.93,140.48Z"/><path class="cls-3" d="M145.79,159.74l-1.33-1.2-6.23,8.85,6.23,5.66-6.1,5.32,8.73,5.55-3.37,5.8,4.89,6.08,1.36-2,.41-.6a26.16,26.16,0,0,0-4.59-33.48Z"/><path class="cls-3" d="M139.11,190.33l3.58-6.16-8.25-5.25,5.86-5.1-6.5-5.91,5.37-7.64-1.17-.93c-.44-.35-.9-.69-1.36-1a26.82,26.82,0,0,0-23.8-3.45,6.86,6.86,0,0,0-3-3.2,2,2,0,0,1-1.24-2.08c.08-2.43,0-4.86,0-7.28,0-3.85-2-5.94-5.78-6-.91,0-1.28-.18-1.51-1.09-.73-2.91-2.67-4.38-5.69-4.12-1.13.09-1.18-.31-1.26-1.21-.4-4.22-.29-6.16-5.06-6.16l-.94,0h.18s-2.61.14-.18,0A3.63,3.63,0,0,0,85,125.19c-1.2,1.7-.48,4.37-1.45,5.44s-3.44.45-5.21,1.61c-.49.32-1.36,1-1.46,1.56,0,.1-.12,4.4-.13,5.26-.08,6.61,0,13.23,0,19.84,0,.61.33,1.32-.43,2-2-2.28-3.86-4.6-5.92-6.77a4.85,4.85,0,0,0-6.41-.74A4.94,4.94,0,0,0,62,159.31c.41,1.18.86,2.35,1.29,3.52,1.83,5,3.67,9.92,5.7,15.44l-.14-.07a11.83,11.83,0,0,1,1.4,3,11,11,0,0,1,.58,1.37c.06.15.13.29.19.44a40.73,40.73,0,0,0,4.73,6A26.21,26.21,0,0,0,88,194.33a20.47,20.47,0,0,0,10.08-1.25,26.83,26.83,0,0,0,44.17,3.17l.79-1ZM101.47,141.8c0-1.14.37-2,1.68-2s1.89.86,1.89,2.13v7.28c-1.12-1.21-3.6-.86-3.57-3.11C101.49,144.65,101.48,143.23,101.47,141.8ZM96,134.4c1.37,0,2,1,1.94,2.36,0,2.17-.15,4.34,0,6.49.2,2.52-.15,4.44-3.63,4.43,0-3.63,0-7.29,0-10.94C94.33,135.48,94.77,134.44,96,134.4Zm9,42.28c0,5.4-2,9.45-5.63,11.84a13.52,13.52,0,0,1-2.85,1.41,17.28,17.28,0,0,1-2.28.64c-9.3,1.89-18-3-21.52-12.33-2.45-6.37-4.76-12.79-7.14-19.18-.38-1-1-2.07.37-2.84s2,.41,2.62,1.19q3.78,4.38,7.51,8.81c.75.89,1.4,2.1,2.82,1.56s1.15-1.88,1.15-3V138.11a16.81,16.81,0,0,1,.06-2A1.73,1.73,0,0,1,82,134.39a1.85,1.85,0,0,1,1.78,1.8,17.18,17.18,0,0,1,0,1.76c0,7,0,14.07,0,21.1,0,1.31,0,2.78,1.7,2.76s1.77-1.47,1.77-2.78c0-4.86,0-9.72,0-14.58,0-4.52,0-9,0-13.57,0-1.46-.4-3.51,1.74-3.51s1.85,2.1,1.88,3.65c0,.75,0,1.51,0,2.26q0,12.94,0,25.88c0,1.59.26,3.25,2.26,2.55s1.54.14,1.39,1.39a9.56,9.56,0,0,0,1.92,7.2A7.55,7.55,0,0,0,99,172.36a7.77,7.77,0,0,0,3.21.74C105.56,173.17,105.05,174.75,105,176.68Zm-1.83-6.8a5.16,5.16,0,0,1-2.74-.78,5.39,5.39,0,0,1-2.17-2.61,5.31,5.31,0,0,1,.1-4.08c.82-1.88.63-2.86-1.38-3.64a4,4,0,0,1-2.61-4.65,4.39,4.39,0,0,1,8.32-1.26c.69,1.48,1.38,2.35,3.24,1.62a2.73,2.73,0,0,1,3.44,1.4l.16.32a2.62,2.62,0,0,1-.49,3.16,3.24,3.24,0,0,0-.9,1.28,3.82,3.82,0,0,0,.16,2.51A5.3,5.3,0,0,1,103.21,169.88Z"/><path class="cls-4" d="M142.4,24.94a33.22,33.22,0,0,0-61.78,0H68.94a22.74,22.74,0,0,0,0,45.47h85.14a22.74,22.74,0,0,0,0-45.47Z"/><path class="cls-5" d="M122.31,5.81a33.33,33.33,0,0,0-20,19.18H90.61a22.71,22.71,0,1,0,0,45.42H68.94a22.74,22.74,0,0,1,0-45.47H80.62A33.25,33.25,0,0,1,111.48,4,32.66,32.66,0,0,1,122.31,5.81Z"/><circle class="cls-6" cx="111.54" cy="37.18" r="13.6"/><path class="cls-7" d="M215.34,128.41a13,13,0,0,0,18.23-2.2l27.7-35.32a13,13,0,0,0-20.43-16l-27.7,35.31A13,13,0,0,0,215.34,128.41Z"/><path class="cls-4" d="M167.45,179.91l-4.63,5.87a15.75,15.75,0,0,1-24.77-19.46l4.63-5.87,24.71-2.14Z"/><path class="cls-5" d="M144.54,185.61a16.09,16.09,0,0,0,1.81,5.7,15.72,15.72,0,0,1-8.3-24.94l4.63-5.86,24.71-2.15.06,8.47-15,1.29L147.81,174A15.8,15.8,0,0,0,144.54,185.61Z"/><path class="cls-8" d="M233.85,95.29l-66.4,84.62-24.77-19.46L208.91,76"/><path class="cls-9" d="M218.79,83.5l-66.41,84.62-9.76-7.61,66.24-84.46"/><path class="cls-10" d="M240.34,84.17l24-36.67a10.28,10.28,0,0,0-16.13-12.63L218.33,67"/><path class="cls-7" d="M262.11,33.79c-.39-.33-1.41.23-2.7,1.3A40.1,40.1,0,0,0,254.78,40L227.25,74l-8.92-7,29.91-32.1a10.17,10.17,0,0,1,13.87-1.08Z"/><path class="cls-10" d="M240.34,84.17l-22-17.26a8,8,0,1,0-9.81,12.53l22,17.26a8,8,0,0,0,9.82-12.53Z"/><path class="cls-7" d="M216.47,82.71a7.75,7.75,0,0,0,3,5.3l-10.94-8.57a7.76,7.76,0,0,1-3-5.31,7.95,7.95,0,0,1,12.8-7.22l10.95,8.58a8,8,0,0,0-11.17,1.35A7.79,7.79,0,0,0,216.47,82.71Z"/><path class="cls-11" d="M109.05,19.58a17.6,17.6,0,1,0,17.61,17.6A17.63,17.63,0,0,0,109.05,19.58Zm0,27.19a9.59,9.59,0,1,1,9.6-9.59A9.59,9.59,0,0,1,109.05,46.77Z"/><path class="cls-11" d="M134.72,191.31c2.71,1.35,10.22,4.51,13.26,4.51a17.14,17.14,0,0,0,2.43-.17,19.48,19.48,0,0,0,13.14-7.39L209,130.32a8.59,8.59,0,0,0,1.12,1V232.33a32.36,32.36,0,0,1-32.32,32.32H65.61a4,4,0,0,0,0,8H177.77a40.4,40.4,0,0,0,40.34-40.33V135a15.12,15.12,0,0,0,2.76.23,17,17,0,0,0,13.37-6.49l27.7-35.32a16.61,16.61,0,0,0,3.5-12.52,17,17,0,0,0-6.37-11.34h0a16,16,0,0,0-5-2.71l11.22-17.1a14.25,14.25,0,0,0-22.34-17.54l-4.29,4.62a4,4,0,1,0,5.82,5.48l4.28-4.63a6.29,6.29,0,0,1,8.52-.68,6.26,6.26,0,0,1,1.36,8.41L237,78.42l-15.17-11.9L244.4,42.26c1.52-1.64-4,1.69-5.64.17s1.29-7.28-.17-5.65l-21.44,23a40.53,40.53,0,0,0-39.32-31.54H170A26.58,26.58,0,0,0,151.71,21h-9.09a37.16,37.16,0,0,0-66.91,0H66.63a26.6,26.6,0,0,0-18.28,7.27h-8A40.4,40.4,0,0,0,0,68.6V232.38a40.4,40.4,0,0,0,40.34,40.34h28c2.2,0-1.86-1.81-1.86-4s1.29-4-1-4H40.28A32.36,32.36,0,0,1,8,232.38V68.55A32.36,32.36,0,0,1,40.28,36.22h2a27.13,27.13,0,0,0-2.59,11.45A26.76,26.76,0,0,0,66.46,74.41h85.13a26.71,26.71,0,0,0,24.15-38.19h2a32.46,32.46,0,0,1,31.54,25.16,11.79,11.79,0,0,0-7.73,4.46,12,12,0,0,0-2.48,8.8,13.33,13.33,0,0,0,.84,3.27l-67.47,86a19.59,19.59,0,0,0-4.06,14.56,24.28,24.28,0,0,0,.56,3m22.68-115H66.52a18.73,18.73,0,1,1,0-37.46H78.19a4,4,0,0,0,3.73-2.54,29.18,29.18,0,0,1,54.27,0,4,4,0,0,0,3.72,2.54h11.68a18.73,18.73,0,0,1,.06,37.46Zm56.19,4.35a3.82,3.82,0,0,1,2.65-1.47c.17,0,.34-.06.51-.06a3.79,3.79,0,0,1,2.43.85l22,17.26h0A3.89,3.89,0,0,1,236.9,90a4.17,4.17,0,0,1-.79,2.93,4,4,0,0,1-5.53.68l-22-17.27a4.14,4.14,0,0,1-.73-5.58Zm-43.5,103.52-6.09-4.79L202,113.79a4,4,0,1,0-6.26-4.9l-43.78,55.68-6.09-4.8L205.36,84l18.5,14.5Zm-14.89,13.49a11.8,11.8,0,0,1-8.69-2.43,11.48,11.48,0,0,1-4.4-7.84,11.8,11.8,0,0,1,2.43-8.69l2.14-2.76,18.5,14.49-2.14,2.77A11.9,11.9,0,0,1,149.45,187.76ZM255.68,88.41,228,123.72a9,9,0,0,1-12.64,1.53A10.44,10.44,0,0,1,214,124l17-21.72a11.32,11.32,0,0,0,1.92.17A12,12,0,0,0,244.85,89a11.77,11.77,0,0,0-1.92-5.19L249.42,74a9,9,0,0,1,4.74,1.86,8.78,8.78,0,0,1,3.38,6,8.93,8.93,0,0,1-1.86,6.61Z"/></svg>