<svg id="Layer_1" data-name="Layer 1" xmlns="http://www.w3.org/2000/svg" viewBox="0 0 267.65 272.72"><defs><style>.cls-1{fill:#f4fbfe;}.cls-2{fill:#6aaa43;}.cls-3{fill:#fff;}.cls-4{fill:#ffe07e;}.cls-5{fill:#ffd067;}.cls-6{fill:#385e7e;}.cls-7{fill:#8ab2df;}.cls-8{fill:#e27f83;}.cls-9{fill:#c9656e;}.cls-10{fill:#a2c5e8;}.cls-11{fill:#010101;}</style></defs><path class="cls-1" d="M175.34,269.73H46.15A39.68,39.68,0,0,1,6.49,230.07V72.83A39.68,39.68,0,0,1,46.15,33.17H175.29A39.68,39.68,0,0,1,215,72.83V230A39.61,39.61,0,0,1,175.34,269.73Z"/><circle class="cls-2" cx="110.05" cy="161.6" r="72.7"/><path class="cls-3" d="M82.91,145l.24-.17a2.38,2.38,0,0,1,3.24.63l14,24.31c.18.31,1.26,2,3.95.79a2.48,2.48,0,0,0,.73-3.49L91,142.62a1.19,1.19,0,0,0-.09-.15,7.78,7.78,0,0,0-10.77-2.18l-.24.16a7.79,7.79,0,0,0-2.17,10.72L86.58,166a2.7,2.7,0,0,0,4.63-2.77l-8.86-14.86-.07-.11a2.38,2.38,0,0,1-.36-1.8A2.28,2.28,0,0,1,82.91,145Z"/><path class="cls-3" d="M154.7,160.12a5.13,5.13,0,0,1-10.25,0c0-2.83,5.12-9.75,5.12-9.75S154.7,157.29,154.7,160.12Z"/><path class="cls-3" d="M127,118.49l-3.51,5.15H126v4.59a8.06,8.06,0,0,1-2.39,5.51l-1.41,1.52a7.86,7.86,0,0,0-2.27,5.37v8.21h1.93v-8.21a6,6,0,0,1,1.77-4.09L125,135a10,10,0,0,0,2.89-6.8v-4.59h2.4Z"/><path class="cls-3" d="M142.27,118.33l-3.52,5.14h2.52v4.59a8.13,8.13,0,0,1-2.38,5.52l-1.42,1.51a7.92,7.92,0,0,0-2.27,5.37v8.22h1.93v-8.22a6,6,0,0,1,1.77-4.08l1.41-1.52a10,10,0,0,0,2.89-6.8v-4.59h2.41Z"/><path class="cls-3" d="M159.18,123.52l-3.34-5.15-3.51,5.15h2.51v4.59a8.09,8.09,0,0,1-2.38,5.51l-1.41,1.52a7.87,7.87,0,0,0-2.28,5.36v8.22h1.93V140.5a6,6,0,0,1,1.77-4.08l1.41-1.51a10,10,0,0,0,2.89-6.8v-4.59Z"/><path class="cls-3" d="M130.07,160.58c-.65-.27-1.33-.52-2.08-.77a2.66,2.66,0,0,0-1.28-.08,3.48,3.48,0,0,1,.11.8,5.49,5.49,0,0,1-1.52,3.8,2.72,2.72,0,0,0,1,.62,11.66,11.66,0,0,1,4.46,2.22,4.88,4.88,0,0,1-1.18.84c-1.83.68-4.25,1.57-7.27,2.41a67.17,67.17,0,0,1-6.8,1.11v0c-2.1.25-4.42.46-7,.58h-.07c-.65,0-1.32.06-2,.08l-1.08,0-2.68,0a90.69,90.69,0,0,1-19.25-1.8c-3-.84-5.45-1.73-7.28-2.41a4.78,4.78,0,0,1-1.17-.84c.42-.44,1.67-1.31,4.46-2.22a2.7,2.7,0,0,0-1.68-5.14c-5.51,1.8-8.3,4.27-8.3,7.34a4.83,4.83,0,0,0,.2,1.37,2.49,2.49,0,0,0-.2,1,33.92,33.92,0,0,0,17.91,30s0,0,0,.06a33,33,0,0,0,12.07,3.64l.25,0,1.41.11,1.08,0,.62,0H103c.37,0,.72,0,1.08,0l.54,0a33.28,33.28,0,0,0,24.13-12.21l-.1,0a34,34,0,0,0,7.68-21.56,2.68,2.68,0,0,0-.2-1,4.83,4.83,0,0,0,.2-1.37,4.67,4.67,0,0,0-.13-1.11,5.17,5.17,0,0,1-.57,0A5.53,5.53,0,0,1,130.07,160.58Zm-25.89,37.34h-.27l-1,0h-.3c-.44,0-.88,0-1.32-.05l-.9-.06-.21,0a28.29,28.29,0,0,1-25-24.31,33.13,33.13,0,0,0,5.3,1.77l1.57.38a75.19,75.19,0,0,0,20.37,2.71h.18l1.39-.1,0,.09a75,75,0,0,0,19.72-2.7l1.58-.38a33,33,0,0,0,5.29-1.77A28.27,28.27,0,0,1,104.18,197.92Z"/><path class="cls-3" d="M136.1,150.37s-5.12,6.92-5.12,9.75v0a5.12,5.12,0,0,0,5.12,5.08,4.58,4.58,0,0,0,.53,0,5.12,5.12,0,0,0,4.6-5.09C141.23,157.29,136.1,150.37,136.1,150.37Z"/><path class="cls-3" d="M115.31,157.52c-3.59-.45-6.82-.64-8.76-.73a2.7,2.7,0,0,0-.22,5.4c3.22.14,6.09.39,8.62.72a5.54,5.54,0,0,1-.54-2.38A8,8,0,0,1,115.31,157.52Z"/><path class="cls-3" d="M125.72,159.71c-.68-3.14-5-9-5-9a49.69,49.69,0,0,0-4.29,7,7.41,7.41,0,0,0-.84,2.78,5,5,0,0,0,.51,2.2,5.12,5.12,0,0,0,9.74-2.2A3.52,3.52,0,0,0,125.72,159.71Z"/><path class="cls-4" d="M142.4,24.94a33.22,33.22,0,0,0-61.78,0H68.94a22.74,22.74,0,0,0,0,45.47h85.14a22.74,22.74,0,0,0,0-45.47Z"/><path class="cls-5" d="M122.31,5.81a33.33,33.33,0,0,0-20,19.18H90.61a22.71,22.71,0,1,0,0,45.42H68.94a22.74,22.74,0,0,1,0-45.47H80.62A33.25,33.25,0,0,1,111.48,4,32.66,32.66,0,0,1,122.31,5.81Z"/><circle class="cls-6" cx="111.54" cy="37.18" r="13.6"/><path class="cls-7" d="M215.34,128.41a13,13,0,0,0,18.23-2.2l27.7-35.32a13,13,0,0,0-20.43-16l-27.7,35.31A13,13,0,0,0,215.34,128.41Z"/><path class="cls-4" d="M167.45,179.91l-4.63,5.87a15.75,15.75,0,0,1-24.77-19.46l4.63-5.87,24.71-2.14Z"/><path class="cls-5" d="M144.54,185.61a16.09,16.09,0,0,0,1.81,5.7,15.72,15.72,0,0,1-8.3-24.94l4.63-5.86,24.71-2.15.06,8.47-15,1.29L147.81,174A15.8,15.8,0,0,0,144.54,185.61Z"/><path class="cls-8" d="M233.85,95.29l-66.4,84.62-24.77-19.46L208.91,76"/><path class="cls-9" d="M218.79,83.5l-66.41,84.62-9.76-7.61,66.24-84.46"/><path class="cls-10" d="M240.34,84.17l24-36.67a10.28,10.28,0,0,0-16.13-12.63L218.33,67"/><path class="cls-7" d="M262.11,33.79c-.39-.33-1.41.23-2.7,1.3A40.1,40.1,0,0,0,254.78,40L227.25,74l-8.92-7,29.91-32.1a10.17,10.17,0,0,1,13.87-1.08Z"/><path class="cls-10" d="M240.34,84.17l-22-17.26a8,8,0,1,0-9.81,12.53l22,17.26a8,8,0,0,0,9.82-12.53Z"/><path class="cls-7" d="M216.47,82.71a7.75,7.75,0,0,0,3,5.3l-10.94-8.57a7.76,7.76,0,0,1-3-5.31,7.95,7.95,0,0,1,12.8-7.22l10.95,8.58a8,8,0,0,0-11.17,1.35A7.79,7.79,0,0,0,216.47,82.71Z"/><path class="cls-11" d="M109.05,19.58a17.6,17.6,0,1,0,17.61,17.6A17.63,17.63,0,0,0,109.05,19.58Zm0,27.19a9.59,9.59,0,1,1,9.6-9.59A9.59,9.59,0,0,1,109.05,46.77Z"/><path class="cls-11" d="M134.72,191.31c2.71,1.35,10.22,4.51,13.26,4.51a17.14,17.14,0,0,0,2.43-.17,19.48,19.48,0,0,0,13.14-7.39L209,130.32a8.59,8.59,0,0,0,1.12,1V232.33a32.36,32.36,0,0,1-32.32,32.32H65.61a4,4,0,0,0,0,8H177.77a40.4,40.4,0,0,0,40.34-40.33V135a15.12,15.12,0,0,0,2.76.23,17,17,0,0,0,13.37-6.49l27.7-35.32a16.61,16.61,0,0,0,3.5-12.52,17,17,0,0,0-6.37-11.34h0a16,16,0,0,0-5-2.71l11.22-17.1a14.25,14.25,0,0,0-22.34-17.54l-4.29,4.62a4,4,0,1,0,5.82,5.48l4.28-4.63a6.29,6.29,0,0,1,8.52-.68,6.26,6.26,0,0,1,1.36,8.41L237,78.42l-15.17-11.9L244.4,42.26c1.52-1.64-4,1.69-5.64.17s1.29-7.28-.17-5.65l-21.44,23a40.53,40.53,0,0,0-39.32-31.54H170A26.58,26.58,0,0,0,151.71,21h-9.09a37.16,37.16,0,0,0-66.91,0H66.63a26.6,26.6,0,0,0-18.28,7.27h-8A40.4,40.4,0,0,0,0,68.6V232.38a40.4,40.4,0,0,0,40.34,40.34h28c2.2,0-1.86-1.81-1.86-4s1.29-4-1-4H40.28A32.36,32.36,0,0,1,8,232.38V68.55A32.36,32.36,0,0,1,40.28,36.22h2a27.13,27.13,0,0,0-2.59,11.45A26.76,26.76,0,0,0,66.46,74.41h85.13a26.71,26.71,0,0,0,24.15-38.19h2a32.46,32.46,0,0,1,31.54,25.16,11.79,11.79,0,0,0-7.73,4.46,12,12,0,0,0-2.48,8.8,13.33,13.33,0,0,0,.84,3.27l-67.47,86a19.59,19.59,0,0,0-4.06,14.56,24.28,24.28,0,0,0,.56,3m22.68-115H66.52a18.73,18.73,0,1,1,0-37.46H78.19a4,4,0,0,0,3.73-2.54,29.18,29.18,0,0,1,54.27,0,4,4,0,0,0,3.72,2.54h11.68a18.73,18.73,0,0,1,.06,37.46Zm56.19,4.35a3.82,3.82,0,0,1,2.65-1.47c.17,0,.34-.06.51-.06a3.79,3.79,0,0,1,2.43.85l22,17.26h0A3.89,3.89,0,0,1,236.9,90a4.17,4.17,0,0,1-.79,2.93,4,4,0,0,1-5.53.68l-22-17.27a4.14,4.14,0,0,1-.73-5.58Zm-43.5,103.52-6.09-4.79L202,113.79a4,4,0,1,0-6.26-4.9l-43.78,55.68-6.09-4.8L205.36,84l18.5,14.5Zm-14.89,13.49a11.8,11.8,0,0,1-8.69-2.43,11.48,11.48,0,0,1-4.4-7.84,11.8,11.8,0,0,1,2.43-8.69l2.14-2.76,18.5,14.49-2.14,2.77A11.9,11.9,0,0,1,149.45,187.76ZM255.68,88.41,228,123.72a9,9,0,0,1-12.64,1.53A10.44,10.44,0,0,1,214,124l17-21.72a11.32,11.32,0,0,0,1.92.17A12,12,0,0,0,244.85,89a11.77,11.77,0,0,0-1.92-5.19L249.42,74a9,9,0,0,1,4.74,1.86,8.78,8.78,0,0,1,3.38,6,8.93,8.93,0,0,1-1.86,6.61Z"/></svg>