<?xml version="1.0" encoding="UTF-8"?>
<svg width="87px" height="77px" viewBox="0 0 87 77" version="1.1" xmlns="http://www.w3.org/2000/svg" xmlns:xlink="http://www.w3.org/1999/xlink">
    <title>Logo</title>
    <g id="App" stroke="none" stroke-width="1" fill="none" fill-rule="evenodd">
        <g id="a)-Phase-Selection" transform="translate(-271.000000, -49.000000)">
            <g id="Logo" transform="translate(272.000000, 51.000000)">
                <g>
                    <path d="M78.5727947,36.9311628 C78.4912562,56.5103345 62.4192803,72.3263647 42.6529195,72.279055 C22.8865586,72.2315327 6.89210745,56.3385809 6.90636478,36.759248 C6.92064119,17.1799151 22.9382371,1.30985001 42.7046465,1.29069767 C52.2334971,1.30209589 61.3671148,5.06429552 68.0944359,11.7489257 C74.8217571,18.4335558 78.5911742,27.4925095 78.5727947,36.9311628 Z" id="Path" fill="#FFFFFF"></path>
                    <path d="M67.410101,36.9913953 C67.4053038,50.6576521 56.2177159,61.7329344 42.4208774,61.7297675 C28.624039,61.7265992 17.4416355,50.646181 17.443234,36.9799235 C17.4448325,23.313666 28.6298279,12.235814 42.4266667,12.235814 C56.2240551,12.2453106 67.4053103,23.3245908 67.410101,36.9913953 Z" id="Path" fill="#DA4F53"></path>
                    <path d="M79.6846465,36.827907 C79.6846465,57.0010708 63.1748074,73.3546512 42.8088889,73.3546512 C22.4429703,73.3546512 5.93313131,57.0010708 5.93313131,36.827907 C5.93313131,16.6547432 22.4429703,0.301162791 42.8088889,0.301162791 C63.1728208,0.305912866 79.679851,16.6567111 79.6846465,36.827907 L79.6846465,36.827907 Z" id="Path" stroke="#CC4C52" stroke-width="2.7"></path>
                    <path d="M43.9294949,32.3362791 L81.9171717,32.3362791 C83.7498645,32.3362791 85.2355556,33.8079087 85.2355556,35.6232558 L85.2355556,45.4153488 C85.2355556,47.230696 83.7498645,48.7023256 81.9171717,48.7023256 L5.93313131,48.7023256 C4.10043853,48.7023256 2.61474747,47.230696 2.61474747,45.4153488 L2.61474747,35.6232558 C2.61474747,33.8079087 4.10043853,32.3362791 5.93313131,32.3362791" id="Path" fill="#B8CDE9"></path>
                    <polygon id="Path" fill="#0083C5" fill-rule="nonzero" points="14.4723232 55.5688372 20.6486869 51.3783721 21.2915152 52.3076744 15.1585859 56.4981395"></polygon>
                    <path d="M21.9951515,64.1906977 L22.0907071,59.027907 C22.0907071,58.1674419 22.1515152,57.2295349 22.2036364,56.4465116 L22.2036364,56.4465116 C21.7519192,56.9455814 21.3349495,57.4016279 20.9266667,57.8060465 L18.3206061,60.4993023 L17.4953535,59.7248837 L22.6553535,54.3555814 L23.22,54.8890698 L23.1244444,59.6130233 C23.1244444,60.2497674 23.1244444,61.2565116 23.0288889,61.9706977 L23.0288889,61.9706977 C23.4111111,61.5404651 23.8975758,61.1102326 24.2276768,60.6886047 L26.6686869,58.1072093 L27.4852525,58.8816279 L22.2210101,64.3713953 L21.9951515,64.1906977 Z" id="Path" fill="#0083C5" fill-rule="nonzero"></path>
                    <path d="M26.990101,67.2797674 C26.3823849,66.9796224 25.8710357,66.5178049 25.5133333,65.9460465 L25.8608081,64.7413953 C26.2072281,65.4748505 26.7829224,66.078285 27.5026263,66.4623256 C27.7794839,66.654617 28.1250557,66.7231093 28.4552946,66.6511444 C28.7855336,66.5791794 29.0701783,66.3733518 29.24,66.0837209 C29.5440404,65.5244186 29.3876768,64.9565116 28.7274747,64.2853488 C27.7458586,63.2872093 27.4765657,62.3062791 27.9543434,61.394186 C28.2464229,60.8800143 28.7442041,60.5119966 29.3249281,60.3808906 C29.9056522,60.2497846 30.5152671,60.3677931 31.0034343,60.705814 C31.524874,60.951793 31.964797,61.3397979 32.2717172,61.8244186 L31.6375758,62.5386047 C31.3823845,62.0945767 31.0060537,61.7307541 30.5517172,61.4888372 C30.3035682,61.3169297 29.9946089,61.2545344 29.6983233,61.3164916 C29.4020376,61.3784488 29.1449043,61.5592214 28.9880808,61.815814 C28.7535354,62.2460465 28.9446465,62.7881395 29.5092929,63.3904651 C30.4561616,64.38 30.9078788,65.3953488 30.3171717,66.5053488 C29.7264646,67.6153488 28.4842424,68.0627907 26.990101,67.2797674 Z" id="Path" fill="#0083C5" fill-rule="nonzero"></path>
                    <polygon id="Path" fill="#0083C5" fill-rule="nonzero" points="36.7367677 63.8981395 35.2078788 70.1623256 34.1046465 69.8955814 35.6335354 63.6313953 33.2967677 63.1151163 33.5226263 62.1772093 39.2993939 63.5625581 39.0735354 64.5004651"></polygon>
                    <polygon id="Path" fill="#0083C5" fill-rule="nonzero" points="40.7761616 70.9281395 41.0975758 63.5195349 42.2355556 63.5711628 41.9054545 70.9711628"></polygon>
                    <polygon id="Path" fill="#0083C5" fill-rule="nonzero" points="47.760404 64.1648837 48.7072727 70.5409302 47.5779798 70.7044186 46.639798 64.3283721 44.259596 64.6725581 44.1206061 63.7174419 50.0016162 62.8569767 50.1406061 63.812093"></polygon>
                    <path d="M56.9250505,68.1832558 C55.3440404,68.9146512 53.7282828,68.5360465 52.9812121,66.97 L50.9224242,62.6676744 L51.9561616,62.1944186 L53.9628283,66.427907 C54.4694041,67.2748691 55.5428371,67.6017911 56.4422949,67.183047 C57.3417527,66.764303 57.7726387,65.7370428 57.4375758,64.8102326 L55.4482828,60.5337209 L56.4472727,60.0690698 L58.5060606,64.3713953 C59.2444444,65.9718605 58.5060606,67.4174419 56.9250505,68.1832558 Z" id="Path" fill="#0083C5" fill-rule="nonzero"></path>
                    <polygon id="Path" fill="#0083C5" fill-rule="nonzero" points="60.4692929 57.9523256 64.8127273 62.7623256 63.9440404 63.5109302 59.6006061 58.7009302 57.8024242 60.284186 57.159596 59.57 61.5985859 55.6462791 62.2414141 56.3690698"></polygon>
                    <polygon id="Path" fill="#0083C5" fill-rule="nonzero" points="68.600202 58.7353488 62.5193939 54.4330233 64.8561616 51.1804651 65.6553535 51.7397674 63.9527273 54.0802326 65.8030303 55.3709302 67.210303 53.4090698 68.0008081 53.9769767 66.5935354 55.9302326 68.469899 57.2553488 70.3810101 54.5793023 71.180202 55.1386047"></polygon>
                    <path d="M21.0569697,21.9246512 L18.9721212,21.6923256 L17.5648485,24.2134884 L18.8591919,25.8483721 L18.3206061,26.812093 L13.2387879,20.3930233 L13.4385859,20.0402326 L21.6216162,20.9006977 L21.0569697,21.9246512 Z M16.0272727,21.3567442 C15.706081,21.3188788 15.387122,21.2643073 15.0717172,21.1932558 L15.0717172,21.1932558 C15.3058441,21.415586 15.5235741,21.6542601 15.7232323,21.9074419 L16.9654545,23.4304651 L17.9991919,21.5804651 L16.0272727,21.3567442 Z" id="Shape" fill="#0082C4" fill-rule="nonzero"></path>
                    <path d="M28.4842424,14.3955814 L26.0519192,12.0551163 C25.6870707,11.7023256 25.2353535,11.2462791 24.8531313,10.8504651 L24.8531313,10.8504651 C25.0181818,11.4011628 25.2179798,12.184186 25.3482828,12.7004651 L26.2169697,16.3832558 L25.8955556,16.65 L22.3513131,15.2302326 C21.8387879,15.0237209 21.1612121,14.7225581 20.6139394,14.4730233 L20.6139394,14.4730233 C20.970101,14.9204651 21.3523232,15.4539535 21.6129293,15.8153488 L23.5935354,18.5430233 L22.820404,19.1883721 L18.4769697,13.1651163 L19.0068687,12.7090698 L22.9767677,14.3267442 C23.5935354,14.5762791 24.3840404,14.8946512 24.94,15.1872093 L24.94,15.1872093 C24.7488889,14.6106977 24.5490909,13.8276744 24.3840404,13.1565116 L23.3850505,8.99186047 L23.9149495,8.53581395 L29.2921212,13.6986047 L28.4842424,14.3955814 Z" id="Path" fill="#0082C4" fill-rule="nonzero"></path>
                    <polygon id="Path" fill="#0082C4" fill-rule="nonzero" points="31.6636364 12.8037209 29.1618182 5.82534884 32.9666667 4.4744186 33.2880808 5.38651163 30.5690909 6.3244186 31.3335354 8.44116279 33.6181818 7.58069767 33.9482828 8.48418605 31.6636364 9.37046512 32.4367677 11.4872093 35.5466667 10.3772093 35.8767677 11.2893023"></polygon>
                    <path d="M42.5830303,10.557907 L39.9769697,7.48604651 L38.9258586,7.56348837 L39.160404,10.8074419 L38.039798,10.8848837 L37.5012121,3.49348837 L39.8640404,3.32139535 C40.440193,3.24646339 41.0222232,3.40814353 41.4750223,3.76890442 C41.9278214,4.12966532 42.2120091,4.65813132 42.2616162,5.23162791 C42.3438892,6.07742773 41.8719112,6.88085398 41.0888889,7.22790698 L43.8860606,10.4632558 L42.5830303,10.557907 Z M39.7511111,4.28511628 L38.7086869,4.36255814 L38.8737374,6.60837209 L39.9161616,6.53093023 C40.2447375,6.54900964 40.5653182,6.42638383 40.7963466,6.19424932 C41.027375,5.96211481 41.1465804,5.64284899 41.1236364,5.31767442 C41.0948872,4.99384351 40.9294683,4.69707961 40.6681147,4.50046188 C40.406761,4.30384414 40.0737589,4.22564319 39.7511111,4.28511628 L39.7511111,4.28511628 Z" id="Shape" fill="#0082C4" fill-rule="nonzero"></path>
                    <polygon id="Path" fill="#0082C4" fill-rule="nonzero" points="45.8753535 10.7816279 46.8048485 3.43325581 47.9341414 3.57093023 46.9959596 10.927907"></polygon>
                    <path d="M57.4636364,7.72697674 C57.0453675,7.22434248 56.5040424,6.83626281 55.8913131,6.59976744 C55.1661928,6.27686748 54.3382601,6.26675143 53.6053194,6.57183614 C52.8723787,6.87692085 52.3002623,7.46980377 52.0256566,8.20883721 C51.7225558,8.93238834 51.7376969,9.74834691 52.0674367,10.4603761 C52.3971764,11.1724054 53.0116602,11.7160382 53.7630303,11.9604651 C54.4209032,12.2454189 55.1433421,12.3523137 55.8565657,12.2702326 L55.2745455,13.2081395 C54.59965,13.2568788 53.9234694,13.1324062 53.3113131,12.8467442 C51.9774746,12.3757241 51.0071963,11.2242226 50.7778368,9.84007938 C50.5484773,8.45593617 51.0962392,7.05762686 52.2080879,6.18897901 C53.3199367,5.32033117 54.8203762,5.11845374 56.1258586,5.66186047 C56.8502229,5.90901718 57.4969695,6.33906662 58.0022222,6.90953488 L57.4636364,7.72697674 Z" id="Path" fill="#0082C4" fill-rule="nonzero"></path>
                    <path d="M61.1989899,18.0267442 L61.8591919,16.0562791 L59.670101,14.1632558 L57.7937374,15.0839535 L56.9250505,14.3525581 L64.3175758,10.7730233 L64.630303,11.0397674 L62.0242424,18.7839535 L61.1989899,18.0267442 Z M62.8147475,13.2855814 C62.9201678,12.9922827 63.041972,12.7050175 63.179596,12.4251163 L63.179596,12.4251163 C62.8993054,12.6016129 62.6092925,12.762483 62.3109091,12.9069767 L60.5735354,13.7674419 L62.1806061,15.1613953 L62.8147475,13.2855814 Z" id="Shape" fill="#0082C4" fill-rule="nonzero"></path>
                    <path d="M66.4111111,26.1151163 L68.0094949,21.2190698 C68.2614141,20.4360465 68.5915152,19.4981395 68.8781818,18.7667442 L68.8781818,18.7667442 C68.3048485,19.1195349 67.7488889,19.437907 67.2624242,19.7132558 L64.0048485,21.5460465 L63.440202,20.5737209 L69.8858586,16.847907 L70.2767677,17.5276744 L68.8434343,22.0193023 C68.6436364,22.6302326 68.3222222,23.5853488 68.0616162,24.247907 L68.0616162,24.247907 C68.5480808,23.9467442 69.1040404,23.6283721 69.5731313,23.3874419 L72.6569697,21.6665116 L73.2389899,22.6732558 L66.5935354,26.3732558 L66.4111111,26.1151163 Z" id="Path" fill="#0082C4" fill-rule="nonzero"></path>
                    <path d="M42.4527273,32.0093023 L80.8052525,32.0093023 C81.7343154,31.9977981 82.6293304,32.3553365 83.2903963,33.0020617 C83.9514622,33.6487869 84.3237097,34.5308212 84.3237097,35.4511628 L84.3237097,44.3827907 C84.3352174,45.3105681 83.9683379,46.2037595 83.3059793,46.8598491 C82.6436207,47.5159388 81.7418949,47.879346 80.8052525,47.8676744 L4.10020202,47.8676744 C2.1741472,47.8441192 0.625454545,46.2907616 0.625454545,44.3827907 L0.625454545,35.494186 C0.649234807,33.5863605 2.21743475,32.0521802 4.14363636,32.0523256 L42.4527273,32.0093023 Z" id="Path" fill="#FFFFFF"></path>
                    <path d="M42.4527273,31.8113953 L80.8052525,31.8113953 C82.8552428,31.8161397 84.5145455,33.4635925 84.5145455,35.494186 L84.5145455,44.3827907 C84.5145455,46.4119876 82.8538384,48.0569767 80.8052525,48.0569767 L4.10020202,48.0569767 C2.0516161,48.0569767 0.390909091,46.4119876 0.390909091,44.3827907 L0.390909091,35.494186 C0.390909091,33.4635925 2.05021173,31.8161397 4.10020202,31.8113953 L42.4527273,31.8113953 Z" id="Path" stroke="#CC4C52" stroke-width="0.9"></path>
                    <path d="M8.51313131,38.5918605 C8.00720284,40.5507383 7.64717752,42.5437718 7.4359596,44.5548837 C7.44337675,44.9197318 7.51389332,45.2806192 7.64444444,45.6218605 C7.17329989,45.8393888 6.66134126,45.9566404 6.14161616,45.9660465 C5.49878788,45.9660465 5.16868687,45.7337209 5.16868687,45.2604651 C5.37031013,44.0931418 5.66069918,42.9425793 6.03737374,41.8186047 C6.15030303,41.4227907 6.44565657,40.2181395 6.90606061,38.2132558 C6.99292929,37.8346512 7.07979798,37.4474419 7.17535354,37.0602326 C7.27216351,36.6799866 7.32749716,36.2905475 7.34040404,35.8986047 C7.33377216,35.6058173 7.24009925,35.3214721 7.07111111,35.0811628 C7.63374022,34.7091235 8.28894123,34.497752 8.96484848,34.4702326 C9.39919192,34.4702326 9.68585859,34.7627907 9.83353535,35.3306977 C10.1636364,36.8623256 10.673266,39.0393023 11.3624242,41.8616279 C12.3614141,40.3386047 13.3256566,38.8844186 14.2725253,37.4904651 C14.832081,36.7752076 15.2478814,35.9602406 15.4973737,35.0897674 C15.4935898,34.9664264 15.470135,34.8444544 15.4278788,34.7283721 C15.9543363,34.5408734 16.5102698,34.447638 17.069697,34.4530233 C17.6777778,34.4530233 17.9818182,34.6423256 17.9818182,35.0123256 C17.96269,35.2752145 17.9131397,35.535057 17.8341414,35.7867442 L17.6256566,36.5869767 C16.8781745,39.2649327 16.3723479,42.0033709 16.1141414,44.77 C16.1157613,45.0328919 16.1781659,45.2919216 16.2965657,45.5272093 C15.8120236,45.7930253 15.2693341,45.9377512 14.7155556,45.9488372 C14.1161616,45.9488372 13.8468687,45.6993023 13.8468687,45.2088372 C13.9221879,44.3195842 14.0615323,43.4367956 14.2638384,42.5672093 L15.1325253,38.2648837 C12.9550168,41.4313953 11.8054545,43.3531008 11.6838384,44.03 C11.3466354,44.2560493 10.9591417,44.3977698 10.5545455,44.4430233 C10.2331313,44.4430233 9.98989899,44.1504651 9.80747475,43.5825581 C9.62505051,43.0146512 9.42525253,42.2144186 9.19070707,41.2334884 C8.88666667,39.985814 8.66949495,39.1167442 8.51313131,38.5918605 Z" id="Path" fill="#F6D8CF" fill-rule="nonzero"></path>
                    <path d="M24.3058586,36.9053488 C24.7208136,36.784885 25.1504502,36.7211943 25.5828283,36.7160465 C26.3472727,36.7160465 26.7294949,37.0028682 26.7294949,37.5765116 C26.7192397,37.9397965 26.6667727,38.3007022 26.5731313,38.652093 L26.3038384,39.7190698 C25.944631,41.0633984 25.7348998,42.4426023 25.6783838,43.832093 C25.6677261,44.4044 25.7864499,44.9718204 26.0258586,45.4927907 C25.6484974,45.8203339 25.1637631,46.0007711 24.6620202,46.0004651 C23.7238384,46.0004651 23.2460606,45.484186 23.2460606,44.4516279 C23.2701992,43.7839037 23.348635,43.1191932 23.4806061,42.4639535 C22.2731313,44.8732558 21.0482828,46.0693023 19.8234343,46.0693023 C19.4321576,46.1193151 19.039827,45.9848476 18.7634295,45.7059961 C18.487032,45.4271446 18.3585007,45.0361255 18.4161616,44.6495349 C18.4845832,43.4866938 18.6708394,42.3336105 18.9721212,41.2076744 C19.2742486,40.0815936 19.4633817,38.9287135 19.5367677,37.765814 C19.5367484,37.533917 19.4955835,37.303828 19.4151515,37.0860465 C19.9063882,36.8964701 20.4259596,36.7888871 20.9527273,36.7676744 C21.630303,36.7676744 21.9690909,37.0516279 21.9690909,37.6281395 C21.9411704,37.9998791 21.8801247,38.3684458 21.7866667,38.7295349 C21.3479172,40.3969634 21.0314691,42.0936359 20.839798,43.8062791 C20.839798,44.0472093 20.9092929,44.1676744 21.0569697,44.1676744 C21.3436364,44.1676744 21.9690909,43.3072093 22.9507071,41.5862791 C23.751359,40.3825257 24.2543163,39.0087991 24.4187879,37.5765116 C24.4218099,37.3479133 24.3835656,37.1206196 24.3058586,36.9053488 Z" id="Path" fill="#F6D8CF" fill-rule="nonzero"></path>
                    <path d="M27.9109091,43.3244186 C28.2410101,44.3397674 28.779596,44.8560465 29.6482828,44.8560465 C30.5169697,44.8560465 30.8818182,44.4344186 30.8818182,43.5911628 C30.8818182,43.1437209 30.2216162,42.4381395 28.8925253,41.465814 C28.4428599,41.0601138 28.1872818,40.4850361 28.1888889,39.8825581 C28.1480752,38.9796063 28.5372002,38.1099727 29.24,37.5334884 C30.0080656,36.9365979 30.9662809,36.6314062 31.9416162,36.6730233 C33.3141414,36.6730233 34.000404,36.9311628 34.000404,37.4474419 C34.000404,37.9034884 33.6789899,38.3595349 33.0274747,38.824186 C32.480202,38.1013953 31.950303,37.74 31.4464646,37.74 C30.7428283,37.74 30.3866667,38.11 30.3866667,38.8413953 C30.4296587,39.3057977 30.6988168,39.7201684 31.1076768,39.9513953 L32.4280808,40.9065116 C32.8953771,41.3336948 33.1574793,41.9373932 33.1490909,42.5672093 C33.1961671,43.5580824 32.7717458,44.5135468 32.0024242,45.1486047 C31.1568334,45.7783784 30.1139377,46.0922474 29.0575758,46.0348837 C27.5113131,46.0348837 26.7381818,45.6734884 26.7381818,44.9506977 C26.7034343,44.4 27.1030303,43.857907 27.9109091,43.3244186 Z" id="Path" fill="#F6D8CF" fill-rule="nonzero"></path>
                    <path d="M37.6836364,40.2525581 C38.8418855,37.9579845 40.0522559,36.8106977 41.3147475,36.8106977 C41.7054763,36.7599391 42.0975086,36.8945266 42.3727217,37.1739078 C42.6479349,37.4532891 42.7741485,37.8447963 42.7133333,38.2304651 C42.6624579,39.2278941 42.5052197,40.2171956 42.2442424,41.1818605 C41.9735536,42.1623283 41.8133177,43.1694747 41.7664646,44.1848837 C41.745627,44.6598854 41.8829777,45.1285048 42.1573737,45.5186047 C41.7073346,45.8194056 41.1799031,45.9865862 40.6371717,46.0004651 C40.2994248,46.0546309 39.9556589,45.9479499 39.7094898,45.7125773 C39.4633207,45.4772048 39.3435442,45.1406735 39.3862626,44.8044186 C39.4369177,43.8251314 39.5882733,42.8535149 39.8379798,41.9046512 C40.078182,41.0060527 40.2323319,40.0870261 40.2983838,39.1597674 C40.2983838,38.9102326 40.220202,38.7897674 40.0725253,38.7897674 C39.6642424,38.7897674 38.9953535,39.6502326 38.0919192,41.3711628 C37.3789134,42.535272 36.9174732,43.8332415 36.7367677,45.1830233 C36.7416022,45.3884935 36.7797311,45.59186 36.849697,45.7853488 C36.420594,45.9089777 35.9761743,45.9726928 35.5292929,45.9746512 C34.7648485,45.9746512 34.3826263,45.6878295 34.3826263,45.114186 C34.4038073,44.6305803 34.4825336,44.1511405 34.6171717,43.685814 C34.8517172,42.7823256 34.9820202,42.3004651 34.9907071,42.2402326 L35.9028283,37.6883721 C36.0634446,36.9580491 36.1593646,36.2152272 36.1894949,35.4683721 C36.1872212,35.2771315 36.1639187,35.0867056 36.12,34.9004651 C36.5634612,34.6161807 37.0774126,34.4583934 37.6054545,34.4444186 C38.2917172,34.4444186 38.6391919,34.7369767 38.6391919,35.3048837 C38.6131313,35.6490698 38.3177778,37.3011628 37.6836364,40.2525581 Z" id="Path" fill="#F6D8CF" fill-rule="nonzero"></path>
                    <path d="M45.9882828,45.7767442 C45.5603771,45.9057645 45.1151554,45.9695946 44.6678788,45.9660465 C43.9121212,45.9660465 43.529899,45.6906977 43.529899,45.1055814 C43.605242,44.3799901 43.7477264,43.6627898 43.9555556,42.9630233 C44.4485059,41.2321896 44.7628438,39.4562685 44.8937374,37.6625581 C44.8913496,37.4336771 44.8502412,37.206812 44.7721212,36.9913953 C45.2603885,36.8019836 45.7770775,36.6943895 46.3010101,36.6730233 C46.9785859,36.6730233 47.3260606,36.9569767 47.3260606,37.5334884 C47.2272239,38.4410577 47.0528941,39.3389926 46.8048485,40.2181395 C48.136835,37.8203101 49.2487542,36.6185271 50.1406061,36.6127907 C50.6183838,36.6127907 50.8529293,36.8365116 50.8529293,37.2839535 C50.7874867,38.2897573 50.3552776,39.2377337 49.6367677,39.9513953 C49.4282828,39.6502326 49.2371717,39.4953488 49.0634343,39.4953488 C48.4814141,39.4953488 47.8038384,40.2525581 47.0393939,41.7755814 C46.4254272,42.8074263 46.0294105,43.9520308 45.8753535,45.14 C45.8771893,45.3569735 45.9153504,45.5721424 45.9882828,45.7767442 Z" id="Path" fill="#F6D8CF" fill-rule="nonzero"></path>
                    <path d="M53.4763636,46.0348837 C52.6322473,46.0755671 51.8096583,45.7633818 51.2090909,45.1744186 C50.6153187,44.5580088 50.3015192,43.7280941 50.340404,42.8769767 C50.3367035,41.3145101 50.8697445,39.7972804 51.8519192,38.5746512 C52.6652942,37.3770838 54.0174414,36.6479893 55.4743434,36.6213953 C56.3052025,36.5832692 57.1134027,36.8959844 57.6981818,37.4818605 C58.2819363,38.0940547 58.594663,38.9118394 58.5668687,39.7534884 C58.5705692,41.315955 58.0375282,42.8331848 57.0553535,44.055814 C56.2627907,45.2575863 54.9250546,45.9973127 53.4763636,46.0348837 L53.4763636,46.0348837 Z M53.9367677,44.7097674 C54.5622222,44.7097674 55.0660606,44.1504651 55.4569697,43.0404651 C55.8414919,41.9653092 56.0411662,40.8338655 56.0476768,39.6932558 C56.0476768,38.5488372 55.700202,37.9723256 55.0139394,37.9723256 C54.3276768,37.9723256 53.8672727,38.5230233 53.4676768,39.6244186 C53.0712599,40.7026673 52.8684021,41.8413155 52.8682828,42.9888372 C52.8682828,44.1332558 53.2244444,44.7097674 53.9367677,44.7097674 Z" id="Shape" fill="#F6D8CF" fill-rule="nonzero"></path>
                    <path d="M62.1719192,46.0348837 C61.3278029,46.0755671 60.5052138,45.7633818 59.9046465,45.1744186 C59.3108743,44.5580088 58.9970748,43.7280941 59.0359596,42.8769767 C59.0322591,41.3145101 59.5653,39.7972804 60.5474747,38.5746512 C61.3608497,37.3770838 62.712997,36.6479893 64.169899,36.6213953 C65.0011226,36.5810653 65.8101983,36.8941193 66.3937374,37.4818605 C66.9774918,38.0940547 67.2902186,38.9118394 67.2624242,39.7534884 C67.2661248,41.315955 66.7330838,42.8331848 65.7509091,44.055814 C64.9583463,45.2575863 63.6206102,45.9973127 62.1719192,46.0348837 Z M62.6323232,44.7097674 C63.2577778,44.7097674 63.7616162,44.1504651 64.1525253,43.0404651 C64.5370475,41.9653092 64.7367218,40.8338655 64.7432323,39.6932558 C64.7432323,38.5488372 64.3957576,37.9723256 63.7181818,37.9723256 C63.0406061,37.9723256 62.5628283,38.5230233 62.1632323,39.6244186 C61.7668155,40.7026673 61.5639576,41.8413155 61.5638384,42.9888372 C61.5638384,44.1332558 61.92,44.7097674 62.6323232,44.7097674 Z" id="Shape" fill="#F6D8CF" fill-rule="nonzero"></path>
                    <path d="M74.7591919,45.7767442 C74.3480215,45.900809 73.9207307,45.9645859 73.4909091,45.9660465 C72.8220202,45.9660465 72.4832323,45.707907 72.4832323,45.1830233 C72.5235026,44.7474938 72.5990317,44.3158728 72.7090909,43.8923256 C73.1299469,42.2413347 73.4461867,40.5658962 73.6559596,38.875814 C73.6559596,38.7123256 73.6038384,38.6348837 73.4909091,38.6348837 C73.1955556,38.6348837 72.5440404,39.4953488 71.5276768,41.2162791 C70.7209748,42.3803612 70.200371,43.7152268 70.0074747,45.114186 C70.009789,45.3283113 70.0479502,45.5405728 70.120404,45.7423256 C69.7141696,45.8619418 69.293255,45.9256396 68.8694949,45.9316279 C68.139798,45.9316279 67.7749495,45.6448062 67.7749495,45.0711628 C67.7857364,44.7079233 67.8381947,44.3470774 67.9313131,43.9955814 C68.5295998,41.9170812 68.9337909,39.7885189 69.1387879,37.6367442 C69.142264,37.4073529 69.1009687,37.1794565 69.0171717,36.9655814 C69.4885474,36.7802061 69.9874229,36.6726549 70.4939394,36.6472093 C71.1280808,36.6472093 71.4408081,36.9311628 71.4408081,37.5076744 C71.4281453,37.9636334 71.3640432,38.4167595 71.249697,38.8586047 L70.9282828,40.2095349 C72.3181818,37.8002326 73.5748822,36.5955814 74.6983838,36.5955814 C75.5062626,36.5955814 75.9145455,37.0688372 75.9145455,38.0239535 C75.8998977,38.3919874 75.8504559,38.7578511 75.7668687,39.1167442 C75.6786492,39.475995 75.6176711,39.8412768 75.5844444,40.2095349 C76.9975084,37.8346512 78.283165,36.6472093 79.4414141,36.6472093 C80.2579798,36.6472093 80.6662626,37.0946512 80.6662626,37.9809302 C80.6292933,38.4968353 80.5508631,39.0090001 80.4317172,39.5125581 C80.0448008,41.0489834 79.7661497,42.6101864 79.5977778,44.1848837 C79.5782217,44.6624115 79.7153715,45.1333641 79.9886869,45.5272093 C79.557882,45.8210393 79.0519194,45.9880973 78.5292929,46.0090698 C78.1988074,46.053341 77.8665608,45.9409423 77.6324598,45.7056718 C77.3983589,45.4704013 77.2897129,45.139705 77.3391919,44.8130233 C77.3566743,44.0078844 77.4556205,43.2065112 77.6345455,42.4209302 C78.0688889,40.2955814 78.2773737,39.1339535 78.2773737,38.9188372 C78.2773737,38.7037209 78.2252525,38.677907 78.1123232,38.677907 C77.8256566,38.677907 77.1741414,39.5383721 76.1664646,41.2593023 C75.3676273,42.4266523 74.8504654,43.7603133 74.6549495,45.1572093 C74.6591584,45.3676377 74.6942742,45.5763381 74.7591919,45.7767442 Z" id="Path" fill="#F6D8CF" fill-rule="nonzero"></path>
                    <path d="M7.71393939,37.714186 C7.20884545,39.6674233 6.84882555,41.6546751 6.63676768,43.66 C6.64349233,44.0249205 6.71403163,44.3859242 6.84525253,44.7269767 C6.37216068,44.9356134 5.86028453,45.0440537 5.34242424,45.0453488 C4.69959596,45.0453488 4.36949495,44.8130233 4.36949495,44.3397674 C4.57111821,43.1724442 4.86150726,42.0218816 5.23818182,40.897907 C5.35111111,40.502093 5.64646465,39.3060465 6.10686869,37.2925581 C6.19373737,36.9139535 6.28060606,36.5267442 6.37616162,36.1481395 C6.47360987,35.7621768 6.52894378,35.3669665 6.54121212,34.9693023 C6.54164399,34.662063 6.44772327,34.3619604 6.27191919,34.1088372 C6.8550123,33.7560704 7.52585231,33.5713241 8.20909091,33.5753488 C8.64343434,33.5753488 8.93010101,33.867907 9.07777778,34.435814 C9.40787879,35.9760465 9.94646465,38.1444186 10.6066667,40.9667442 C11.5969697,39.4408527 12.5641077,37.9866667 13.5080808,36.604186 C14.0673985,35.886825 14.4804607,35.0685195 14.7242424,34.1948837 C14.7204993,34.0750714 14.7000359,33.9563485 14.6634343,33.842093 C15.1850298,33.6468782 15.7390321,33.5505535 16.2965657,33.5581395 C16.9046465,33.5581395 17.1652525,33.7474419 17.1652525,34.1260465 C17.1489505,34.3885989 17.1023161,34.6484347 17.0262626,34.9004651 L16.8177778,35.692093 C16.0702957,38.370049 15.5644691,41.1084872 15.3062626,43.8751163 C15.306549,44.1409167 15.368989,44.4030388 15.4886869,44.6409302 C15.0023528,44.9012125 14.4603447,45.0428068 13.9076768,45.0539535 C13.3082828,45.0539535 13.0389899,44.8130233 13.0389899,44.3139535 C13.1036812,43.4313054 13.2314082,42.5543047 13.4212121,41.6895349 L14.289899,37.344186 C12.1355556,40.527907 10.9773064,42.4582171 10.8151515,43.1351163 C10.4785947,43.3624097 10.0907799,43.5042476 9.68585859,43.5481395 C9.37313131,43.5481395 9.12989899,43.2555814 8.94747475,42.6876744 C8.76505051,42.1197674 8.56525253,41.3281395 8.33939394,40.3472093 C8.08747475,39.1081395 7.86161616,38.2304651 7.71393939,37.714186 Z" id="Path" fill="#007EBE" fill-rule="nonzero"></path>
                    <path d="M23.4892929,36.0104651 C23.9158255,35.8896551 24.3573836,35.8288275 24.8010101,35.8297674 C25.5654545,35.8297674 25.9476768,36.1051163 25.9476768,36.6902326 C25.9380463,37.0535702 25.885569,37.4145471 25.7913131,37.765814 L25.5220202,38.8327907 C25.1628129,40.1771193 24.9530816,41.5563232 24.8965657,42.945814 C24.8860737,43.5208787 25.0047609,44.0910634 25.2440404,44.6151163 C24.8468357,44.9234712 24.3491272,45.0765762 23.8454545,45.0453488 C22.9072727,45.0453488 22.4381818,44.5290698 22.4381818,43.5051163 C22.44606,42.8352016 22.5129127,42.167244 22.6379798,41.5088372 C21.4218182,43.9181395 20.2056566,45.1227907 18.9721212,45.1227907 C18.5790998,45.1734515 18.1849268,45.0379269 17.9081137,44.7569636 C17.6313007,44.4760002 17.5041344,44.082369 17.5648485,43.6944186 C17.6339089,42.5316465 17.8201549,41.3786261 18.1208081,40.2525581 C18.4229355,39.1264773 18.6120685,37.9735972 18.6854545,36.8106977 C18.6845535,36.5788784 18.6434154,36.3489389 18.5638384,36.1309302 C19.0554018,35.9436808 19.5750622,35.8389875 20.1014141,35.8211628 C20.7789899,35.8211628 21.1177778,36.0965116 21.1177778,36.6816279 C21.0854197,37.0534252 21.0214898,37.4218605 20.9266667,37.7830233 C20.4922768,39.4543181 20.1758889,41.153543 19.979798,42.8683721 C19.979798,43.1093023 20.0579798,43.2297674 20.2056566,43.2297674 C20.3533333,43.2297674 21.0743434,42.3693023 22.0993939,40.6483721 C22.9042969,39.4459926 23.410356,38.0719246 23.5761616,36.6386047 C23.5801588,36.4260358 23.5508544,36.2141384 23.4892929,36.0104651 Z" id="Path" fill="#007EBE" fill-rule="nonzero"></path>
                    <path d="M27.0856566,42.4639535 C27.4070707,43.4793023 27.9543434,43.9869767 28.8230303,43.9869767 C29.1707742,44.0319861 29.519575,43.9118543 29.7641137,43.6628545 C30.0086525,43.4138547 30.1202658,43.0651733 30.0652525,42.722093 C30.0652525,42.2832558 29.3963636,41.5690698 28.0672727,40.5967442 C27.6172191,40.1848412 27.3646554,39.6031882 27.3723232,38.9962791 C27.3355718,38.09409 27.7239333,37.2261626 28.4234343,36.6472093 C29.188099,36.0502333 30.1436605,35.744905 31.1163636,35.7867442 C32.480202,35.7867442 33.1664646,36.0534884 33.1664646,36.5697674 C33.0813351,37.1532793 32.7242007,37.6631953 32.2022222,37.9465116 C31.6549495,37.2151163 31.1250505,36.8537209 30.629899,36.8537209 C29.9262626,36.8537209 29.570101,37.2237209 29.570101,37.9551163 C29.6199886,38.3967527 29.8733553,38.7906782 30.2563636,39.022093 L31.5767677,39.9772093 C32.0440639,40.4043925 32.3061662,41.0080909 32.2977778,41.637907 C32.3476063,42.6292848 31.9226678,43.5859135 31.1511111,44.2193023 C30.3075079,44.869687 29.2566735,45.1993526 28.1888889,45.1486047 C26.6426263,45.1486047 25.8694949,44.7786047 25.8694949,44.055814 C25.8694949,43.5051163 26.2777778,42.9716279 27.0856566,42.4639535 Z" id="Path" fill="#007EBE" fill-rule="nonzero"></path>
                    <path d="M36.8757576,39.3576744 C38.0340067,37.0631008 39.2385859,35.915814 40.4894949,35.915814 C40.8802237,35.8650553 41.2722561,35.9996428 41.5474692,36.2790241 C41.8226824,36.5584054 41.948896,36.9499126 41.8880808,37.3355814 C41.8332766,38.3332036 41.6731439,39.3223975 41.410303,40.2869767 C41.1427551,41.2534776 40.9825465,42.246026 40.9325253,43.2469767 C40.9116876,43.7219784 41.0490383,44.1905978 41.3234343,44.5806977 C40.8778354,44.8839257 40.3524234,45.0514234 39.8119192,45.0625581 C38.9432323,45.0625581 38.5610101,44.6667442 38.5610101,43.8665116 C38.6116652,42.8872244 38.7630207,41.9156079 39.0127273,40.9667442 C39.2553262,40.0712304 39.4123811,39.1551054 39.4818182,38.2304651 C39.4818182,37.9809302 39.4036364,37.8604651 39.2559596,37.8604651 C38.8476768,37.8604651 38.1874747,38.7209302 37.2840404,40.4418605 C36.5692143,41.6082362 36.1076817,42.9093964 35.9288889,44.2623256 C35.938688,44.4672553 35.9766818,44.6699011 36.0418182,44.8646512 C35.6145515,44.9819874 35.1734767,45.0427483 34.730101,45.0453488 C33.9656566,45.0453488 33.5921212,44.77 33.5921212,44.1848837 C33.6094606,43.6987002 33.6852824,43.2163006 33.8179798,42.747907 C34.0612121,41.8874419 34.1828283,41.3625581 34.1915152,41.3023256 L35.060202,36.7590698 C35.2227094,36.028823 35.3215245,35.2860873 35.3555556,34.5390698 C35.3491866,34.3447796 35.3229927,34.1516258 35.2773737,33.9625581 C35.7212156,33.6790807 36.2349332,33.5213652 36.7628283,33.5065116 C37.4490909,33.5065116 37.7878788,33.7990698 37.7878788,34.3669767 C37.7878788,34.739845 37.4838384,36.4034109 36.8757576,39.3576744 Z" id="Path" fill="#007EBE" fill-rule="nonzero"></path>
                    <path d="M45.1369697,44.8904651 C44.7091437,45.0023371 44.2676392,45.0544686 43.8252525,45.0453488 C43.0608081,45.0453488 42.6872727,44.7786047 42.6872727,44.1848837 C42.764039,43.4601841 42.9035422,42.7433604 43.1042424,42.0423256 C43.6038258,40.3126373 43.9211428,38.5363324 44.0511111,36.7418605 C44.0531095,36.5125908 44.0118637,36.2849678 43.9294949,36.0706977 C44.4153034,35.8843919 44.9290943,35.7796981 45.449697,35.7609302 C46.1359596,35.7609302 46.4747475,36.0448837 46.4747475,36.6213953 C46.3760058,37.5283195 46.2046241,38.4260317 45.9622222,39.3060465 C47.2884175,36.9024806 48.4003367,35.7006977 49.2979798,35.7006977 C49.7757576,35.7006977 50.010303,35.9244186 50.010303,36.3718605 C49.942532,37.377088 49.5106754,38.3242915 48.7941414,39.0393023 C48.5769697,38.7381395 48.3858586,38.5832558 48.2121212,38.5832558 C47.6387879,38.5832558 46.9612121,39.3490698 46.1880808,40.872093 C45.5749252,41.9004798 45.181673,43.0427111 45.0327273,44.227907 C45.0296777,44.4529903 45.064918,44.6769751 45.1369697,44.8904651 Z" id="Path" fill="#007EBE" fill-rule="nonzero"></path>
                    <path d="M52.6163636,45.1486047 C51.7722473,45.189288 50.9496583,44.8771027 50.3490909,44.2881395 C49.758777,43.6695869 49.4455478,42.8411803 49.480404,41.9906977 C49.4749811,40.4264959 50.0115976,38.9078171 51.0006061,37.6883721 C51.813981,36.4908047 53.1661283,35.7617103 54.6230303,35.7351163 C55.4510979,35.6983676 56.2560781,36.0110584 56.8381818,36.5955814 C57.4258051,37.2088489 57.7389767,38.0308989 57.7068687,38.875814 C57.700759,40.4235243 57.1682667,41.9240355 56.1953535,43.1351163 C55.4195079,44.359126 54.075057,45.1154948 52.6163636,45.1486047 L52.6163636,45.1486047 Z M53.0767677,43.8148837 C53.6935354,43.8148837 54.2060606,43.2555814 54.5969697,42.1455814 C54.9794959,41.0701707 55.1762597,39.9385784 55.1789899,38.7983721 C55.1789899,37.6539535 54.840202,37.0774419 54.1539394,37.0774419 C53.4676768,37.0774419 53.0072727,37.6281395 52.6076768,38.7295349 C52.2119508,39.807967 52.0091145,40.9464937 52.0082828,42.0939535 C52.0082828,43.2469767 52.3644444,43.8148837 53.0767677,43.8148837 Z" id="Shape" fill="#007EBE" fill-rule="nonzero"></path>
                    <path d="M61.3032323,45.1486047 C60.456834,45.1874804 59.6322729,44.8757411 59.0272727,44.2881395 C58.4403362,43.6675049 58.1276568,42.8405525 58.1585859,41.9906977 C58.1548853,40.428231 58.6879263,38.9110013 59.670101,37.6883721 C60.4865209,36.4941226 61.8367836,35.7660444 63.2925253,35.7351163 C64.1233843,35.6969901 64.9315845,36.0097053 65.5163636,36.5955814 C66.1006233,37.2109328 66.4132436,38.0315357 66.3850505,38.875814 C66.3789408,40.4235243 65.8464485,41.9240355 64.8735354,43.1351163 C64.092796,44.3497948 62.7562496,45.1035462 61.3032323,45.1486047 L61.3032323,45.1486047 Z M61.7636364,43.8148837 C62.380404,43.8148837 62.8842424,43.2555814 63.2838384,42.1455814 C63.6663646,41.0701707 63.8631284,39.9385784 63.8658586,38.7983721 C63.8658586,37.6539535 63.5270707,37.0774419 62.8408081,37.0774419 C62.1545455,37.0774419 61.6854545,37.6281395 61.2858586,38.7295349 C60.8969702,39.8095045 60.6971945,40.9473431 60.6951515,42.0939535 C60.6951515,43.2469767 61.0513131,43.8148837 61.7636364,43.8148837 Z" id="Shape" fill="#007EBE" fill-rule="nonzero"></path>
                    <path d="M73.8644444,44.8904651 C73.4519717,45.0076641 73.0252603,45.0684596 72.5961616,45.0711628 C71.9359596,45.0711628 71.5971717,44.8130233 71.5971717,44.2967442 C71.6365439,43.858859 71.7091396,43.4245309 71.8143434,42.9974419 C72.2405726,41.3471748 72.5597434,39.67158 72.769899,37.9809302 C72.769899,37.8174419 72.7177778,37.74 72.6048485,37.74 C72.3094949,37.74 71.6492929,38.6004651 70.6329293,40.3213953 C69.8287816,41.4868095 69.3084185,42.8210579 69.1127273,44.2193023 C69.1158014,44.436162 69.1539276,44.6511337 69.2256566,44.8560465 C68.8188508,44.9731166 68.3982854,45.0367615 67.9747475,45.0453488 C67.2450505,45.0453488 66.880202,44.77 66.880202,44.1848837 C66.8933711,43.8212711 66.9487524,43.4603685 67.0452525,43.1093023 C67.6440615,41.0279998 68.048257,38.8965336 68.2527273,36.7418605 C68.2518732,36.5128388 68.2107184,36.2857179 68.1311111,36.0706977 C68.6024842,35.886594 69.1016282,35.7818933 69.6078788,35.7609302 C70.2333333,35.7609302 70.5547475,36.0362791 70.5547475,36.6213953 C70.5385283,37.0776152 70.4715233,37.5306682 70.3549495,37.9723256 L70.0335354,39.3232558 C71.4234343,36.9139535 72.6830303,35.7093023 73.8123232,35.7093023 C74.6115152,35.7093023 75.019798,36.1911628 75.019798,37.1376744 C75.0057189,37.5057568 74.95627,37.8716734 74.8721212,38.2304651 C74.7839017,38.5897159 74.7229236,38.9549977 74.689697,39.3232558 C76.079596,36.9139535 77.3449832,35.7093023 78.4858586,35.7093023 C79.3024242,35.7093023 79.7107071,36.1567442 79.7107071,37.0430233 C79.6652799,37.5744082 79.5752036,38.1011163 79.4414141,38.6176744 C79.0718426,40.1411536 78.8077266,41.6878519 78.6509091,43.2469767 C78.6300848,43.7246553 78.7673484,44.1959985 79.0418182,44.5893023 C78.6204264,44.8725124 78.1261914,45.0307229 77.6171717,45.0453488 C77.2866861,45.0896201 76.9544396,44.9772213 76.7203386,44.7419508 C76.4862376,44.5066804 76.3775917,44.175984 76.4270707,43.8493023 C76.4483008,43.0472753 76.5472056,42.2491187 76.7224242,41.465814 C77.1567677,39.3433333 77.3739394,38.1731008 77.3739394,37.9551163 C77.3739394,37.7916279 77.3218182,37.714186 77.2088889,37.714186 C76.9222222,37.714186 76.2707071,38.5746512 75.2630303,40.2955814 C74.4697388,41.4649732 73.9557948,42.7979968 73.760202,44.1934884 C73.7574188,44.4298194 73.7926059,44.6650845 73.8644444,44.8904651 L73.8644444,44.8904651 Z" id="Path" fill="#007EBE" fill-rule="nonzero"></path>
                    <polyline id="Path" fill="#FFFFFF" points="50.4012121 28.9976744 49.6715152 27.3713953 50.4012121 25.2202326 52.0343434 23.0604651 54.2147475 23.284186 57.2985859 24.1532558 59.470303 25.9 59.7830303 28.8169767 58.5668687 30.7874419 56.2648485 31.8716279 54.9357576 33.127907 54.3884848 34.9262791 52.9377778 34.384186 50.5836364 32.8697674 50.9919192 31.6909302 51.6694949 30.2539535 50.4012121 28.9976744"></polyline>
                    <rect id="Rectangle" fill="#FFFFFF" fill-rule="nonzero" x="32.1674747" y="29.3504651" width="1.98060606" height="1"></rect>
                    <path d="M27.2507071,25.9946512 L29.0575758,24.5576744 L31.7765657,24.5576744 L33.2359596,26.8981395 L36.319798,28.7825581 L35.2339394,32.1383721 L32.6973737,31.054186 L31.4290909,32.8267442 L28.8838384,32.8267442 L26.8250505,31.9662791 C26.8250505,31.9662791 26.5123232,30.2453488 26.3472727,29.6860465 C26.2742158,28.6844989 26.4378014,27.6798678 26.8250505,26.7518605 L27.2507071,26.0290698" id="Path" fill="#FFFFFF"></path>
                    <path d="M40.0030303,15.3765116 C42.3360971,14.8823165 44.7715135,15.2787436 46.8222222,16.4865116 C49.9147475,18.5 49.4282828,20.694186 49.4282828,20.694186 C49.413154,21.5429356 49.29355,22.3866873 49.0721212,23.2067442 C48.8288889,23.4476744 48.7072727,24.7039535 47.9254545,25.0567442 C47.4037839,25.3106352 46.9259019,25.6446002 46.5094949,26.0462791 C46.4445693,26.910796 46.2694403,27.7636973 45.9882828,28.5846512 C45.7826435,29.2650811 45.6916592,29.9744376 45.7189899,30.684186 L45.3888889,31.6393023 L42.8523232,32.0523256 L39.5339394,31.3983721 L39.5339394,27.9565116 L39.8814141,27.7155814 L39.9335354,27.3197674 L41.3234343,27.1734884 L40.6806061,26.64 C39.8187689,26.8140654 38.9286671,26.7964319 38.0745455,26.5883721 C36.9365657,26.2613953 34.7474747,23.5337209 34.7474747,23.5337209 C34.7474747,23.5337209 34.5389899,19.6702326 35.2339394,18.9818605 C35.9288889,18.2934884 36.1981818,17.2609302 36.8670707,16.8306977 C37.5359596,16.4004651 37.9268687,15.8755814 38.0745455,15.8755814 C38.2222222,15.8755814 40.0030303,15.3765116 40.0030303,15.3765116 Z" id="Path" fill="#FFFFFF" fill-rule="nonzero"></path>
                    <path d="M48.1686869,15.8755814 C48.7632929,16.1419986 49.3256965,16.4739378 49.8452525,16.8651163 C50.3977808,17.3946393 50.8742243,17.996862 51.2612121,18.6548837 C52.0448655,20.0170845 52.1968524,21.6480248 51.6781818,23.1293023 C51.9518873,23.0903918 52.2220329,23.0299686 52.4860606,22.9486047 C52.7388261,22.9057829 52.9942214,22.8799102 53.2505051,22.8711628 C53.8210147,22.8329665 54.3930865,22.9181119 54.9270707,23.1206977 C55.0052525,23.1206977 55.3179798,23.335814 55.1008081,23.4304651 C54.8836364,23.5251163 54.5969697,23.4304651 54.379798,23.3874419 C53.8036764,23.3560398 53.2277824,23.4530739 52.6945455,23.6713953 C51.0092929,24.3511628 49.5151515,26.3388372 50.3577778,28.1630233 C51.077255,29.423754 52.3763086,30.2537133 53.8325253,30.3830233 C53.9715152,30.3830233 54.6056566,30.537907 54.2842424,30.7788372 C53.9628283,31.0197674 53.0593939,30.7788372 52.6684848,30.6669767 C51.7142749,30.3521792 50.8604532,29.7942871 50.1927273,29.0493023 C49.4506241,28.2172501 49.0918062,27.1166894 49.2024242,26.0118605 C48.9939394,26.0118605 48.889697,26.2269767 48.6985859,26.2872093 C48.4489861,26.3749303 48.2077092,26.4843489 47.9775758,26.614186 C47.5499434,26.8225215 47.2001396,27.1599756 46.9785859,27.577907 C46.629221,28.5748196 46.6853008,29.6672842 47.1349495,30.6239535 C47.2826263,31.0111628 47.6648485,31.4844186 47.5779798,31.8974419 C47.4911111,32.3104651 47.0220202,32.5169767 46.7092929,32.6460465 C45.6160874,33.0306168 44.4641364,33.2256429 43.3040404,33.2225942 C42.0845654,33.1691868 40.8805221,32.9312376 39.7337374,32.5169767 C39.3254545,32.3965116 38.8042424,32.2588372 38.6044444,31.845814 C38.4046465,31.4327907 38.6652525,30.907907 38.7521212,30.4776744 C38.8737374,29.8925581 38.8737374,29.2902326 38.9953535,28.7051163 C39.0735354,28.3695349 38.9953535,27.6725581 39.5165657,27.6467442 C40.0377778,27.6209302 40.1072727,28.6104651 40.1333333,28.9546512 C40.1593939,29.2988372 40.1333333,29.3934884 40.1333333,29.6086047 C40.0682006,30.0681342 40.0682006,30.534424 40.1333333,30.9939535 C40.2789078,31.371169 40.6464769,31.6184756 41.0541414,31.6134884 C41.6075761,31.6780636 42.1655949,31.6953366 42.7220202,31.6651163 C43.2699735,31.6456712 43.8130768,31.5560107 44.3377778,31.3983721 C44.72,31.2693023 45.2064646,31.1144186 45.3107071,30.684186 C45.3366876,30.4669611 45.3366876,30.2474575 45.3107071,30.0302326 C45.3338391,29.753754 45.3832843,29.4800578 45.4583838,29.2127907 C45.6044201,28.6221363 45.8050655,28.0460599 46.0577778,27.4918605 C46.2141414,27.1734884 46.3878788,26.7948837 45.9361616,26.6744186 C45.5974244,26.6195825 45.263444,26.5390352 44.9371717,26.4334884 C44.6765657,26.3130233 44.2161616,26.0204651 44.3464646,25.6590698 C44.4767677,25.2976744 44.9284848,25.4353488 45.1630303,25.4525581 C47.169697,25.6160465 48.7941414,23.877907 49.1589899,22.0106977 C49.3265649,20.4965274 48.8443065,18.9822683 47.829899,17.8374419 C46.830986,16.7091938 45.5055289,15.9130342 44.0337374,15.5572093 C43.6464151,15.4760128 43.2549307,15.4156916 42.8610101,15.3765116 C42.6525253,15.3765116 41.9923232,15.3076744 41.9923232,15.0323256 C41.9923232,14.7569767 42.4614141,14.627907 42.6351515,14.5934884 C43.0324336,14.5332487 43.4366573,14.5332487 43.8339394,14.5934884 C44.7127613,14.6904716 45.5836006,14.8486144 46.44,15.0667442 C47.0350129,15.2950657 47.6127244,15.5653718 48.1686869,15.8755814 Z" id="Path" fill="#0082BE"></path>
                    <path d="M40.1507071,15.195814 C40.2028283,15.5572093 39.7424242,15.5916279 39.4991919,15.6862791 C38.9478216,15.8797654 38.4226458,16.139868 37.9355556,16.4606977 C37.0498796,17.0903432 36.3169129,17.9074938 35.789899,18.8527907 C34.7559335,20.6195938 34.7559335,22.799476 35.789899,24.5662791 C36.8236364,26.1237209 38.830303,26.6227907 40.6024242,26.614186 C41.1359427,26.6099321 41.6679905,26.5580948 42.1921212,26.4593023 C42.5693799,26.3667156 42.9406874,26.2517802 43.3040404,26.1151163 C43.4256566,26.1151163 43.9642424,25.9344186 43.9556595,26.2011628 C43.9468687,26.467907 43.5646465,26.5969767 43.399596,26.6916279 C41.8762596,27.4310468 40.1390781,27.6168258 38.4915152,27.2165116 C36.5949325,26.9470504 34.9092642,25.8768012 33.870101,24.2823256 C33.3171359,23.3316088 33.0772461,22.2337471 33.1838384,21.1416279 C33.2509754,20.5744811 33.3850918,20.0171012 33.5834343,19.4809302 C33.8211465,18.9641526 34.0939608,18.4639356 34.4,17.9837209 C34.6636378,17.5904543 34.9925969,17.2442433 35.3729293,16.9597674 C35.803085,16.5704635 36.2927048,16.2510118 36.8236364,16.0132558 C37.8665606,15.5009002 39.0052649,15.2079322 40.1680808,15.1527907" id="Path" fill="#0082BE"></path>
                    <path d="M30.4648485,23.2583721 C31.0133878,23.3254593 31.5562932,23.4318624 32.0892929,23.5767442 C32.5672134,23.797616 32.973374,24.1462903 33.2620202,24.5834884 C33.5432827,25.0165173 33.7187677,25.5085279 33.7745455,26.0204651 C33.763214,26.5188605 33.939745,27.0035606 34.269697,27.38 C34.6409155,27.6697461 35.1111708,27.8054772 35.5814141,27.7586047 C35.9375758,27.7586047 36.450101,27.5951163 36.6933333,27.922093 C36.9365657,28.2490698 36.8670707,28.86 36.7975758,29.2816279 C36.7015393,29.8482164 36.5107017,30.3949533 36.2329293,30.8993023 C35.9857708,31.3696106 35.6949541,31.8161101 35.3642424,32.2330233 C34.9559596,32.7234884 34.4955556,32.4739535 34.069899,32.2330233 C33.6442424,31.992093 32.9753535,31.845814 32.8016162,31.4413953 C32.6278788,31.0369767 33.4965657,31.1316279 33.670303,31.2090698 C33.9853268,31.4184991 34.351326,31.5403347 34.730101,31.5618605 C35.1991919,31.5016279 35.459798,30.9337209 35.5987879,30.537907 C35.7539731,30.1166723 35.7900184,29.6614443 35.7030303,29.2213953 C35.5553535,28.7481395 34.9733333,28.5588372 34.599798,28.3006977 C34.2262626,28.0425581 33.939596,27.5865116 33.6094949,27.775814 C33.2793939,27.9651163 33.2185859,28.1888372 32.9666667,28.3351163 C32.7147475,28.4813953 32.5670707,28.3351163 32.6452525,28.0683721 C32.7581818,27.6295349 32.9840404,27.3197674 32.879798,26.837907 C32.668644,26.0346198 32.0986243,25.3708689 31.3320139,25.0356129 C30.5654035,24.700357 29.686181,24.7303217 28.9446465,25.1169767 C28.1707087,25.4919288 27.5311077,26.0924477 27.1117172,26.837907 C26.9727273,27.0530233 26.790303,27.4660465 26.5036364,27.5348837 C26.2169697,27.6037209 26.5036364,26.6744186 26.5644444,26.5797674 C26.8732391,25.7827305 27.3637744,25.0671434 27.9977778,24.4888372 C28.3073839,24.1696818 28.6648562,23.8997614 29.0575758,23.6886047 C29.5179798,23.4648837 30.0391919,23.4476744 30.5082828,23.2583721" id="Path" fill="#0082BE"></path>
                    <path d="M57.6634343,24.1962791 L58.5929293,24.8330233 C59.0232158,25.2031887 59.4267017,25.6028558 59.800404,26.0290698 C60.4401242,26.8876054 60.7258747,27.9551812 60.599596,29.0148837 C60.4685327,30.0205715 59.8964245,30.9178361 59.0359596,31.4672093 C58.5741945,31.7406496 58.0527854,31.9000187 57.5157576,31.9318605 C56.9689002,31.9007718 56.420979,31.9708022 55.9,32.1383721 C55.1789899,32.5083721 55.1529293,33.472093 55.0747475,34.1604651 C54.9965657,34.8488372 54.4145455,35.1930233 53.6848485,35.0811628 C52.860065,34.9170827 52.0734573,34.6019158 51.3654545,34.1518605 C50.5923232,33.6872093 49.3935354,32.8525581 50.0624242,31.8544186 C50.3317172,31.45 50.5488889,30.9939535 50.8529293,30.6239535 C51.1569697,30.2539535 51.5478788,30.1162791 51.5565657,30.6239535 C51.5565657,31.4327907 50.3577778,32.3448837 51.2612121,33.0332558 C51.8519192,33.4893023 52.9985859,34.0744186 53.7282828,33.695814 C54.1018182,33.5065116 54.2842424,32.9386047 54.5969697,32.6288372 C54.909697,32.3190698 55.3266667,32.1469767 55.4656566,31.7683721 C55.6046465,31.3897674 55.1181818,31.277907 54.8488889,31.0197674 C54.7209115,30.9204871 54.6470245,30.7677474 54.6490909,30.6067442 C54.709899,30.3227907 55.170303,30.5206977 55.3179798,30.6067442 C56.2452605,31.0031001 57.3212474,30.8209691 58.0630303,30.142093 C59.470303,28.8513953 59.0620202,26.467907 57.8371717,25.1944186 C57.565854,24.9380111 57.2754748,24.7021537 56.9684848,24.4888372 C56.7686869,24.3339535 56.2909091,24.0672093 56.230101,23.8004651 C56.1692929,23.5337209 56.6036364,23.7144186 56.6818182,23.7316279 L57.6634343,24.1962791 Z" id="Path" fill="#0082BE"></path>
                    <path d="M26.2430303,28.4383721 C26.5644444,28.5502326 26.3820202,29.0665116 26.3646465,29.2988372 C26.3641244,29.8443741 26.5208371,30.3787218 26.8163636,30.8390698 C27.2998688,31.6981508 28.1204407,32.3209903 29.0836364,32.56 C30.036149,32.7790587 31.0336933,32.4694531 31.689697,31.7511628 C32.023667,31.362852 32.269548,30.9080226 32.4107071,30.4174419 C32.5410101,29.97 32.480202,29.4967442 32.5670707,29.0406977 C32.6105051,28.8169767 32.7929293,28.4469767 32.9666667,28.834186 C33.09075,29.1878117 33.1206696,29.5671582 33.0535354,29.9355814 C32.8637624,30.9770052 32.3361168,31.9286541 31.5507071,32.6460465 C30.8911521,33.2557736 30.007388,33.5698439 29.1069453,33.5145058 C28.2065025,33.4591677 27.36871,33.0392963 26.790303,32.3534884 C26.3523715,31.7922571 26.0788773,31.1224353 25.999798,30.4174419 C25.9216162,29.797907 25.7652525,28.9718605 26.2430303,28.4555814" id="Path" fill="#0082BE"></path>
                </g>
            </g>
        </g>
    </g>
</svg>