<svg id="Layer_1" data-name="Layer 1" xmlns="http://www.w3.org/2000/svg" viewBox="0 0 240.47 240.47"><defs><style>.cls-1{fill:#6aaa43;}.cls-2{fill:#fff;}</style></defs><circle class="cls-1" cx="120.23" cy="120.23" r="120.23"/><path class="cls-2" d="M75.34,92.69l.41-.27a3.92,3.92,0,0,1,5.35,1l23.18,40.2c.29.52,2.08,3.3,6.53,1.32a4.12,4.12,0,0,0,1.21-5.78L88.76,88.84l-.16-.25A12.86,12.86,0,0,0,70.79,85l-.4.27A12.69,12.69,0,0,0,65,93.45,12.84,12.84,0,0,0,66.81,103l14.6,24.48a4.47,4.47,0,0,0,7.68-4.58L74.43,98.32l-.12-.19a3.89,3.89,0,0,1-.59-3A3.83,3.83,0,0,1,75.34,92.69Z"/><path class="cls-2" d="M194.08,117.78a8.48,8.48,0,0,1-17,0c0-4.68,8.47-16.12,8.47-16.12S194.08,113.1,194.08,117.78Z"/><path class="cls-2" d="M148.24,48.94l-5.81,8.51h4.17V65a13.39,13.39,0,0,1-3.95,9.12l-2.33,2.51a13,13,0,0,0-3.76,8.87V99.13h3.19V85.54a10,10,0,0,1,2.93-6.75L145,76.28A16.47,16.47,0,0,0,149.79,65V57.45h4Z"/><path class="cls-2" d="M173.52,48.66l-5.81,8.51h4.16v7.59a13.45,13.45,0,0,1-3.94,9.13l-2.34,2.51a13,13,0,0,0-3.76,8.87V98.86H165V85.27A9.93,9.93,0,0,1,168,78.52L170.28,76a16.49,16.49,0,0,0,4.78-11.25V57.17h4Z"/><path class="cls-2" d="M201.49,57.25,196,48.74l-5.82,8.51h4.17v7.59A13.39,13.39,0,0,1,190.37,74L188,76.47a13,13,0,0,0-3.76,8.87V98.93h3.19V85.34a10,10,0,0,1,2.93-6.75l2.33-2.51a16.47,16.47,0,0,0,4.78-11.24V57.25Z"/><path class="cls-2" d="M153.34,118.54c-1.06-.44-2.2-.86-3.43-1.26a4.34,4.34,0,0,0-2.11-.14,6.73,6.73,0,0,1,.17,1.33,9.08,9.08,0,0,1-2.51,6.28,4.37,4.37,0,0,0,1.68,1c4.61,1.5,6.68,2.94,7.38,3.67a7.79,7.79,0,0,1-1.94,1.39c-3,1.13-7,2.6-12,4-3.19.7-7,1.33-11.24,1.83a.11.11,0,0,1,0-.05c-3.48.43-7.31.76-11.52,1h-.12c-1.07.05-2.19.09-3.31.12l-1.79,0-4.42.07a150.65,150.65,0,0,1-31.84-3c-5-1.39-9-2.86-12-4a7.69,7.69,0,0,1-2-1.39c.71-.73,2.77-2.17,7.38-3.67a4.47,4.47,0,0,0-2.77-8.49c-9.12,3-13.74,7.06-13.74,12.14a7.76,7.76,0,0,0,.33,2.25,4.46,4.46,0,0,0-.33,1.62,56.12,56.12,0,0,0,29.63,49.56l0,.09a54.38,54.38,0,0,0,20,6l.42,0c.78.07,1.55.14,2.33.18l1.79.06c.34,0,.68,0,1,0h.21c.6,0,1.19,0,1.79-.05.3,0,.6,0,.9,0a55,55,0,0,0,39.9-20.2l-.18-.05a56.09,56.09,0,0,0,12.71-35.66,4.46,4.46,0,0,0-.33-1.62,7.76,7.76,0,0,0,.33-2.25,8,8,0,0,0-.21-1.84c-.31,0-.62,0-.94,0A9.16,9.16,0,0,1,153.34,118.54Zm-42.81,61.75h-.45c-.55,0-1.1,0-1.65,0h-.5c-.73,0-1.46,0-2.18-.08l-1.49-.1-.35,0a46.79,46.79,0,0,1-41.32-40.22,55.56,55.56,0,0,0,8.76,2.94c.84.21,1.71.42,2.6.61a123.92,123.92,0,0,0,33.68,4.5h.31l2.29-.16a.88.88,0,0,0,0,.15,123.59,123.59,0,0,0,32.62-4.48c.89-.19,1.76-.4,2.6-.61a55.56,55.56,0,0,0,8.76-2.94C151.19,162,132.91,179.22,110.53,180.29Z"/><path class="cls-2" d="M163.33,101.66s-8.48,11.44-8.48,16.12c0,0,0,0,0,.07a8.46,8.46,0,0,0,8.47,8.4,8.12,8.12,0,0,0,.86,0,8.48,8.48,0,0,0,7.61-8.43C171.8,113.1,163.33,101.66,163.33,101.66Z"/><path class="cls-2" d="M128.94,113.48c-5.94-.74-11.28-1.06-14.49-1.2a4.47,4.47,0,1,0-.37,8.93c5.33.23,10.07.65,14.26,1.19a9.07,9.07,0,0,1-.9-3.93A13.36,13.36,0,0,1,128.94,113.48Z"/><path class="cls-2" d="M146.15,117.1c-1.13-5.18-8.31-14.89-8.31-14.89a82.06,82.06,0,0,0-7.09,11.52,12.36,12.36,0,0,0-1.38,4.6,8.48,8.48,0,0,0,16.95,0A5.83,5.83,0,0,0,146.15,117.1Z"/></svg>