<?xml version="1.0" encoding="UTF-8"?>
<svg width="62px" height="62px" viewBox="0 0 62 62" version="1.1" xmlns="http://www.w3.org/2000/svg" xmlns:xlink="http://www.w3.org/1999/xlink">
    <title>Second Break</title>
    <g id="App" stroke="none" stroke-width="1" fill="none" fill-rule="evenodd">
        <g id="a)-Record-Selection-Copy" transform="translate(-220.000000, -476.000000)">
            <g id="Second-Break" transform="translate(223.000000, 477.000000)">
                <g id="Asset-6">
                    <path d="M54.3100459,27.65 C54.3302338,16.7019874 47.6552672,6.85449703 37.4783383,2.81847088 C27.3014094,-1.21755527 15.6915376,1.3784267 8.20277081,9.36452469 C0.714004007,17.3506227 -1.13115485,29.1032238 3.55,39 L51.75,39 C53.4351981,35.4535772 54.3100459,31.5764497 54.3100459,27.65 L54.3100459,27.65 Z" id="Path" fill="#42914D" fill-rule="nonzero"></path>
                    <path d="M27.65,54.31 C37.0400704,54.3119227 45.7387337,49.3738168 50.55,41.31 L4.76,41.31 C9.56509415,49.3751924 18.2619097,54.3144062 27.65,54.31 Z" id="Path" fill="#42914D" fill-rule="nonzero"></path>
                    <path d="M3.55,39 C3.92,39.78 4.32,40.53 4.76,41.26 L50.55,41.26 C50.98,40.53 51.39,39.78 51.75,39 L3.55,39 Z" id="Path" fill="#FFFFFF" fill-rule="nonzero"></path>
                    <path d="M39.06,41.22 L28.74,41.22 L28.74,31.22 L24.92,31.22 C23.3144507,31.2331838 21.8104486,30.4360628 20.92,29.1 C20.0371895,27.7914667 19.8718324,26.1266215 20.48,24.67 C22.719865,19.2563391 28.0012698,15.7258829 33.86,15.7258829 C39.7187302,15.7258829 45.000135,19.2563391 47.24,24.67 L47.24,24.67 C47.8355157,26.1373681 47.6622835,27.8048149 46.7778496,29.11843 C45.8934156,30.4320451 44.413606,31.2197963 42.83,31.22 L39.06,31.22 L39.06,41.22 Z M31,39 L36.8,39 L36.8,29 L42.87,29 C43.7016704,29.004764 44.4808109,28.5939873 44.9467708,27.9050898 C45.4127306,27.2161923 45.5039827,26.3401384 45.19,25.57 C43.3017665,20.9970276 38.8424744,18.0138369 33.895,18.0138369 C28.9475256,18.0138369 24.4882335,20.9970276 22.6,25.57 C22.2913341,26.3401983 22.3849163,27.2133586 22.8497909,27.9006517 C23.3146654,28.5879447 24.090253,28.9998069 24.92,29 L31,29 L31,39 Z" id="Shape" fill="#FFFFFF" fill-rule="nonzero"></path>
                    <path d="M19.19,41.22 L8.58,41.22 L8.58,34.13 C8.58,31.9744659 10.3244729,30.2255129 12.48,30.22 L15.28,30.22 C17.4371528,30.225496 19.184504,31.9728472 19.19,34.13 L19.19,41.22 Z M10.83,39 L16.93,39 L16.93,34.13 C16.93,33.2187302 16.1912698,32.48 15.28,32.48 L12.48,32.48 C11.5687302,32.48 10.83,33.2187302 10.83,34.13 L10.83,39 Z" id="Shape" fill="#FFFFFF" fill-rule="nonzero"></path>
                </g>
            </g>
        </g>
    </g>
</svg>