<?xml version="1.0" encoding="UTF-8"?>
<svg width="62px" height="62px" viewBox="0 0 62 62" version="1.1" xmlns="http://www.w3.org/2000/svg" xmlns:xlink="http://www.w3.org/1999/xlink">
    <title>Steaming</title>
    <g id="App" stroke="none" stroke-width="1" fill="none" fill-rule="evenodd">
        <g id="a)-Record-Selection-Copy" transform="translate(-99.000000, -575.000000)">
            <g id="Steaming" transform="translate(102.000000, 576.000000)">
                <g id="Asset-7">
                    <path d="M27.65,54.3100015 C37.1995621,54.3131578 46.0203119,49.2046007 50.77,40.92 L4.54,40.92 C9.28638644,49.2030166 18.1034537,54.3116506 27.65,54.3100015 Z" id="Path" fill="#28437A" fill-rule="nonzero"></path>
                    <path d="M54.3100203,27.65 C54.3233889,16.7531141 47.7038094,6.94495646 37.5931583,2.88084079 C27.4825073,-1.18327489 15.9162533,1.31483612 8.38416758,9.18947809 C0.852081887,17.0641201 -1.12948173,28.729976 3.38,38.65 L51.93,38.65 C53.497936,35.1947616 54.3093886,31.4443504 54.3100203,27.65 Z" id="Path" fill="#28437A" fill-rule="nonzero"></path>
                    <path d="M3.38,38.66 C3.73,39.43 4.12,40.19 4.54,40.92 L50.77,40.92 C51.19,40.19 51.57,39.43 51.93,38.66 L3.38,38.66 Z" id="Path" fill="#FFFFFF" fill-rule="nonzero"></path>
                    <path d="M22.1,30.58 C22.1,27.75 20.53,25.12 17.36,22.76 C15.7944422,21.7600992 14.7567554,20.1137339 14.53,18.27 C14.24,14.73 17.47,11.36 17.53,11.33 L16.66,10.48 L17.53,11.33 L16.66,10.48 L15.79,9.62 C15.62,9.79 11.79,13.8 12.13,18.45 C12.3977196,21.0022861 13.7912768,23.3016554 15.93,24.72 C18.44,26.58 19.71,28.54 19.7,30.55 C19.7,33.3 17.29,35.55 16.34,36.38 L19.76,36.38 C21.1770774,34.7691485 22.0024988,32.7232323 22.1,30.58 Z" id="Path" fill="#FFFFFF" fill-rule="nonzero"></path>
                    <path d="M33.46,29.76 C33.46,26.67 31.91,23.76 28.77,21.17 C27.1454138,19.9463666 26.1022652,18.1027463 25.89,16.08 C25.56,12 28.89,8.14 28.89,8.08 L27.07,6.5 C26.91,6.68 23.07,11.15 23.46,16.27 C23.7115828,18.9535144 25.0706063,21.4106288 27.21,23.05 C29.76,25.16 31,27.41 31,29.72 C31,32.89 28.56,35.48 27.6,36.38 L30.9,36.38 C32.451012,34.5107226 33.3498214,32.1864577 33.46,29.76 Z" id="Path" fill="#FFFFFF" fill-rule="nonzero"></path>
                    <path d="M44.82,30.58 C44.82,27.75 43.25,25.12 40.07,22.76 C38.5074871,21.7570759 37.4707965,20.112291 37.24,18.27 C36.96,14.73 40.19,11.36 40.24,11.33 L39.37,10.48 L40.24,11.33 L39.37,10.48 L38.5,9.62 C38.33,9.79 34.5,13.8 34.84,18.45 C35.1077196,21.0022861 36.5012768,23.3016554 38.64,24.72 C41.15,26.58 42.42,28.54 42.4,30.55 C42.4,33.3 40,35.55 39.05,36.38 L42.46,36.38 C43.8878062,34.7740685 44.72092,32.7265856 44.82,30.58 L44.82,30.58 Z" id="Path" fill="#FFFFFF" fill-rule="nonzero"></path>
                </g>
            </g>
        </g>
    </g>
</svg>