<?xml version="1.0" encoding="utf-8"?>
<!-- Generator: Adobe Illustrator 24.2.1, SVG Export Plug-In . SVG Version: 6.00 Build 0)  -->
<svg version="1.1" id="Capa_1" xmlns="http://www.w3.org/2000/svg" xmlns:xlink="http://www.w3.org/1999/xlink" x="0px" y="0px"
	 viewBox="0 0 62 62" style="enable-background:new 0 0 62 62;" xml:space="preserve">
<style type="text/css">
	.st0{fill:#337C3A;}
	.st1{fill:#FFFFFF;}
</style>
<g id="App">
	<g id="a_x29_-Record-Selection-Copy" transform="translate(-220.000000, -476.000000)">
		<g id="Second-Break" transform="translate(223.000000, 477.000000)">
			<g id="Asset-6">
				<path id="Path" class="st0" d="M54.3,27.6c0-10.9-6.7-20.8-16.8-24.8S15.7,1.4,8.2,9.4S-1.1,29.1,3.5,39h48.2
					C53.4,35.5,54.3,31.6,54.3,27.6L54.3,27.6z"/>
				<path id="Path_1_" class="st0" d="M27.6,54.3c9.4,0,18.1-4.9,22.9-13H4.8C9.6,49.4,18.3,54.3,27.6,54.3z"/>
				<path id="Path_2_" class="st1" d="M3.5,39c0.4,0.8,0.8,1.5,1.2,2.3h45.8c0.4-0.7,0.8-1.5,1.2-2.3H3.5z"/>
				<path id="Shape" class="st1" d="M43,41.3H32.7v-10h-3.8c-1.6,0-3.1-0.8-4-2.1c-0.9-1.3-1-3-0.4-4.4c2.2-5.4,7.5-8.9,13.4-8.9
					s11.1,3.5,13.4,8.9l0,0c0.6,1.5,0.4,3.1-0.5,4.4c-0.9,1.3-2.4,2.1-3.9,2.1H43V41.3z M35,39h5.8V29h6.1c0.8,0,1.6-0.4,2.1-1.1
					c0.5-0.7,0.6-1.6,0.2-2.3C47.3,21,42.8,18,37.9,18s-9.4,3-11.3,7.6c-0.3,0.8-0.2,1.6,0.2,2.3c0.5,0.7,1.2,1.1,2.1,1.1H35V39z"/>
				<path id="Shape_1_" class="st1" d="M18.2,41.2H7.6v-7.1c0-2.2,1.7-3.9,3.9-3.9h2.8c2.2,0,3.9,1.8,3.9,3.9V41.2z M9.8,39h6.1
					v-4.9c0-0.9-0.7-1.7-1.7-1.7h-2.8c-0.9,0-1.6,0.7-1.6,1.7V39z"/>
				<path id="Shape_2_" class="st1" d="M28,40.2h-7.6v-5.1c0-1.6,1.3-2.8,2.8-2.8h2c1.6,0,2.8,1.3,2.8,2.8V40.2z M22,38.6h4.4v-3.5
					c0-0.7-0.5-1.2-1.2-1.2h-2c-0.7,0-1.2,0.5-1.2,1.2V38.6z"/>
			</g>
		</g>
	</g>
</g>
</svg>
